{
.appVersion = "3306";
.formatVersion = 3;
DisplayStrings = (
"¿¡Y!Vt,V..?ambién llegó ayer?  ",
"Farbe Fest Firn Fjord Font Frau  Fuss Fàhre Fórde Füsse Rest Rohr Róhre Rymer Test Tod Tauf Tim Tja Turm Traum Tsara Twist Tyrol Tüte Tóten Tàter TéT Tè Veste Vogel VéVèVèVater Vijf Vlut Vulkan Vytautas Vroni Vàter Vógel Vs Ws Vz Wz Weste Wolf Wüste Wórpe Wàrter Waage Wiege Wlasta Wurst Wyhl Wrasen Yeats Yoni auf Yqem Yak Ybbs Yggdrasil Yps Ysop Ytong Yuma "
);
axes = (
{
name = Weight;
tag = wght;
}
);
classes = (
{
automatic = 1;

glyphs = (
{
glyphname = A;
kernLeft = A;
kernRight = A;
lastChange = "2024-06-17 14:29:44 +0000";
layers = (
{
anchors = (
{
name = bottom;
pos = (321,0);
},
{
name = ogonek;
pos = (560,-5);
},
{
name = top;
pos = (321,650);
}
);
background = {
shapes = (
{
closed = 0;
nodes = (
(441,0,l),
(476,700,l)
);
}
);
};
layerId = "6F9C6BB4-2DCF-443B-A55D-9CE049090094";
shapes = (
{
attr = {
lineCapEnd = 1;
lineCapStart = 1;
};
closed = 0;
nodes = (
(572,0,l),
(331,731,l),
(329,731,l),
(67,0,ls)
);
},
{
attr = {
lineCapEnd = 1;
lineCapStart = 1;
};
closed = 0;
nodes = (
(164,239,l),
(482,239,l)
);
}
);
width = 639;
}
);
unicode = 65;
},
{
glyphname = AE;
kernLeft = A;
kernRight = A;
lastChange = "2024-06-17 14:29:44 +0000";
layers = (
{
anchors = (
{
name = bottom;
pos = (219,0);
},
{
name = ogonek;
pos = (477,10);
},
{
name = top;
pos = (219,650);
},
{
name = topleft;
pos = (510,700);
}
);
layerId = "6F9C6BB4-2DCF-443B-A55D-9CE049090094";
shapes = (
{
attr = {
identifier = ID0x7fadab0a7ef0;
lineCapEnd = 1;
lineCapStart = 1;
};
closed = 0;
nodes = (
(465,700,l),
(379,700,l),
(378,700,l),
(67,0,ls)
);
},
{
attr = {
identifier = ID0x7fadab0a7ef0;
lineCapEnd = 1;
lineCapStart = 1;
};
closed = 0;
nodes = (
(159,228,l),
(724,394,l)
);
},
{
attr = {
identifier = ID0x7fadab051540;
lineCapEnd = 1;
lineCapStart = 1;
};
closed = 0;
nodes = (
(757,0,l),
(463,0,l),
(465,700,l),
(748,700,l)
);
}
);
width = 823;
}
);
unicode = 198;
},
{
glyphname = B;
kernLeft = H;
kernRight = B;
lastChange = "2024-06-17 14:29:44 +0000";
layers = (
{
background = {
shapes = (
{
closed = 0;
nodes = (
(133,0,l),
(80,0,o),
(93,64,o),
(101,152,cs),
(151,700,l)
);
},
{
closed = 0;
nodes = (
(34,700,l),
(94,700,o),
(224,700,o),
(273,700,cs),
(322,700,o),
(414,696,o),
(414,567,cs),
(414,406,o),
(265,358,o),
(200,358,c),
(287,360,ls),
(338,360,o),
(434,355,o),
(434,220,cs),
(434,51,o),
(278,1,o),
(210,1,cs)
);
}
);
};
layerId = "6F9C6BB4-2DCF-443B-A55D-9CE049090094";
shapes = (
{
attr = {
lineCapEnd = 1;
lineCapStart = 1;
};
closed = 0;
nodes = (
(108,379,l),
(343,379,o),
(442,369,o),
(442,231,cs),
(442,54,o),
(295,0,o),
(134,0,cs),
(94,0,l),
(108,731,l),
(273,731,l),
(325,731,o),
(421,727,o),
(421,596,cs),
(421,433,o),
(288,378,o),
(108,378,c)
);
}
);
width = 517;
}
);
unicode = 66;
},
{
glyphname = C;
kernLeft = O;
kernRight = C;
lastChange = "2024-06-17 14:29:44 +0000";
layers = (
{
anchors = (
{
name = bottom;
pos = (288,0);
},
{
name = top;
pos = (288,700);
}
);
background = {
shapes = (
{
closed = 0;
nodes = (
(478,681,l),
(431,694,o),
(369,700,o),
(311,700,cs),
(173,700,o),
(98,415,o),
(109,213,cs),
(116,84,o),
(173,0,o),
(255,0,cs),
(343,0,o),
(485,152,o),
(539,230,c)
);
}
);
};
layerId = "6F9C6BB4-2DCF-443B-A55D-9CE049090094";
shapes = (
{
attr = {
lineCapEnd = 1;
lineCapStart = 1;
};
closed = 0;
nodes = (
(510,709,l),
(449,724,o),
(396,731,o),
(349,731,cs),
(159,731,o),
(80,609,o),
(80,342,cs),
(80,147,o),
(156,0,o),
(300,0,cs),
(362,0,o),
(435,26,o),
(522,85,cs)
);
}
);
width = 589;
}
);
unicode = 67;
},
{
glyphname = D;
kernLeft = H;
kernRight = O;
lastChange = "2024-06-17 14:29:44 +0000";
layers = (
{
background = {
shapes = (
{
closed = 0;
nodes = (
(34,700,l),
(94,700,o),
(224,700,o),
(273,700,cs),
(322,700,o),
(414,696,o),
(414,571,c)
);
},
{
closed = 0;
nodes = (
(434,220,l),
(434,51,o),
(272,0,o),
(118,0,cs),
(91,0,o),
(88,12,o),
(90,39,cs),
(151,700,l)
);
},
{
closed = 0;
nodes = (
(178,20,l),
(232,7,o),
(279,1,o),
(317,1,cs),
(411,1,o),
(486,141,o),
(520,267,cs),
(569,453,o),
(560,701,o),
(418,701,cs),
(360,701,o),
(296,658,o),
(231,596,c)
);
}
);
};
layerId = "6F9C6BB4-2DCF-443B-A55D-9CE049090094";
shapes = (
{
attr = {
lineCapEnd = 1;
lineCapStart = 1;
};
closed = 0;
nodes = (
(107,731,l),
(271,731,l),
(478,731,o),
(569,604,o),
(569,455,cs),
(569,188,o),
(393,0,o),
(109,0,c),
(94,0,l),
(107,731,l)
);
}
);
width = 645;
}
);
unicode = 68;
},
{
glyphname = Eth;
kernLeft = Eth;
kernRight = O;
lastChange = "2024-06-17 14:29:45 +0000";
layers = (
{
layerId = "6F9C6BB4-2DCF-443B-A55D-9CE049090094";
shapes = (
{
ref = D;
},
{
closed = 0;
nodes = (
(-11,361,l),
(419,361,l)
);
}
);
width = 645;
}
);
metricRight = D;
unicode = 208;
},
{
glyphname = E;
kernLeft = H;
kernRight = E;
lastChange = "2024-06-17 14:29:44 +0000";
layers = (
{
anchors = (
{
name = bottom;
pos = (248,0);
},
{
name = ogonek;
pos = (473,10);
},
{
name = top;
pos = (248,650);
},
{
name = topleft;
pos = (-14,700);
}
);
layerId = "6F9C6BB4-2DCF-443B-A55D-9CE049090094";
shapes = (
{
attr = {
lineCapEnd = 1;
lineCapStart = 1;
};
closed = 0;
nodes = (
(399,0,l),
(93,0,l),
(108,731,l),
(402,731,l)
);
},
{
attr = {
lineCapEnd = 1;
lineCapStart = 1;
};
closed = 0;
nodes = (
(100,361,l),
(365,361,l)
);
}
);
width = 495;
}
);
unicode = 69;
},
{
glyphname = F;
kernLeft = H;
kernRight = F;
lastChange = "2024-06-17 14:29:44 +0000";
layers = (
{
layerId = "6F9C6BB4-2DCF-443B-A55D-9CE049090094";
shapes = (
{
attr = {
lineCapEnd = 1;
lineCapStart = 1;
};
closed = 0;
nodes = (
(93,0,l),
(108,731,l),
(402,731,l)
);
},
{
attr = {
lineCapEnd = 1;
lineCapStart = 1;
};
closed = 0;
nodes = (
(100,361,l),
(365,361,l)
);
}
);
width = 495;
}
);
unicode = 70;
},
{
glyphname = G;
kernLeft = O;
kernRight = B;
lastChange = "2024-06-17 14:29:44 +0000";
layers = (
{
background = {
shapes = (
{
closed = 0;
nodes = (
(476,361,l),
(325,361,l)
);
},
{
closed = 0;
nodes = (
(460,679,l),
(414,691,o),
(333,700,o),
(298,700,cs),
(130,700,o),
(84,562,o),
(84,326,cs),
(84,80,o),
(176,0,o),
(279,0,cs),
(378,0,o),
(476,154,o),
(476,270,cs)
);
}
);
};
layerId = "6F9C6BB4-2DCF-443B-A55D-9CE049090094";
shapes = (
{
attr = {
lineCapEnd = 1;
lineCapStart = 1;
};
closed = 0;
nodes = (
(511,709,l),
(449,724,o),
(396,731,o),
(350,731,cs),
(159,731,o),
(80,609,o),
(80,339,cs),
(80,144,o),
(157,0,o),
(301,0,cs),
(435,0,o),
(537,166,o),
(528,363,c),
(282,363,l)
);
}
);
width = 602;
}
);
unicode = 71;
},
{
glyphname = H;
kernLeft = H;
kernRight = H;
lastChange = "2024-06-17 14:29:44 +0000";
layers = (
{
background = {
shapes = (
{
closed = 0;
nodes = (
(5,320,l),
(535,320,l)
);
},
{
closed = 0;
nodes = (
(90,699,l),
(143,699,o),
(133,635,o),
(130,547,cs),
(109,-1,l)
);
},
{
closed = 0;
nodes = (
(749,230,l),
(687,83,o),
(593,0,o),
(558,0,cs),
(525,0,o),
(524,38,o),
(527,119,cs),
(549,700,l)
);
}
);
};
layerId = "6F9C6BB4-2DCF-443B-A55D-9CE049090094";
shapes = (
{
attr = {
lineCapEnd = 1;
lineCapStart = 1;
};
closed = 0;
nodes = (
(110,336,l),
(505,336,l)
);
},
{
attr = {
lineCapEnd = 1;
lineCapStart = 1;
};
closed = 0;
nodes = (
(107,731,l),
(94,0,l)
);
},
{
attr = {
lineCapEnd = 1;
lineCapStart = 1;
};
closed = 0;
nodes = (
(523,731,l),
(510,0,l)
);
}
);
width = 617;
}
);
unicode = 72;
},
{
glyphname = I;
kernLeft = I;
kernRight = I;
lastChange = "2024-06-17 14:29:44 +0000";
layers = (
{
anchors = (
{
name = bottom;
pos = (207,0);
},
{
name = ogonek;
pos = (403,10);
},
{
name = top;
pos = (207,650);
},
{
name = topleft;
pos = (-18,700);
}
);
background = {
shapes = (
{
closed = 0;
nodes = (
(104,170,l),
(79,69,o),
(118,0,o),
(200,0,cs),
(305,0,o),
(396,114,o),
(401,251,cs),
(417,700,l),
(149,700,l)
);
}
);
};
layerId = "6F9C6BB4-2DCF-443B-A55D-9CE049090094";
shapes = (
{
attr = {
lineCapEnd = 1;
lineCapStart = 1;
};
closed = 0;
nodes = (
(216,731,l),
(203,0,l)
);
},
{
attr = {
lineCapEnd = 1;
lineCapStart = 1;
};
closed = 0;
nodes = (
(111,731,l),
(319,731,l)
);
},
{
attr = {
lineCapEnd = 1;
lineCapStart = 1;
};
closed = 0;
nodes = (
(94,0,l),
(312,0,l)
);
}
);
width = 413;
}
);
unicode = 73;
},
{
glyphname = IJ;
kernLeft = I;
kernRight = J;
lastChange = "2024-06-17 14:29:45 +0000";
layers = (
{
background = {
shapes = (
{
pos = (-2,0);
ref = I;
}
);
};
layerId = "6F9C6BB4-2DCF-443B-A55D-9CE049090094";
shapes = (
{
attr = {
identifier = ID0x7fadab45f450;
lineCapEnd = 1;
lineCapStart = 1;
};
closed = 0;
nodes = (
(206,731,l),
(199,351,l)
);
},
{
attr = {
identifier = ID0x7fadab45f450;
lineCapEnd = 1;
lineCapStart = 1;
};
closed = 0;
nodes = (
(105,731,l),
(305,731,l)
);
},
{
attr = {
identifier = ID0x7fadab45f450;
lineCapEnd = 1;
lineCapStart = 1;
};
closed = 0;
nodes = (
(94,351,l),
(304,351,l)
);
},
{
pos = (150,0);
ref = J;
}
);
width = 629;
}
);
metricLeft = I;
metricRight = J;
unicode = 306;
},
{
glyphname = J;
kernLeft = J;
kernRight = J;
lastChange = "2024-06-17 14:29:44 +0000";
layers = (
{
anchors = (
{
name = bottom;
pos = (245,0);
},
{
name = top;
pos = (346,650);
}
);
background = {
shapes = (
{
closed = 0;
nodes = (
(381,151,l),
(368,88,o),
(119,-25,o),
(119,-244,cs),
(119,-305,o),
(141,-347,o),
(180,-347,cs),
(232,-347,o),
(235,-285,o),
(233,-104,cs),
(231,51,o),
(226,206,o),
(233,361,cs),
(249,700,l),
(249,700,o),
(213,228,o),
(72,128,c)
);
}
);
};
layerId = "6F9C6BB4-2DCF-443B-A55D-9CE049090094";
shapes = (
{
attr = {
lineCapEnd = 1;
lineCapStart = 1;
};
closed = 0;
nodes = (
(74,249,l),
(65,85,o),
(117,0,o),
(225,0,cs),
(317,0,o),
(379,83,o),
(381,220,cs),
(389,731,l)
);
}
);
width = 479;
}
);
unicode = 74;
},
{
glyphname = K;
kernLeft = H;
kernRight = K;
lastChange = "2024-06-17 14:29:44 +0000";
layers = (
{
background = {
shapes = (
{
closed = 0;
nodes = (
(394,0,l),
(100,0,l),
(114,700,l),
(397,700,l)
);
},
{
closed = 0;
nodes = (
(107,344,l),
(361,344,l)
);
}
);
};
layerId = "6F9C6BB4-2DCF-443B-A55D-9CE049090094";
shapes = (
{
attr = {
lineCapEnd = 1;
lineCapStart = 1;
};
closed = 0;
nodes = (
(444,731,l),
(114,362,l),
(485,0,l)
);
},
{
attr = {
lineCapEnd = 1;
lineCapStart = 1;
};
closed = 0;
nodes = (
(107,731,l),
(95,0,l)
);
}
);
width = 550;
}
);
unicode = 75;
},
{
glyphname = L;
kernLeft = H;
kernRight = L;
lastChange = "2024-06-17 14:29:44 +0000";
layers = (
{
background = {
shapes = (
{
closed = 0;
nodes = (
(14,700,l),
(395,700,l)
);
},
{
closed = 0;
nodes = (
(383,0,l),
(116,0,l),
(89,0,o),
(87,12,o),
(88,39,cs),
(114,700,l)
);
},
{
closed = 0;
nodes = (
(98,344,l),
(355,344,l)
);
}
);
};
layerId = "6F9C6BB4-2DCF-443B-A55D-9CE049090094";
shapes = (
{
attr = {
lineCapEnd = 1;
lineCapStart = 1;
};
closed = 0;
nodes = (
(399,0,l),
(93,0,l),
(108,731,l)
);
}
);
width = 492;
}
);
unicode = 76;
},
{
glyphname = M;
kernLeft = H;
kernRight = H;
lastChange = "2024-06-17 14:29:44 +0000";
layers = (
{
background = {
shapes = (
{
closed = 0;
nodes = (
(308,700,l),
(102,113,ls),
(73,30,o),
(40,1,o),
(-29,1,c)
);
},
{
closed = 0;
nodes = (
(793,686,l),
(658,268,o),
(508,103,o),
(442,54,c),
(387,142,o),
(324,329,o),
(308,686,c)
);
},
{
closed = 0;
nodes = (
(991,230,l),
(929,83,o),
(835,0,o),
(800,0,cs),
(743,0,o),
(767,189,o),
(793,700,c)
);
}
);
};
layerId = "6F9C6BB4-2DCF-443B-A55D-9CE049090094";
shapes = (
{
attr = {
lineCapEnd = 1;
lineCapStart = 1;
};
closed = 0;
nodes = (
(77,-1,l),
(129,731,l),
(130,731,l),
(443,85,l),
(444,85,l),
(778,731,l),
(779,731,l),
(810,0,l)
);
}
);
width = 895;
}
);
unicode = 77;
},
{
glyphname = N;
kernLeft = H;
kernRight = H;
lastChange = "2024-06-17 14:29:44 +0000";
layers = (
{
anchors = (
{
name = bottom;
pos = (316,0);
},
{
name = top;
pos = (316,650);
}
);
background = {
shapes = (
{
closed = 0;
nodes = (
(533,700,l),
(509,0,l),
(118,699,l),
(97,112,ls),
(94,29,o),
(70,0,o),
(1,0,c)
);
}
);
};
layerId = "6F9C6BB4-2DCF-443B-A55D-9CE049090094";
shapes = (
{
attr = {
lineCapEnd = 1;
lineCapStart = 1;
};
closed = 0;
nodes = (
(537,731,l),
(524,0,l),
(523,0,l),
(109,730,l),
(108,730,l),
(93,2,l)
);
}
);
width = 631;
}
);
unicode = 78;
},
{
glyphname = O;
kernLeft = O;
kernRight = O;
lastChange = "2024-06-17 14:29:44 +0000";
layers = (
{
anchors = (
{
name = bottom;
pos = (356,0);
},
{
name = center;
pos = (356,350);
},
{
name = ogonek;
pos = (651,10);
},
{
name = top;
pos = (376,650);
},
{
name = topleft;
pos = (6,700);
},
{
name = topright;
pos = (705,700);
}
);
background = {
shapes = (
{
closed = 0;
nodes = (
(190,170,l),
(149,170,o),
(106,203,o),
(100,265,cs),
(83,463,o),
(185,700,o),
(383,700,cs),
(532,700,o),
(610,578,o),
(622,435,cs),
(639,237,o),
(532,0,o),
(328,0,cs),
(250,0,o),
(188,30,o),
(149,77,c)
);
}
);
};
layerId = "6F9C6BB4-2DCF-443B-A55D-9CE049090094";
shapes = (
{
attr = {
lineCapEnd = 1;
lineCapStart = 1;
};
closed = 0;
nodes = (
(379,731,l),
(542,731,o),
(633,590,o),
(636,412,cs),
(640,214,o),
(533,0,o),
(334,0,cs),
(171,0,o),
(80,141,o),
(77,319,cs),
(73,517,o),
(180,731,o),
(379,731,c)
);
}
);
width = 713;
}
);
unicode = 79;
},
{
glyphname = Oslash;
kernLeft = O;
kernRight = O;
lastChange = "2024-06-17 14:29:45 +0000";
layers = (
{
layerId = "6F9C6BB4-2DCF-443B-A55D-9CE049090094";
shapes = (
{
pos = (29,0);
ref = O;
},
{
attr = {
identifier = ID0x7fadb183f0a0;
lineCapEnd = "1";
lineCapStart = "1";
};
closed = 0;
nodes = (
(666,700,l),
(66,0,l)
);
}
);
width = 745;
}
);
unicode = 216;
},
{
glyphname = OE;
kernLeft = O;
kernRight = E;
lastChange = "2024-06-17 14:29:45 +0000";
layers = (
{
anchors = (
{
name = bottom;
pos = (408,0);
},
{
name = center;
pos = (408,350);
},
{
name = ogonek;
pos = (703,10);
},
{
name = top;
pos = (408,650);
},
{
name = topleft;
pos = (58,700);
},
{
name = topright;
pos = (757,700);
}
);
background = {
shapes = (
{
attr = {
identifier = ID0x7fadae80b090;
lineCapEnd = 1;
lineCapStart = 1;
};
closed = 0;
nodes = (
(789,0,l),
(495,0,l),
(509,700,l),
(792,700,l)
);
},
{
attr = {
identifier = ID0x7fadae80b090;
lineCapEnd = 1;
lineCapStart = 1;
};
closed = 0;
nodes = (
(502,344,l),
(756,344,l)
);
},
{
attr = {
identifier = ID0x7fe542542670;
lineCapEnd = 1;
lineCapStart = 1;
};
closed = 1;
nodes = (
(536,700,o),
(623,565,o),
(626,394,cs),
(630,205,o),
(527,0,o),
(337,0,cs),
(181,0,o),
(94,135,o),
(91,306,cs),
(87,495,o),
(190,700,o),
(380,700,cs)
);
}
);
};
layerId = "6F9C6BB4-2DCF-443B-A55D-9CE049090094";
shapes = (
{
attr = {
identifier = ID0x7fe542542670;
lineCapEnd = 1;
lineCapStart = 1;
};
closed = 0;
nodes = (
(499,62,l),
(455,24,o),
(398,0,o),
(333,0,cs),
(171,0,o),
(81,140,o),
(77,318,cs),
(73,518,o),
(180,731,o),
(378,731,cs),
(430,731,o),
(475,716,o),
(512,690,c)
);
},
{
attr = {
identifier = ID0x7fadae80b090;
lineCapEnd = "1";
lineCapStart = "1";
};
closed = 0;
nodes = (
(803,0,l),
(497,0,l),
(512,731,l),
(806,731,l)
);
},
{
attr = {
identifier = ID0x7fadae80b090;
lineCapEnd = "1";
lineCapStart = "1";
};
closed = 0;
nodes = (
(505,361,l),
(769,361,l)
);
}
);
width = 899;
}
);
unicode = 338;
},
{
glyphname = P;
kernLeft = H;
kernRight = F;
lastChange = "2024-06-17 14:29:45 +0000";
layers = (
{
background = {
shapes = (
{
pos = (33,0);
ref = B;
}
);
};
layerId = "6F9C6BB4-2DCF-443B-A55D-9CE049090094";
shapes = (
{
attr = {
lineCapEnd = 1;
lineCapStart = 1;
};
closed = 0;
nodes = (
(93,-1,l),
(109,731,l),
(282,731,ls),
(400,731,o),
(461,675,o),
(461,568,cs),
(461,421,o),
(327,319,o),
(104,319,c)
);
}
);
width = 533;
}
);
unicode = 80;
},
{
glyphname = Thorn;
kernLeft = H;
kernRight = Thorn;
lastChange = "2024-06-17 14:29:45 +0000";
layers = (
{
layerId = "6F9C6BB4-2DCF-443B-A55D-9CE049090094";
shapes = (
{
attr = {
identifier = ID0x7fadab497160;
lineCapEnd = 1;
lineCapStart = 1;
};
closed = 0;
nodes = (
(93,-1,l),
(109,731,l)
);
},
{
attr = {
identifier = ID0x7fadab497160;
lineCapEnd = 1;
lineCapStart = 1;
};
closed = 0;
nodes = (
(109,582,l),
(282,582,ls),
(400,582,o),
(461,526,o),
(461,419,cs),
(461,273,o),
(327,171,o),
(104,171,c)
);
}
);
width = 533;
}
);
unicode = 222;
},
{
glyphname = Q;
kernLeft = O;
kernRight = Q;
lastChange = "2024-06-17 14:29:45 +0000";
layers = (
{
background = {
shapes = (
{
closed = 0;
nodes = (
(528,500,l),
(594,500,o),
(624,449,o),
(624,383,cs),
(624,226,o),
(520,0,o),
(345,0,cs),
(189,0,o),
(104,135,o),
(104,306,cs),
(104,495,o),
(210,700,o),
(400,700,cs),
(478,700,o),
(540,670,o),
(579,623,cs)
);
}
);
};
layerId = "6F9C6BB4-2DCF-443B-A55D-9CE049090094";
shapes = (
{
attr = {
lineCapEnd = 1;
lineCapStart = 1;
};
closed = 0;
nodes = (
(389,183,l),
(641,-58,l)
);
},
{
pos = (-1,0);
ref = O;
}
);
width = 715;
}
);
unicode = 81;
},
{
glyphname = R;
kernLeft = H;
kernRight = R;
lastChange = "2024-06-17 14:29:45 +0000";
layers = (
{
background = {
shapes = (
{
pos = (33,0);
ref = B;
}
);
};
layerId = "6F9C6BB4-2DCF-443B-A55D-9CE049090094";
shapes = (
{
attr = {
lineCapEnd = 1;
lineCapStart = 1;
};
closed = 0;
nodes = (
(93,0,l),
(108,731,l),
(287,731,ls),
(391,731,o),
(462,690,o),
(462,595,cs),
(462,448,o),
(343,355,o),
(105,355,c)
);
},
{
attr = {
lineCapEnd = 1;
lineCapStart = 1;
};
closed = 0;
nodes = (
(112,355,l),
(481,0,l)
);
}
);
width = 549;
}
);
unicode = 82;
},
{
glyphname = S;
kernLeft = S;
kernRight = B;
lastChange = "2024-06-17 14:29:45 +0000";
layers = (
{
background = {
shapes = (
{
attr = {
lineCapEnd = 1;
lineCapStart = 1;
};
closed = 0;
nodes = (
(76,31,l),
(103,12,o),
(151,0,o),
(202,0,cs),
(305,0,o),
(422,49,o),
(419,188,cs),
(417,274,o),
(336,321,o),
(254,367,cs),
(176,411,o),
(93,464,o),
(93,556,cs),
(93,648,o),
(180,699,o),
(272,699,cs),
(315,699,o),
(359,688,o),
(396,664,cs)
);
}
);
};
hints = (
{
horizontal = 1;
origin = (0,0);
settings = {
deltaV = {
"{100, 100, 0, 0, 0, 0}" = {
"62" = 0;
};
};
};
type = TTDelta;
},
{
horizontal = 1;
origin = (0,0);
settings = {
deltaV = {
"{100, 100, 0, 0, 0, 0}" = {
"62" = 0;
};
};
};
type = TTDelta;
},
{
horizontal = 1;
origin = (0,0);
settings = {
deltaV = {
"{100, 100, 0, 0, 0, 0}" = {
"62" = 0;
};
};
};
type = TTDelta;
},
{
horizontal = 1;
origin = (0,3);
settings = {
deltaV = {
"{100, 100, 0, 0, 0, 0}" = {
"62" = 0;
};
};
};
type = TTDelta;
},
{
horizontal = 1;
origin = (0,6);
settings = {
deltaV = {
"{100, 100, 0, 0, 0, 0}" = {
"62" = 0;
};
};
};
type = TTDelta;
},
{
horizontal = 1;
origin = (0,6);
settings = {
deltaV = {
"{100, 100, 0, 0, 0, 0}" = {
"62" = 0;
};
};
};
type = TTDelta;
},
{
horizontal = 1;
origin = (0,6);
settings = {
deltaV = {
"{100, 100, 0, 0, 0, 0}" = {
"62" = 0;
};
};
};
type = TTDelta;
},
{
horizontal = 1;
origin = (0,9);
settings = {
deltaV = {
"{100, 100, 0, 0, 0, 0}" = {
"62" = 0;
};
};
};
type = TTDelta;
},
{
horizontal = 1;
origin = (0,9);
settings = {
deltaV = {
"{100, 100, 0, 0, 0, 0}" = {
"62" = 0;
};
};
};
type = TTDelta;
},
{
horizontal = 1;
origin = (0,9);
settings = {
deltaV = {
"{100, 100, 0, 0, 0, 0}" = {
"62" = 0;
};
};
};
type = TTDelta;
},
{
horizontal = 1;
origin = (0,9);
settings = {
deltaV = {
"{100, 100, 0, 0, 0, 0}" = {
"62" = 0;
};
};
};
type = TTDelta;
},
{
horizontal = 1;
origin = (0,9);
settings = {
deltaV = {
"{100, 100, 0, 0, 0, 0}" = {
"62" = 0;
};
};
};
type = TTDelta;
},
{
horizontal = 1;
origin = (0,9);
settings = {
deltaV = {
"{100, 100, 0, 0, 0, 0}" = {
"62" = 0;
};
};
};
type = TTDelta;
}
);
layerId = "6F9C6BB4-2DCF-443B-A55D-9CE049090094";
shapes = (
{
attr = {
lineCapEnd = 1;
lineCapStart = 1;
};
closed = 0;
nodes = (
(69,33,l),
(164,-27,o),
(431,-20,o),
(427,198,cs),
(423,381,o),
(87,385,o),
(87,581,cs),
(87,725,o),
(285,771,o),
(403,694,cs)
);
}
);
width = 499;
}
);
unicode = 83;
},
{
glyphname = Germandbls;
kernLeft = H;
kernRight = S;
lastChange = "2024-06-17 14:29:45 +0000";
layers = (
{
hints = (
{
horizontal = 1;
settings = {
deltaV = {
"{100, 100, 0, 0, 0, 0}" = {
"62" = 0;
};
};
};
type = TTDelta;
},
{
horizontal = 1;
settings = {
deltaV = {
"{100, 100, 0, 0, 0, 0}" = {
"62" = 0;
};
};
};
type = TTDelta;
},
{
horizontal = 1;
settings = {
deltaV = {
"{100, 100, 0, 0, 0, 0}" = {
"62" = 0;
};
};
};
type = TTDelta;
},
{
horizontal = 1;
settings = {
deltaV = {
"{100, 100, 0, 0, 0, 0}" = {
"62" = 0;
};
};
};
type = TTDelta;
},
{
horizontal = 1;
settings = {
deltaV = {
"{100, 100, 0, 0, 0, 0}" = {
"62" = 0;
};
};
};
type = TTDelta;
},
{
horizontal = 1;
settings = {
deltaV = {
"{100, 100, 0, 0, 0, 0}" = {
"62" = 0;
};
};
};
type = TTDelta;
},
{
horizontal = 1;
settings = {
deltaV = {
"{100, 100, 0, 0, 0, 0}" = {
"62" = 0;
};
};
};
type = TTDelta;
},
{
horizontal = 1;
settings = {
deltaV = {
"{100, 100, 0, 0, 0, 0}" = {
"62" = 0;
};
};
};
type = TTDelta;
},
{
horizontal = 1;
settings = {
deltaV = {
"{100, 100, 0, 0, 0, 0}" = {
"62" = 0;
};
};
};
type = TTDelta;
},
{
horizontal = 1;
settings = {
deltaV = {
"{100, 100, 0, 0, 0, 0}" = {
"62" = 0;
};
};
};
type = TTDelta;
},
{
horizontal = 1;
settings = {
deltaV = {
"{100, 100, 0, 0, 0, 0}" = {
"62" = 0;
};
};
};
type = TTDelta;
},
{
horizontal = 1;
settings = {
deltaV = {
"{100, 100, 0, 0, 0, 0}" = {
"62" = 0;
};
};
};
type = TTDelta;
},
{
horizontal = 1;
settings = {
deltaV = {
"{100, 100, 0, 0, 0, 0}" = {
"62" = 0;
};
};
};
type = TTDelta;
}
);
layerId = "6F9C6BB4-2DCF-443B-A55D-9CE049090094";
shapes = (
{
attr = {
identifier = ID0x7fadb0841000;
lineCapEnd = "1";
lineCapStart = "1";
};
closed = 0;
nodes = (
(261,27,l),
(339,-22,o),
(553,-19,o),
(553,171,cs),
(553,321,o),
(275,324,o),
(275,484,cs),
(275,601,o),
(397,653,o),
(531,731,c),
(108,731,l),
(94,1,l)
);
}
);
width = 624;
}
);
unicode = 7838;
},
{
glyphname = T;
kernLeft = T;
kernRight = T;
lastChange = "2024-06-17 14:33:45 +0000";
layers = (
{
background = {
shapes = (
{
closed = 0;
nodes = (
(171,634,l),
(151,692,o),
(199,709,o),
(240,709,cs),
(352,709,o),
(486,690,o),
(580,690,cs),
(621,690,o),
(669,707,o),
(649,765,c)
);
},
{
closed = 0;
nodes = (
(445,700,l),
(420,0,l)
);
}
);
};
layerId = "6F9C6BB4-2DCF-443B-A55D-9CE049090094";
shapes = (
{
attr = {
lineCapEnd = 1;
lineCapStart = 1;
};
closed = 0;
nodes = (
(385,730,l),
(372,0,l)
);
},
{
attr = {
lineCapEnd = 1;
lineCapStart = 1;
};
closed = 0;
nodes = (
(94,731,l),
(656,730,l)
);
}
);
width = 750;
}
);
unicode = 84;
},
{
glyphname = U;
kernLeft = U;
kernRight = U;
lastChange = "2024-06-17 14:29:45 +0000";
layers = (
{
anchors = (
{
name = bottom;
pos = (312,0);
},
{
name = ogonek;
pos = (582,10);
},
{
name = top;
pos = (312,650);
},
{
name = topright;
pos = (630,700);
}
);
layerId = "6F9C6BB4-2DCF-443B-A55D-9CE049090094";
shapes = (
{
attr = {
lineCapEnd = 1;
lineCapStart = 1;
};
closed = 0;
nodes = (
(101,731,l),
(91,229,ls),
(88,93,o),
(164,0,o),
(296,0,cs),
(425,0,o),
(522,90,o),
(525,229,cs),
(537,731,l)
);
}
);
width = 624;
}
);
unicode = 85;
},
{
glyphname = V;
kernLeft = V;
kernRight = V;
lastChange = "2024-06-17 14:33:57 +0000";
layers = (
{
background = {
shapes = (
{
pos = (-8,0);
ref = U;
}
);
};
layerId = "6F9C6BB4-2DCF-443B-A55D-9CE049090094";
shapes = (
{
attr = {
lineCapEnd = 1;
lineCapStart = 1;
};
closed = 0;
nodes = (
(67,731,l),
(306,1,l),
(307,1,l),
(568,731,ls)
);
}
);
width = 635;
}
);
unicode = 86;
},
{
glyphname = W;
kernLeft = V;
kernRight = V;
lastChange = "2024-06-17 14:29:45 +0000";
layers = (
{
anchors = (
{
name = bottom;
pos = (551,0);
},
{
name = top;
pos = (551,650);
}
);
background = {
shapes = (
{
attr = {
lineCapEnd = "1";
lineCapStart = "1";
};
closed = 0;
nodes = (
(86,700,l),
(316,0,l),
(86,700,l)
);
}
);
};
layerId = "6F9C6BB4-2DCF-443B-A55D-9CE049090094";
shapes = (
{
attr = {
lineCapEnd = "1";
lineCapStart = "1";
};
closed = 0;
nodes = (
(1035,731,ls),
(775,0,l),
(551,731,l),
(307,0,l),
(67,731,l)
);
}
);
width = 1102;
}
);
unicode = 87;
},
{
glyphname = X;
kernLeft = X;
kernRight = X;
lastChange = "2024-06-17 14:29:45 +0000";
layers = (
{
background = {
shapes = (
{
closed = 0;
nodes = (
(6,320,l),
(523,320,l)
);
},
{
closed = 0;
nodes = (
(737,230,l),
(675,83,o),
(581,0,o),
(546,0,cs),
(513,0,o),
(512,38,o),
(515,119,cs),
(537,700,l)
);
},
{
pos = (-28,0);
ref = baston.caps;
}
);
};
layerId = "6F9C6BB4-2DCF-443B-A55D-9CE049090094";
shapes = (
{
attr = {
lineCapEnd = 1;
lineCapStart = 1;
};
closed = 0;
nodes = (
(66,0,l),
(567,731,l)
);
},
{
attr = {
lineCapEnd = 1;
lineCapStart = 1;
};
closed = 0;
nodes = (
(551,0,l),
(87,731,l)
);
}
);
width = 633;
}
);
unicode = 88;
},
{
glyphname = Y;
kernLeft = Y;
kernRight = Y;
lastChange = "2024-06-17 14:29:45 +0000";
layers = (
{
anchors = (
{
name = bottom;
pos = (308,0);
},
{
name = top;
pos = (308,650);
},
{
name = topleft;
pos = (55,700);
}
);
layerId = "6F9C6BB4-2DCF-443B-A55D-9CE049090094";
shapes = (
{
attr = {
lineCapEnd = 1;
lineCapStart = 1;
};
closed = 0;
nodes = (
(550,731,l),
(290,312,l)
);
},
{
attr = {
lineCapEnd = 1;
lineCapStart = 1;
};
closed = 0;
nodes = (
(66,731,l),
(290,312,l),
(285,0,l)
);
}
);
width = 616;
}
);
unicode = 89;
},
{
glyphname = Z;
kernLeft = Z;
kernRight = Z;
lastChange = "2024-06-17 14:29:45 +0000";
layers = (
{
background = {
shapes = (
{
closed = 0;
nodes = (
(685,230,l),
(623,83,o),
(530,-4,o),
(494,-4,cs),
(448,-4,o),
(383,6,o),
(309,6,cs),
(236,6,o),
(166,6,o),
(87,0,c)
);
},
{
closed = 0;
nodes = (
(655,740,l),
(57,-40,l)
);
},
{
closed = 0;
nodes = (
(154,700,l),
(257,686,o),
(459,688,o),
(625,700,c)
);
}
);
};
layerId = "6F9C6BB4-2DCF-443B-A55D-9CE049090094";
shapes = (
{
attr = {
lineCapEnd = 1;
lineCapStart = 1;
};
closed = 0;
nodes = (
(544,725,l),
(66,4,l)
);
},
{
attr = {
lineCapEnd = 1;
lineCapStart = 1;
};
closed = 0;
nodes = (
(76,730,l),
(544,730,l)
);
},
{
attr = {
lineCapEnd = 1;
lineCapStart = 1;
};
closed = 0;
nodes = (
(66,0,l),
(534,0,l)
);
}
);
width = 610;
}
);
unicode = 90;
},
{
glyphname = Saltillo;
lastChange = "2024-06-17 14:29:45 +0000";
layers = (
{
anchors = (
{
name = top;
pos = (122,684);
}
);
layerId = "6F9C6BB4-2DCF-443B-A55D-9CE049090094";
shapes = (
{
attr = {
identifier = ID0x7fb66282a110;
lineCapEnd = 1;
lineCapStart = 1;
};
closed = 0;
nodes = (
(67,321,l),
(182,479,o),
(178,628,o),
(137,697,c)
);
}
);
width = 246;
}
);
unicode = 42891;
},
{
export = 0;
glyphname = A.ss01;
lastChange = "2024-05-27 08:27:03 +0000";
layers = (
{
layerId = "6F9C6BB4-2DCF-443B-A55D-9CE049090094";
shapes = (
{
closed = 0;
nodes = (
(639,700,l),
(613,189,o),
(592,0,o),
(649,0,cs),
(684,0,o),
(778,83,o),
(840,230,c)
);
},
{
closed = 0;
nodes = (
(213,228,l),
(619,228,l)
);
},
{
closed = 0;
nodes = (
(639,700,l),
(238,113,ls),
(182,30,o),
(139,1,o),
(70,1,c)
);
}
);
width = 835;
}
);
},
{
export = 0;
glyphname = B.ss01;
lastChange = "2024-05-27 08:27:03 +0000";
layers = (
{
layerId = "6F9C6BB4-2DCF-443B-A55D-9CE049090094";
shapes = (
{
closed = 0;
nodes = (
(91,700,l),
(348,700,l),
(397,700,o),
(489,696,o),
(489,571,cs),
(489,416,o),
(316,360,o),
(251,360,c)
);
},
{
closed = 0;
nodes = (
(265,360,l),
(428,385,o),
(509,351,o),
(509,220,cs),
(509,51,o),
(347,0,o),
(193,0,cs),
(166,0,o),
(164,12,o),
(165,39,cs),
(191,700,l)
);
}
);
width = 588;
}
);
},
{
export = 0;
glyphname = C.ss01;
lastChange = "2024-05-27 08:27:03 +0000";
layers = (
{
layerId = "6F9C6BB4-2DCF-443B-A55D-9CE049090094";
shapes = (
{
closed = 0;
nodes = (
(453,681,l),
(406,694,o),
(344,700,o),
(286,700,cs),
(148,700,o),
(73,415,o),
(84,213,cs),
(91,84,o),
(148,0,o),
(230,0,cs),
(318,0,o),
(438,105,o),
(514,230,c)
);
}
);
width = 509;
}
);
},
{
export = 0;
glyphname = D.ss01;
lastChange = "2024-05-27 08:27:03 +0000";
layers = (
{
layerId = "6F9C6BB4-2DCF-443B-A55D-9CE049090094";
shapes = (
{
closed = 0;
nodes = (
(91,700,l),
(348,700,l),
(547,700,o),
(635,578,o),
(635,435,cs),
(635,237,o),
(465,0,o),
(193,0,cs),
(166,0,o),
(164,12,o),
(165,39,cs),
(191,700,l)
);
}
);
width = 714;
}
);
},
{
export = 0;
glyphname = E.ss01;
lastChange = "2024-05-27 08:27:03 +0000";
layers = (
{
layerId = "6F9C6BB4-2DCF-443B-A55D-9CE049090094";
shapes = (
{
closed = 0;
nodes = (
(91,700,l),
(472,700,l)
);
},
{
closed = 0;
nodes = (
(460,0,l),
(193,0,l),
(166,0,o),
(164,12,o),
(165,39,cs),
(191,700,l)
);
},
{
closed = 0;
nodes = (
(175,344,l),
(432,344,l)
);
}
);
width = 562;
}
);
},
{
export = 0;
glyphname = F.ss01;
lastChange = "2024-05-27 08:27:03 +0000";
layers = (
{
layerId = "6F9C6BB4-2DCF-443B-A55D-9CE049090094";
shapes = (
{
closed = 0;
nodes = (
(91,700,l),
(472,700,l)
);
},
{
closed = 0;
nodes = (
(175,334,l),
(432,334,l)
);
},
{
closed = 0;
nodes = (
(191,701,l),
(165,0,l)
);
}
);
width = 563;
}
);
},
{
export = 0;
glyphname = G.ss01;
lastChange = "2024-05-27 08:27:03 +0000";
layers = (
{
layerId = "6F9C6BB4-2DCF-443B-A55D-9CE049090094";
shapes = (
{
closed = 0;
nodes = (
(454,681,l),
(407,694,o),
(345,700,o),
(287,700,cs),
(149,700,o),
(74,415,o),
(85,213,cs),
(91,84,o),
(138,0,o),
(205,0,cs),
(278,0,o),
(387,116,o),
(450,270,c)
);
},
{
closed = 0;
nodes = (
(598,151,l),
(585,88,o),
(336,-25,o),
(336,-244,cs),
(336,-305,o),
(358,-347,o),
(397,-347,cs),
(449,-347,o),
(450,-285,o),
(450,-104,cs),
(450,361,l),
(299,361,l)
);
}
);
width = 636;
}
);
},
{
export = 0;
glyphname = H.ss01;
lastChange = "2024-05-27 08:27:03 +0000";
layers = (
{
layerId = "6F9C6BB4-2DCF-443B-A55D-9CE049090094";
shapes = (
{
closed = 0;
nodes = (
(83,320,l),
(600,320,l)
);
},
{
closed = 0;
nodes = (
(814,230,l),
(752,83,o),
(658,0,o),
(623,0,cs),
(590,0,o),
(589,38,o),
(592,119,cs),
(614,700,l)
);
},
{
closed = 0;
nodes = (
(99,700,l),
(193,700,o),
(199,699,o),
(195,588,cs),
(174,0,l)
);
}
);
width = 809;
}
);
},
{
export = 0;
glyphname = I.ss01;
lastChange = "2024-05-27 08:27:03 +0000";
layers = (
{
layerId = "6F9C6BB4-2DCF-443B-A55D-9CE049090094";
shapes = (
{
closed = 0;
nodes = (
(82,170,l),
(57,69,o),
(96,0,o),
(178,0,cs),
(283,0,o),
(374,114,o),
(379,251,cs),
(395,700,l),
(301,688,o),
(187,686,o),
(129,700,c)
);
}
);
width = 483;
}
);
},
{
export = 0;
glyphname = J.ss01;
lastChange = "2024-05-27 08:27:03 +0000";
layers = (
{
anchors = (
{
name = bottom;
pos = (184,0);
},
{
name = top;
pos = (148,650);
}
);
layerId = "6F9C6BB4-2DCF-443B-A55D-9CE049090094";
shapes = (
{
closed = 0;
nodes = (
(180,251,l),
(196,700,l),
(119,688,o),
(26,686,o),
(-22,700,c)
);
},
{
closed = 0;
nodes = (
(184,360,l),
(163,-240,ls),
(161,-299,o),
(147,-324,o),
(117,-324,cs),
(84,-324,o),
(57,-294,o),
(57,-244,cs),
(57,-166,o),
(121,-99,o),
(221,20,cs),
(280,90,o),
(344,167,o),
(372,230,c)
);
}
);
width = 367;
}
);
},
{
export = 0;
glyphname = K.ss01;
lastChange = "2024-05-27 08:27:03 +0000";
layers = (
{
layerId = "6F9C6BB4-2DCF-443B-A55D-9CE049090094";
shapes = (
{
closed = 0;
nodes = (
(534,700,l),
(217,358,l),
(430,95,ls),
(464,53,o),
(521,0,o),
(573,0,cs)
);
},
{
closed = 0;
nodes = (
(101,700,l),
(195,700,o),
(201,699,o),
(197,588,cs),
(176,0,l)
);
}
);
width = 600;
}
);
},
{
export = 0;
glyphname = L.ss01;
lastChange = "2024-05-27 08:27:03 +0000";
layers = (
{
layerId = "6F9C6BB4-2DCF-443B-A55D-9CE049090094";
shapes = (
{
closed = 0;
nodes = (
(60,-39,l),
(236,534,ls),
(266,631,o),
(323,700,o),
(392,700,cs),
(456,700,o),
(490,660,o),
(490,610,cs),
(490,501,o),
(344,411,o),
(224,411,cs),
(144,411,o),
(57,449,o),
(-14,562,c)
);
},
{
closed = 0;
nodes = (
(573,230,l),
(511,83,o),
(418,0,o),
(382,0,cs),
(297,0,o),
(212,14,o),
(127,14,cs),
(106,14,o),
(90,11,o),
(72,1,c)
);
}
);
width = 568;
}
);
},
{
export = 0;
glyphname = M.ss01;
lastChange = "2024-05-27 08:27:03 +0000";
layers = (
{
layerId = "6F9C6BB4-2DCF-443B-A55D-9CE049090094";
shapes = (
{
closed = 0;
nodes = (
(406,700,l),
(201,113,ls),
(172,30,o),
(139,1,o),
(70,1,c)
);
},
{
closed = 0;
nodes = (
(892,700,l),
(757,282,o),
(580,132,o),
(514,83,c),
(459,171,o),
(423,343,o),
(407,700,c)
);
},
{
closed = 0;
nodes = (
(1090,230,l),
(1028,83,o),
(934,0,o),
(899,0,cs),
(842,0,o),
(867,189,o),
(893,700,c)
);
}
);
width = 1085;
}
);
},
{
export = 0;
glyphname = N.ss01;
lastChange = "2024-05-27 08:27:03 +0000";
layers = (
{
layerId = "6F9C6BB4-2DCF-443B-A55D-9CE049090094";
shapes = (
{
closed = 0;
nodes = (
(614,700,l),
(565,0,l)
);
},
{
closed = 0;
nodes = (
(199,700,l),
(157,112,ls),
(151,29,o),
(126,0,o),
(57,0,c)
);
},
{
closed = 0;
nodes = (
(566,6,l),
(531,90,o),
(229,601,o),
(200,700,c)
);
}
);
width = 694;
}
);
},
{
export = 0;
glyphname = O.ss01;
lastChange = "2024-05-27 08:27:03 +0000";
layers = (
{
layerId = "6F9C6BB4-2DCF-443B-A55D-9CE049090094";
shapes = (
{
closed = 0;
nodes = (
(175,170,l),
(109,170,o),
(79,234,o),
(79,317,cs),
(79,474,o),
(183,700,o),
(358,700,cs),
(514,700,o),
(599,565,o),
(599,394,cs),
(599,205,o),
(493,0,o),
(303,0,cs),
(225,0,o),
(163,30,o),
(124,77,c)
);
}
);
width = 680;
}
);
},
{
export = 0;
glyphname = P.ss01;
lastChange = "2024-05-27 08:27:03 +0000";
layers = (
{
layerId = "6F9C6BB4-2DCF-443B-A55D-9CE049090094";
shapes = (
{
closed = 0;
nodes = (
(91,700,l),
(373,700,l),
(433,700,o),
(545,695,o),
(545,543,cs),
(545,354,o),
(335,286,o),
(255,286,c)
);
},
{
closed = 0;
nodes = (
(272,286,l)
);
},
{
closed = 0;
nodes = (
(191,-1,l),
(217,700,l)
);
}
);
width = 622;
}
);
},
{
export = 0;
glyphname = Q.ss01;
lastChange = "2024-05-27 08:27:03 +0000";
layers = (
{
layerId = "6F9C6BB4-2DCF-443B-A55D-9CE049090094";
shapes = (
{
closed = 0;
nodes = (
(102,200,l),
(84,216,o),
(79,251,o),
(79,317,cs),
(79,474,o),
(183,700,o),
(358,700,cs),
(514,700,o),
(599,565,o),
(599,394,cs),
(599,205,o),
(493,0,o),
(303,0,cs),
(225,0,o),
(143,64,o),
(143,100,cs),
(143,121,o),
(184,140,o),
(245,140,cs),
(353,140,o),
(525,79,o),
(641,-146,c)
);
}
);
width = 682;
}
);
},
{
export = 0;
glyphname = R.ss01;
lastChange = "2024-05-27 08:27:03 +0000";
layers = (
{
layerId = "6F9C6BB4-2DCF-443B-A55D-9CE049090094";
shapes = (
{
closed = 0;
nodes = (
(91,700,l),
(368,700,l),
(421,700,o),
(520,696,o),
(520,561,cs),
(520,394,o),
(363,292,o),
(265,338,c)
);
},
{
closed = 0;
nodes = (
(165,0,l),
(191,700,l)
);
},
{
closed = 0;
nodes = (
(232,378,l),
(444,95,ls),
(475,53,o),
(527,0,o),
(579,0,cs)
);
}
);
width = 650;
}
);
},
{
export = 0;
glyphname = S.ss01;
lastChange = "2024-05-27 08:27:03 +0000";
layers = (
{
hints = (
{
horizontal = 1;
origin = (0,12);
settings = {
deltaV = {
"{100, 100, 0, 0, 0, 0}" = {
"62" = 0;
};
};
};
type = TTDelta;
},
{
horizontal = 1;
origin = (0,11);
settings = {
deltaV = {
"{100, 100, 0, 0, 0, 0}" = {
"62" = 0;
};
};
};
type = TTDelta;
},
{
horizontal = 1;
origin = (0,10);
settings = {
deltaV = {
"{100, 100, 0, 0, 0, 0}" = {
"62" = 0;
};
};
};
type = TTDelta;
},
{
horizontal = 1;
origin = (0,9);
settings = {
deltaV = {
"{100, 100, 0, 0, 0, 0}" = {
"62" = 0;
};
};
};
type = TTDelta;
},
{
horizontal = 1;
origin = (0,8);
settings = {
deltaV = {
"{100, 100, 0, 0, 0, 0}" = {
"62" = 0;
};
};
};
type = TTDelta;
},
{
horizontal = 1;
origin = (0,7);
settings = {
deltaV = {
"{100, 100, 0, 0, 0, 0}" = {
"62" = 0;
};
};
};
type = TTDelta;
},
{
horizontal = 1;
origin = (0,6);
settings = {
deltaV = {
"{100, 100, 0, 0, 0, 0}" = {
"62" = 0;
};
};
};
type = TTDelta;
},
{
horizontal = 1;
origin = (0,5);
settings = {
deltaV = {
"{100, 100, 0, 0, 0, 0}" = {
"62" = 0;
};
};
};
type = TTDelta;
},
{
horizontal = 1;
origin = (0,4);
settings = {
deltaV = {
"{100, 100, 0, 0, 0, 0}" = {
"62" = 0;
};
};
};
type = TTDelta;
},
{
horizontal = 1;
origin = (0,3);
settings = {
deltaV = {
"{100, 100, 0, 0, 0, 0}" = {
"62" = 0;
};
};
};
type = TTDelta;
},
{
horizontal = 1;
origin = (0,2);
settings = {
deltaV = {
"{100, 100, 0, 0, 0, 0}" = {
"62" = 0;
};
};
};
type = TTDelta;
},
{
horizontal = 1;
origin = (0,1);
settings = {
deltaV = {
"{100, 100, 0, 0, 0, 0}" = {
"62" = 0;
};
};
};
type = TTDelta;
},
{
horizontal = 1;
origin = (0,0);
settings = {
deltaV = {
"{100, 100, 0, 0, 0, 0}" = {
"62" = 0;
};
};
};
type = TTDelta;
}
);
layerId = "6F9C6BB4-2DCF-443B-A55D-9CE049090094";
shapes = (
{
closed = 0;
nodes = (
(400,623,l),
(401,676,o),
(361,700,o),
(311,700,cs),
(236,700,o),
(138,648,o),
(115,565,cs),
(58,355,o),
(458,361,o),
(402,150,cs),
(375,50,o),
(253,0,o),
(165,0,cs),
(126,0,o),
(96,16,o),
(85,31,c)
);
},
{
closed = 0;
nodes = (
(542,230,l),
(490,94,o),
(372,2,o),
(291,0,cs),
(263,-1,o),
(215,-1,o),
(187,0,c)
);
}
);
width = 537;
}
);
},
{
export = 0;
glyphname = T.ss01;
lastChange = "2024-05-27 08:27:03 +0000";
layers = (
{
layerId = "6F9C6BB4-2DCF-443B-A55D-9CE049090094";
shapes = (
{
closed = 0;
nodes = (
(353,699,l),
(328,0,l)
);
},
{
closed = 0;
nodes = (
(70,701,l),
(188,695,o),
(420,697,o),
(610,711,c)
);
}
);
width = 680;
}
);
},
{
export = 0;
glyphname = U.ss01;
lastChange = "2024-05-27 08:27:03 +0000";
layers = (
{
layerId = "6F9C6BB4-2DCF-443B-A55D-9CE049090094";
shapes = (
{
closed = 0;
nodes = (
(757,230,l),
(695,83,o),
(601,0,o),
(566,0,cs),
(533,0,o),
(532,38,o),
(535,119,cs),
(557,700,l)
);
},
{
closed = 0;
nodes = (
(82,700,l),
(176,700,o),
(182,699,o),
(178,588,cs),
(166,173,ls),
(163,68,o),
(221,0,o),
(293,0,cs),
(369,0,o),
(474,105,o),
(540,230,c)
);
}
);
width = 752;
}
);
},
{
export = 0;
glyphname = V.ss01;
lastChange = "2024-05-27 08:27:03 +0000";
layers = (
{
layerId = "6F9C6BB4-2DCF-443B-A55D-9CE049090094";
shapes = (
{
closed = 0;
nodes = (
(71,689,l),
(90,695,o),
(190,716,o),
(192,674,cs),
(207,372,o),
(180,0,o),
(241,0,cs),
(310,0,o),
(616,360,o),
(587,605,cs),
(577,692,o),
(353,742,o),
(370,654,cs),
(378,612,o),
(547,555,o),
(699,696,cs)
);
}
);
width = 699;
}
);
},
{
export = 0;
glyphname = W.ss01;
lastChange = "2024-05-27 08:27:03 +0000";
layers = (
{
layerId = "6F9C6BB4-2DCF-443B-A55D-9CE049090094";
shapes = (
{
closed = 0;
nodes = (
(71,689,l),
(90,695,o),
(190,716,o),
(192,674,cs),
(207,372,o),
(180,0,o),
(241,0,cs),
(317,0,o),
(536,370,o),
(536,674,c),
(551,372,o),
(524,0,o),
(585,0,cs),
(644,0,o),
(910,360,o),
(881,605,cs),
(871,692,o),
(647,742,o),
(664,654,cs),
(672,612,o),
(841,555,o),
(993,696,c)
);
}
);
width = 993;
}
);
},
{
export = 0;
glyphname = X.ss01;
lastChange = "2024-05-27 08:27:03 +0000";
layers = (
{
layerId = "6F9C6BB4-2DCF-443B-A55D-9CE049090094";
shapes = (
{
closed = 0;
nodes = (
(136,0,l),
(587,700,l)
);
},
{
closed = 0;
nodes = (
(793,230,l),
(731,83,o),
(637,0,o),
(602,0,cs),
(562,0,o),
(310,440,o),
(177,670,cs),
(159,700,o),
(141,700,o),
(71,701,c)
);
}
);
width = 788;
}
);
},
{
export = 0;
glyphname = Y.ss01;
lastChange = "2024-05-27 08:27:03 +0000";
layers = (
{
layerId = "6F9C6BB4-2DCF-443B-A55D-9CE049090094";
shapes = (
{
closed = 0;
nodes = (
(543,360,l),
(556,700,l)
);
},
{
closed = 0;
nodes = (
(81,700,l),
(175,700,o),
(180,699,o),
(177,588,cs),
(165,173,ls),
(162,68,o),
(169,0,o),
(241,0,cs),
(317,0,o),
(475,192,o),
(541,317,c)
);
},
{
closed = 0;
nodes = (
(543,360,l),
(522,-240,ls),
(520,-299,o),
(506,-324,o),
(476,-324,cs),
(443,-324,o),
(416,-294,o),
(416,-244,cs),
(416,-166,o),
(480,-99,o),
(580,20,cs),
(639,90,o),
(703,167,o),
(731,230,c)
);
}
);
width = 726;
}
);
},
{
export = 0;
glyphname = Z.ss01;
lastChange = "2024-05-27 08:27:03 +0000";
layers = (
{
layerId = "6F9C6BB4-2DCF-443B-A55D-9CE049090094";
shapes = (
{
closed = 0;
nodes = (
(679,230,l),
(617,83,o),
(524,-4,o),
(488,-4,cs),
(442,-4,o),
(377,6,o),
(303,6,cs),
(230,6,o),
(160,6,o),
(81,0,c)
);
},
{
closed = 0;
nodes = (
(649,740,l),
(51,-40,l)
);
},
{
closed = 0;
nodes = (
(148,700,l),
(251,686,o),
(453,688,o),
(619,700,c)
);
}
);
width = 674;
}
);
},
{
export = 0;
glyphname = A.ss02;
lastChange = "2024-05-27 08:27:03 +0000";
layers = (
{
layerId = "6F9C6BB4-2DCF-443B-A55D-9CE049090094";
shapes = (
{
closed = 0;
nodes = (
(385,700,l),
(457,189,o),
(462,0,o),
(519,0,cs)
);
},
{
closed = 0;
nodes = (
(153,228,l),
(451,228,l)
);
},
{
closed = 0;
nodes = (
(385,700,l),
(36,0,ls)
);
},
{
closed = 0;
nodes = (
(625,150,ls),
(596,50,o),
(553,0,o),
(519,0,c)
);
}
);
width = 625;
}
);
},
{
export = 0;
glyphname = B.ss02;
lastChange = "2024-05-27 08:27:03 +0000";
layers = (
{
layerId = "6F9C6BB4-2DCF-443B-A55D-9CE049090094";
shapes = (
{
closed = 0;
nodes = (
(57,700,l),
(314,700,l),
(363,700,o),
(455,696,o),
(455,571,cs),
(455,416,o),
(282,360,o),
(217,360,c)
);
},
{
closed = 0;
nodes = (
(231,360,l),
(394,385,o),
(475,351,o),
(475,220,cs),
(475,51,o),
(313,0,o),
(159,0,cs),
(132,0,o),
(130,12,o),
(131,39,cs),
(157,700,l)
);
}
);
width = 519;
}
);
},
{
export = 0;
glyphname = C.ss02;
lastChange = "2024-05-27 08:27:03 +0000";
layers = (
{
layerId = "6F9C6BB4-2DCF-443B-A55D-9CE049090094";
shapes = (
{
closed = 0;
nodes = (
(427,679,l),
(381,691,o),
(300,700,o),
(265,700,cs),
(97,700,o),
(51,562,o),
(51,326,cs),
(51,80,o),
(143,0,o),
(246,0,cs),
(345,0,o),
(455,74,o),
(502,150,cs)
);
}
);
width = 502;
}
);
},
{
export = 0;
glyphname = D.ss02;
lastChange = "2024-05-27 08:27:03 +0000";
layers = (
{
layerId = "6F9C6BB4-2DCF-443B-A55D-9CE049090094";
shapes = (
{
closed = 0;
nodes = (
(57,700,l),
(314,700,l),
(513,700,o),
(601,578,o),
(601,435,cs),
(601,237,o),
(431,0,o),
(159,0,cs),
(132,0,o),
(130,12,o),
(131,39,cs),
(157,700,l)
);
}
);
width = 645;
}
);
},
{
export = 0;
glyphname = E.ss02;
lastChange = "2024-05-27 08:27:03 +0000";
layers = (
{
layerId = "6F9C6BB4-2DCF-443B-A55D-9CE049090094";
shapes = (
{
closed = 0;
nodes = (
(57,700,l),
(438,700,l)
);
},
{
closed = 0;
nodes = (
(426,0,l),
(159,0,l),
(132,0,o),
(130,12,o),
(131,39,cs),
(157,700,l)
);
},
{
closed = 0;
nodes = (
(141,344,l),
(398,344,l)
);
}
);
width = 494;
}
);
},
{
export = 0;
glyphname = F.ss02;
lastChange = "2024-05-27 08:27:03 +0000";
layers = (
{
layerId = "6F9C6BB4-2DCF-443B-A55D-9CE049090094";
shapes = (
{
closed = 0;
nodes = (
(57,700,l),
(438,700,l)
);
},
{
closed = 0;
nodes = (
(141,334,l),
(398,334,l)
);
},
{
closed = 0;
nodes = (
(157,701,l),
(131,0,l)
);
}
);
width = 495;
}
);
},
{
export = 0;
glyphname = G.ss02;
lastChange = "2024-05-27 08:27:03 +0000";
layers = (
{
layerId = "6F9C6BB4-2DCF-443B-A55D-9CE049090094";
shapes = (
{
closed = 0;
nodes = (
(591,151,l),
(578,88,o),
(329,-25,o),
(329,-244,cs),
(329,-305,o),
(351,-347,o),
(390,-347,cs),
(442,-347,o),
(443,-285,o),
(443,-104,cs),
(443,361,l),
(292,361,l)
);
},
{
closed = 0;
nodes = (
(427,679,l),
(381,691,o),
(300,700,o),
(265,700,cs),
(97,700,o),
(51,562,o),
(51,326,cs),
(51,80,o),
(143,0,o),
(246,0,cs),
(345,0,o),
(443,154,o),
(443,270,cs)
);
}
);
width = 591;
}
);
},
{
export = 0;
glyphname = H.ss02;
lastChange = "2024-05-27 08:27:03 +0000";
layers = (
{
layerId = "6F9C6BB4-2DCF-443B-A55D-9CE049090094";
shapes = (
{
closed = 0;
nodes = (
(59,320,l),
(576,320,l)
);
},
{
closed = 0;
nodes = (
(172,700,l),
(150,0,l)
);
},
{
closed = 0;
nodes = (
(749,150,ls),
(690,50,o),
(633,0,o),
(599,0,cs),
(566,0,o),
(565,38,o),
(568,119,cs),
(590,700,l)
);
}
);
width = 749;
}
);
},
{
export = 0;
glyphname = I.ss02;
lastChange = "2024-05-27 08:27:03 +0000";
layers = (
{
layerId = "6F9C6BB4-2DCF-443B-A55D-9CE049090094";
shapes = (
{
closed = 0;
nodes = (
(44,170,l),
(19,65,o),
(100,0,o),
(179,0,cs),
(258,0,o),
(334,65,o),
(339,212,cs),
(357,700,l),
(255,687,o),
(145,687,o),
(91,700,c)
);
}
);
width = 411;
}
);
},
{
export = 0;
glyphname = J.ss02;
lastChange = "2024-05-27 08:27:03 +0000";
layers = (
{
anchors = (
{
name = bottom;
pos = (173,0);
},
{
name = top;
pos = (173,650);
}
);
layerId = "6F9C6BB4-2DCF-443B-A55D-9CE049090094";
shapes = (
{
closed = 0;
nodes = (
(345,151,l),
(332,88,o),
(83,-25,o),
(83,-244,cs),
(83,-305,o),
(105,-347,o),
(144,-347,cs),
(196,-347,o),
(199,-285,o),
(197,-104,cs),
(195,51,o),
(190,206,o),
(197,361,cs),
(213,700,l),
(213,700,o),
(177,228,o),
(36,128,c)
);
}
);
width = 345;
}
);
},
{
export = 0;
glyphname = K.ss02;
lastChange = "2024-05-27 08:27:03 +0000";
layers = (
{
layerId = "6F9C6BB4-2DCF-443B-A55D-9CE049090094";
shapes = (
{
closed = 0;
nodes = (
(417,700,l),
(100,358,l),
(313,95,ls),
(347,53,o),
(404,0,o),
(456,0,cs),
(490,0,o),
(547,50,o),
(606,150,cs)
);
},
{
closed = 0;
nodes = (
(80,700,l),
(59,0,l)
);
}
);
width = 606;
}
);
},
{
export = 0;
glyphname = L.ss02;
lastChange = "2024-05-27 08:27:03 +0000";
layers = (
{
layerId = "6F9C6BB4-2DCF-443B-A55D-9CE049090094";
shapes = (
{
closed = 0;
nodes = (
(83,700,l),
(57,2,l),
(75,12,o),
(103,14,o),
(124,14,cs),
(209,14,o),
(185,0,o),
(270,0,cs),
(304,0,o),
(361,50,o),
(420,150,cs)
);
}
);
width = 420;
}
);
},
{
export = 0;
glyphname = M.ss02;
lastChange = "2024-05-27 08:27:03 +0000";
layers = (
{
layerId = "6F9C6BB4-2DCF-443B-A55D-9CE049090094";
shapes = (
{
closed = 0;
nodes = (
(38,0,l),
(209,700,l),
(360,83,l),
(696,700,l),
(697,189,o),
(682,0,o),
(739,0,cs)
);
},
{
closed = 0;
nodes = (
(845,150,ls),
(816,50,o),
(773,0,o),
(739,0,c)
);
}
);
width = 845;
}
);
},
{
export = 0;
glyphname = N.ss02;
lastChange = "2024-05-27 08:27:03 +0000";
layers = (
{
layerId = "6F9C6BB4-2DCF-443B-A55D-9CE049090094";
shapes = (
{
closed = 0;
nodes = (
(486,700,l),
(461,0,l),
(426,84,o),
(112,600,o),
(83,699,c),
(57,2,l)
);
}
);
width = 543;
}
);
},
{
export = 0;
glyphname = O.ss02;
lastChange = "2024-05-27 08:27:03 +0000";
layers = (
{
layerId = "6F9C6BB4-2DCF-443B-A55D-9CE049090094";
shapes = (
{
closed = 0;
nodes = (
(140,170,l),
(74,170,o),
(44,234,o),
(44,317,cs),
(44,474,o),
(148,700,o),
(323,700,cs),
(479,700,o),
(564,565,o),
(564,394,cs),
(564,205,o),
(458,0,o),
(268,0,cs),
(190,0,o),
(128,30,o),
(89,77,c)
);
}
);
width = 690;
}
);
},
{
export = 0;
glyphname = P.ss02;
lastChange = "2024-05-27 08:27:03 +0000";
layers = (
{
layerId = "6F9C6BB4-2DCF-443B-A55D-9CE049090094";
shapes = (
{
closed = 0;
nodes = (
(57,700,l),
(339,700,l),
(399,700,o),
(511,695,o),
(511,543,cs),
(511,354,o),
(301,286,o),
(221,286,c)
);
},
{
closed = 0;
nodes = (
(238,286,l)
);
},
{
closed = 0;
nodes = (
(157,-1,l),
(183,700,l)
);
}
);
width = 553;
}
);
},
{
export = 0;
glyphname = Q.ss02;
lastChange = "2024-05-27 08:27:03 +0000";
layers = (
{
layerId = "6F9C6BB4-2DCF-443B-A55D-9CE049090094";
shapes = (
{
closed = 0;
nodes = (
(68,200,l),
(50,216,o),
(45,251,o),
(45,317,cs),
(45,474,o),
(149,700,o),
(324,700,cs),
(480,700,o),
(565,565,o),
(565,394,cs),
(565,205,o),
(459,0,o),
(269,0,cs),
(191,0,o),
(109,64,o),
(109,100,cs),
(109,121,o),
(150,140,o),
(211,140,cs),
(319,140,o),
(491,79,o),
(607,-146,c)
);
}
);
width = 707;
}
);
},
{
export = 0;
glyphname = R.ss02;
lastChange = "2024-05-27 08:27:03 +0000";
layers = (
{
layerId = "6F9C6BB4-2DCF-443B-A55D-9CE049090094";
shapes = (
{
closed = 0;
nodes = (
(57,700,l),
(334,700,l),
(387,700,o),
(486,696,o),
(486,561,cs),
(486,394,o),
(329,292,o),
(231,338,c)
);
},
{
closed = 0;
nodes = (
(131,0,l),
(157,700,l)
);
},
{
closed = 0;
nodes = (
(198,378,l),
(410,95,ls),
(441,53,o),
(493,0,o),
(545,0,cs)
);
}
);
width = 581;
}
);
},
{
export = 0;
glyphname = S.ss02;
lastChange = "2024-05-27 08:27:03 +0000";
layers = (
{
hints = (
{
horizontal = 1;
origin = (0,12);
settings = {
deltaV = {
"{100, 100, 0, 0, 0, 0}" = {
"62" = 0;
};
};
};
type = TTDelta;
},
{
horizontal = 1;
origin = (0,11);
settings = {
deltaV = {
"{100, 100, 0, 0, 0, 0}" = {
"62" = 0;
};
};
};
type = TTDelta;
},
{
horizontal = 1;
origin = (0,10);
settings = {
deltaV = {
"{100, 100, 0, 0, 0, 0}" = {
"62" = 0;
};
};
};
type = TTDelta;
},
{
horizontal = 1;
origin = (0,9);
settings = {
deltaV = {
"{100, 100, 0, 0, 0, 0}" = {
"62" = 0;
};
};
};
type = TTDelta;
},
{
horizontal = 1;
origin = (0,8);
settings = {
deltaV = {
"{100, 100, 0, 0, 0, 0}" = {
"62" = 0;
};
};
};
type = TTDelta;
},
{
horizontal = 1;
origin = (0,7);
settings = {
deltaV = {
"{100, 100, 0, 0, 0, 0}" = {
"62" = 0;
};
};
};
type = TTDelta;
},
{
horizontal = 1;
origin = (0,6);
settings = {
deltaV = {
"{100, 100, 0, 0, 0, 0}" = {
"62" = 0;
};
};
};
type = TTDelta;
},
{
horizontal = 1;
origin = (0,5);
settings = {
deltaV = {
"{100, 100, 0, 0, 0, 0}" = {
"62" = 0;
};
};
};
type = TTDelta;
},
{
horizontal = 1;
origin = (0,4);
settings = {
deltaV = {
"{100, 100, 0, 0, 0, 0}" = {
"62" = 0;
};
};
};
type = TTDelta;
},
{
horizontal = 1;
origin = (0,3);
settings = {
deltaV = {
"{100, 100, 0, 0, 0, 0}" = {
"62" = 0;
};
};
};
type = TTDelta;
},
{
horizontal = 1;
origin = (0,2);
settings = {
deltaV = {
"{100, 100, 0, 0, 0, 0}" = {
"62" = 0;
};
};
};
type = TTDelta;
},
{
horizontal = 1;
origin = (0,1);
settings = {
deltaV = {
"{100, 100, 0, 0, 0, 0}" = {
"62" = 0;
};
};
};
type = TTDelta;
},
{
horizontal = 1;
origin = (0,0);
settings = {
deltaV = {
"{100, 100, 0, 0, 0, 0}" = {
"62" = 0;
};
};
};
type = TTDelta;
}
);
layerId = "6F9C6BB4-2DCF-443B-A55D-9CE049090094";
shapes = (
{
closed = 0;
nodes = (
(309,623,l),
(306,671,o),
(270,700,o),
(214,700,cs),
(128,700,o),
(42,638,o),
(28,565,cs),
(-15,355,o),
(385,361,o),
(344,150,cs),
(326,66,o),
(227,0,o),
(117,0,cs),
(84,0,o),
(49,13,o),
(35,31,c)
);
},
{
closed = 0;
nodes = (
(88,3,ls),
(301,-33,o),
(449,50,o),
(501,150,cs)
);
}
);
width = 501;
}
);
},
{
export = 0;
glyphname = T.ss02;
lastChange = "2024-05-27 08:27:03 +0000";
layers = (
{
layerId = "6F9C6BB4-2DCF-443B-A55D-9CE049090094";
shapes = (
{
closed = 0;
nodes = (
(319,700,l),
(294,0,l)
);
},
{
closed = 0;
nodes = (
(36,701,l),
(576,700,l)
);
}
);
width = 611;
}
);
},
{
export = 0;
glyphname = U.ss02;
lastChange = "2024-05-27 08:27:03 +0000";
layers = (
{
layerId = "6F9C6BB4-2DCF-443B-A55D-9CE049090094";
shapes = (
{
closed = 0;
nodes = (
(532,0,l),
(499,0,o),
(498,38,o),
(501,119,cs),
(523,700,l)
);
},
{
closed = 0;
nodes = (
(149,700,l),
(132,173,ls),
(129,68,o),
(187,0,o),
(259,0,cs),
(335,0,o),
(440,105,o),
(506,230,c)
);
},
{
closed = 0;
nodes = (
(638,150,ls),
(609,50,o),
(566,0,o),
(532,0,c)
);
}
);
width = 638;
}
);
},
{
export = 0;
glyphname = V.ss02;
lastChange = "2024-05-27 08:27:03 +0000";
layers = (
{
layerId = "6F9C6BB4-2DCF-443B-A55D-9CE049090094";
shapes = (
{
closed = 0;
nodes = (
(39,700,l),
(192,0,l),
(258,78,o),
(478,455,o),
(445,700,cs)
);
}
);
width = 492;
}
);
},
{
export = 0;
glyphname = W.ss02;
lastChange = "2024-05-27 08:27:03 +0000";
layers = (
{
layerId = "6F9C6BB4-2DCF-443B-A55D-9CE049090094";
shapes = (
{
closed = 0;
nodes = (
(39,700,l),
(192,0,l),
(258,78,o),
(478,455,o),
(445,700,c),
(598,0,l),
(664,78,o),
(884,455,o),
(851,700,cs)
);
}
);
width = 898;
}
);
},
{
export = 0;
glyphname = X.ss02;
lastChange = "2024-05-27 08:27:03 +0000";
layers = (
{
layerId = "6F9C6BB4-2DCF-443B-A55D-9CE049090094";
shapes = (
{
closed = 0;
nodes = (
(101,0,l),
(552,700,l)
);
},
{
closed = 0;
nodes = (
(567,0,l),
(527,0,o),
(254,470,o),
(121,700,c)
);
},
{
closed = 0;
nodes = (
(673,150,ls),
(644,50,o),
(601,0,o),
(567,0,c)
);
}
);
width = 673;
}
);
},
{
export = 0;
glyphname = Y.ss02;
lastChange = "2024-05-27 08:27:03 +0000";
layers = (
{
layerId = "6F9C6BB4-2DCF-443B-A55D-9CE049090094";
shapes = (
{
closed = 0;
nodes = (
(79,705,l),
(61,173,ls),
(57,68,o),
(65,0,o),
(137,0,cs),
(213,0,o),
(371,192,o),
(437,317,c)
);
},
{
closed = 0;
nodes = (
(585,151,l),
(572,88,o),
(323,-25,o),
(323,-244,cs),
(323,-305,o),
(345,-347,o),
(384,-347,cs),
(436,-347,o),
(439,-285,o),
(437,-104,cs),
(435,51,o),
(430,206,o),
(437,361,cs),
(453,700,l)
);
}
);
width = 585;
}
);
},
{
export = 0;
glyphname = Z.ss02;
lastChange = "2024-05-27 08:27:03 +0000";
layers = (
{
layerId = "6F9C6BB4-2DCF-443B-A55D-9CE049090094";
shapes = (
{
closed = 0;
nodes = (
(44,-7,l),
(103,26,o),
(397,0,o),
(464,0,cs),
(498,0,o),
(555,50,o),
(614,150,cs)
);
},
{
closed = 0;
nodes = (
(518,733,l),
(19,-40,l)
);
},
{
closed = 0;
nodes = (
(26,700,l),
(497,700,l)
);
}
);
width = 614;
}
);
},
{
export = 0;
glyphname = A.ss03;
lastChange = "2024-05-27 08:27:03 +0000";
layers = (
{
background = {
shapes = (
{
closed = 0;
nodes = (
(443,248,l),
(728,248,l)
);
},
{
closed = 0;
nodes = (
(752,700,l),
(472,261,o),
(307,1,o),
(183,1,cs),
(37,8,o),
(33,141,o),
(187,141,cs),
(271,141,o),
(403,80,o),
(493,-145,c)
);
},
{
closed = 0;
nodes = (
(950,230,l),
(888,83,o),
(794,0,o),
(759,0,cs),
(713,0,o),
(721,147,o),
(740,476,cs),
(744,552,o),
(747,604,o),
(752,700,c),
(676,700,o),
(594,682,o),
(525,667,cs),
(416,643,o),
(341,626,o),
(378,700,c)
);
}
);
};
layerId = "6F9C6BB4-2DCF-443B-A55D-9CE049090094";
shapes = (
{
closed = 0;
nodes = (
(443,248,l),
(728,248,l)
);
},
{
closed = 0;
nodes = (
(752,700,l),
(376,141,o),
(292,1,o),
(164,1,c),
(104,4,o),
(73,40,o),
(73,74,cs),
(73,108,o),
(110,141,o),
(187,141,cs),
(271,141,o),
(403,80,o),
(493,-145,c)
);
},
{
closed = 0;
nodes = (
(950,230,l),
(888,83,o),
(794,0,o),
(759,0,cs),
(713,0,o),
(721,147,o),
(740,476,cs),
(752,700,l),
(676,700,o),
(594,682,o),
(525,667,cs),
(416,643,o),
(281,604,o),
(241,700,c)
);
}
);
width = 945;
}
);
},
{
export = 0;
glyphname = C.ss03;
lastChange = "2024-05-27 08:27:03 +0000";
layers = (
{
background = {
shapes = (
{
closed = 0;
nodes = (
(600,230,l),
(524,105,o),
(404,0,o),
(316,0,cs),
(234,0,o),
(177,84,o),
(170,213,cs),
(159,415,o),
(234,700,o),
(372,700,cs),
(510,700,o),
(576,714,o),
(576,610,cs),
(576,501,o),
(430,411,o),
(310,411,cs),
(230,411,o),
(143,449,o),
(72,562,c)
);
}
);
};
layerId = "6F9C6BB4-2DCF-443B-A55D-9CE049090094";
shapes = (
{
closed = 0;
nodes = (
(600,230,l),
(524,105,o),
(404,0,o),
(316,0,cs),
(234,0,o),
(177,84,o),
(170,213,cs),
(155,490,o),
(309,697,o),
(504,697,cs),
(547,697,o),
(577,671,o),
(577,612,cs),
(578,487,o),
(437,412,o),
(291,412,cs),
(211,412,o),
(130,434,o),
(70,484,c)
);
}
);
width = 595;
}
);
},
{
export = 0;
glyphname = H.ss03;
lastChange = "2024-05-27 08:27:03 +0000";
layers = (
{
background = {
shapes = (
{
closed = 0;
nodes = (
(299,350,l),
(713,350,l)
);
},
{
closed = 0;
nodes = (
(927,230,l),
(865,83,o),
(771,0,o),
(736,0,cs),
(703,0,o),
(702,38,o),
(705,119,cs),
(727,630,ls),
(729,684,o),
(721,793,o),
(777,793,cs),
(801,793,o),
(819,773,o),
(819,750,cs),
(819,576,o),
(299,829,o),
(194,829,cs),
(149,829,o),
(129,738,o),
(157,684,c)
);
},
{
closed = 0;
nodes = (
(310,653,l),
(293,192,ls),
(289,90,o),
(254,0,o),
(173,1,cs),
(107,2,o),
(73,37,o),
(73,72,cs),
(73,107,o),
(110,141,o),
(187,141,cs),
(271,141,o),
(403,80,o),
(493,-145,c)
);
}
);
};
layerId = "6F9C6BB4-2DCF-443B-A55D-9CE049090094";
shapes = (
{
closed = 0;
nodes = (
(299,350,l),
(713,350,l)
);
},
{
closed = 0;
nodes = (
(927,230,l),
(865,83,o),
(771,0,o),
(736,0,cs),
(703,0,o),
(702,38,o),
(705,119,cs),
(727,630,ls),
(729,684,o),
(721,793,o),
(777,793,cs),
(801,793,o),
(819,773,o),
(819,750,cs),
(819,705,o),
(786,689,o),
(733,689,cs),
(587,689,o),
(362,817,o),
(222,817,cs),
(178,817,o),
(141,805,o),
(118,771,c)
);
},
{
closed = 0;
nodes = (
(310,653,l),
(293,192,ls),
(289,90,o),
(254,0,o),
(173,1,cs),
(107,2,o),
(73,37,o),
(73,72,cs),
(73,107,o),
(110,141,o),
(187,141,cs),
(271,141,o),
(403,80,o),
(493,-145,c)
);
}
);
width = 922;
}
);
},
{
export = 0;
glyphname = L.ss03;
lastChange = "2024-05-27 08:27:03 +0000";
layers = (
{
layerId = "6F9C6BB4-2DCF-443B-A55D-9CE049090094";
shapes = (
{
closed = 0;
nodes = (
(458,0,l),
(191,0,ls),
(164,0,o),
(162,12,o),
(163,39,cs),
(184,588,ls),
(188,699,o),
(182,700,o),
(88,700,c)
);
}
);
width = 546;
}
);
},
{
export = 0;
glyphname = M.ss03;
lastChange = "2024-05-27 08:27:03 +0000";
layers = (
{
background = {
shapes = (
{
closed = 0;
nodes = (
(1264,230,l),
(1202,83,o),
(1108,0,o),
(1073,0,cs),
(1016,0,o),
(1040,189,o),
(1066,700,c),
(931,273,o),
(781,104,o),
(715,54,c),
(660,144,o),
(597,335,o),
(581,700,c),
(375,113,ls),
(346,30,o),
(313,1,o),
(244,1,cs),
(166,1,o),
(84,65,o),
(84,101,cs),
(84,159,o),
(401,206,o),
(582,-145,c)
);
}
);
};
layerId = "6F9C6BB4-2DCF-443B-A55D-9CE049090094";
shapes = (
{
closed = 0;
nodes = (
(1264,230,l),
(1202,83,o),
(1108,0,o),
(1073,0,cs),
(1016,0,o),
(1040,189,o),
(1066,700,c),
(931,273,o),
(781,104,o),
(715,54,c),
(660,144,o),
(597,335,o),
(581,700,c),
(380,128,o),
(363,-8,o),
(182,1,cs),
(36,8,o),
(32,141,o),
(186,141,cs),
(270,141,o),
(402,80,o),
(492,-145,c)
);
},
{
closed = 0;
nodes = (
(581,700,l),
(522,700,o),
(458,682,o),
(404,667,cs),
(319,643,o),
(213,604,o),
(182,700,c)
);
}
);
width = 1259;
}
);
},
{
export = 0;
glyphname = T.ss03;
lastChange = "2024-05-27 08:27:03 +0000";
layers = (
{
background = {
shapes = (
{
closed = 0;
nodes = (
(128,634,l),
(108,692,o),
(156,709,o),
(197,709,cs),
(309,709,o),
(443,690,o),
(537,690,cs),
(578,690,o),
(626,707,o),
(606,765,c)
);
},
{
closed = 0;
nodes = (
(402,700,l),
(377,0,l)
);
}
);
};
layerId = "6F9C6BB4-2DCF-443B-A55D-9CE049090094";
shapes = (
{
closed = 0;
nodes = (
(77,634,l),
(57,692,o),
(105,709,o),
(146,709,cs),
(284,709,o),
(449,690,o),
(566,690,cs),
(632,690,o),
(658,732,o),
(618,759,c)
);
},
{
closed = 0;
nodes = (
(367,700,l),
(342,0,l)
);
}
);
width = 702;
}
);
},
{
export = 0;
glyphname = A.ss04;
kernLeft = A;
kernRight = A;
lastChange = "2024-05-27 08:27:03 +0000";
layers = (
{
anchors = (
{
name = bottom;
pos = (287,0);
},
{
name = ogonek;
pos = (526,-5);
},
{
name = top;
pos = (287,650);
}
);
background = {
shapes = (
{
closed = 0;
nodes = (
(407,0,l),
(442,700,l)
);
}
);
};
layerId = "6F9C6BB4-2DCF-443B-A55D-9CE049090094";
shapes = (
{
attr = {
lineCapEnd = 1;
lineCapStart = 1;
};
closed = 0;
nodes = (
(526,0,l),
(296,700,l),
(295,700,l),
(45,0,ls)
);
},
{
attr = {
lineCapEnd = 1;
lineCapStart = 1;
};
closed = 0;
nodes = (
(137,228,l),
(440,228,l)
);
}
);
width = 571;
}
);
},
{
export = 0;
glyphname = AE.ss04;
kernLeft = A;
kernRight = E;
lastChange = "2024-06-17 14:29:45 +0000";
layers = (
{
anchors = (
{
name = bottom;
pos = (219,0);
},
{
name = ogonek;
pos = (477,10);
},
{
name = top;
pos = (219,650);
},
{
name = topleft;
pos = (510,700);
}
);
layerId = "6F9C6BB4-2DCF-443B-A55D-9CE049090094";
shapes = (
{
attr = {
identifier = ID0x7fadab0a7ef0;
lineCapEnd = 1;
lineCapStart = 1;
};
closed = 0;
nodes = (
(465,700,l),
(379,700,l),
(378,700,l),
(67,0,ls)
);
},
{
attr = {
identifier = ID0x7fadab0a7ef0;
lineCapEnd = 1;
lineCapStart = 1;
};
closed = 0;
nodes = (
(159,228,l),
(724,394,l)
);
},
{
attr = {
identifier = ID0x7fadab051540;
lineCapEnd = 1;
lineCapStart = 1;
};
closed = 0;
nodes = (
(757,0,l),
(463,0,l),
(465,700,l),
(748,700,l)
);
}
);
width = 850;
}
);
metricLeft = A;
metricRight = E;
},
{
export = 0;
glyphname = B.ss04;
kernLeft = H;
kernRight = B;
lastChange = "2024-06-17 14:29:45 +0000";
layers = (
{
background = {
shapes = (
{
closed = 0;
nodes = (
(125,0,l),
(72,0,o),
(85,64,o),
(93,152,cs),
(143,700,l)
);
},
{
closed = 0;
nodes = (
(26,700,l),
(86,700,o),
(216,700,o),
(265,700,cs),
(314,700,o),
(406,696,o),
(406,567,cs),
(406,406,o),
(257,358,o),
(192,358,c),
(279,360,ls),
(330,360,o),
(426,355,o),
(426,220,cs),
(426,51,o),
(270,1,o),
(202,1,cs)
);
}
);
};
layerId = "6F9C6BB4-2DCF-443B-A55D-9CE049090094";
shapes = (
{
attr = {
lineCapEnd = 1;
lineCapStart = 1;
};
closed = 0;
nodes = (
(108,361,l),
(331,361,o),
(426,351,o),
(426,220,cs),
(426,51,o),
(286,0,o),
(132,0,cs),
(94,0,l),
(108,700,l),
(265,700,l),
(314,700,o),
(406,696,o),
(406,571,cs),
(406,416,o),
(279,360,o),
(108,360,c)
);
}
);
width = 520;
}
);
metricLeft = H;
},
{
export = 0;
glyphname = C.ss04;
kernLeft = O;
kernRight = C;
lastChange = "2024-06-17 14:29:45 +0000";
layers = (
{
anchors = (
{
name = bottom;
pos = (277,0);
},
{
name = top;
pos = (277,700);
}
);
background = {
shapes = (
{
closed = 0;
nodes = (
(467,681,l),
(420,694,o),
(358,700,o),
(300,700,cs),
(162,700,o),
(87,415,o),
(98,213,cs),
(105,84,o),
(162,0,o),
(244,0,cs),
(332,0,o),
(474,152,o),
(528,230,c)
);
}
);
};
layerId = "6F9C6BB4-2DCF-443B-A55D-9CE049090094";
shapes = (
{
attr = {
lineCapEnd = 1;
lineCapStart = 1;
};
closed = 0;
nodes = (
(491,679,l),
(432,693,o),
(381,700,o),
(336,700,cs),
(153,700,o),
(77,583,o),
(77,326,cs),
(77,138,o),
(151,0,o),
(289,0,cs),
(349,0,o),
(419,25,o),
(502,82,cs)
);
}
);
width = 562;
}
);
metricLeft = O;
},
{
export = 0;
glyphname = D.ss04;
kernLeft = H;
kernRight = O;
lastChange = "2024-06-17 14:29:45 +0000";
layers = (
{
background = {
shapes = (
{
closed = 0;
nodes = (
(25,700,l),
(85,700,o),
(215,700,o),
(264,700,cs),
(313,700,o),
(405,696,o),
(405,571,c)
);
},
{
closed = 0;
nodes = (
(425,220,l),
(425,51,o),
(263,0,o),
(109,0,cs),
(82,0,o),
(79,12,o),
(81,39,cs),
(142,700,l)
);
},
{
closed = 0;
nodes = (
(169,20,l),
(223,7,o),
(270,1,o),
(308,1,cs),
(402,1,o),
(477,141,o),
(511,267,cs),
(560,453,o),
(551,701,o),
(409,701,cs),
(351,701,o),
(287,658,o),
(222,596,c)
);
}
);
};
layerId = "6F9C6BB4-2DCF-443B-A55D-9CE049090094";
shapes = (
{
attr = {
lineCapEnd = 1;
lineCapStart = 1;
};
closed = 0;
nodes = (
(107,700,l),
(264,700,l),
(463,700,o),
(551,578,o),
(551,435,cs),
(551,178,o),
(382,0,o),
(109,0,c),
(94,0,l),
(107,700,l)
);
}
);
width = 628;
}
);
metricLeft = H;
metricRight = O;
},
{
export = 0;
glyphname = Eth.ss04;
kernLeft = Eth;
kernRight = O;
lastChange = "2024-06-17 14:29:45 +0000";
layers = (
{
layerId = "6F9C6BB4-2DCF-443B-A55D-9CE049090094";
shapes = (
{
ref = D;
},
{
closed = 0;
nodes = (
(-11,361,l),
(419,361,l)
);
}
);
width = 645;
}
);
metricRight = D;
},
{
export = 0;
glyphname = E.ss04;
kernLeft = H;
kernRight = E;
lastChange = "2024-06-17 14:29:45 +0000";
layers = (
{
anchors = (
{
name = bottom;
pos = (243,0);
},
{
name = ogonek;
pos = (468,10);
},
{
name = top;
pos = (243,650);
},
{
name = topleft;
pos = (-19,700);
}
);
layerId = "6F9C6BB4-2DCF-443B-A55D-9CE049090094";
shapes = (
{
attr = {
lineCapEnd = 1;
lineCapStart = 1;
};
closed = 0;
nodes = (
(388,0,l),
(94,0,l),
(108,700,l),
(391,700,l)
);
},
{
attr = {
lineCapEnd = 1;
lineCapStart = 1;
};
closed = 0;
nodes = (
(101,344,l),
(355,344,l)
);
}
);
width = 461;
}
);
metricLeft = H;
},
{
export = 0;
glyphname = F.ss04;
kernLeft = H;
kernRight = F;
lastChange = "2024-06-17 14:29:45 +0000";
layers = (
{
layerId = "6F9C6BB4-2DCF-443B-A55D-9CE049090094";
shapes = (
{
attr = {
lineCapEnd = 1;
lineCapStart = 1;
};
closed = 0;
nodes = (
(94,0,l),
(108,700,l),
(391,700,l)
);
},
{
attr = {
lineCapEnd = 1;
lineCapStart = 1;
};
closed = 0;
nodes = (
(101,344,l),
(355,344,l)
);
}
);
width = 471;
}
);
metricLeft = H;
},
{
export = 0;
glyphname = G.ss04;
kernLeft = O;
kernRight = B;
lastChange = "2024-06-17 14:29:45 +0000";
layers = (
{
background = {
shapes = (
{
closed = 0;
nodes = (
(464,361,l),
(313,361,l)
);
},
{
closed = 0;
nodes = (
(448,679,l),
(402,691,o),
(321,700,o),
(286,700,cs),
(118,700,o),
(72,562,o),
(72,326,cs),
(72,80,o),
(164,0,o),
(267,0,cs),
(366,0,o),
(464,154,o),
(464,270,cs)
);
}
);
};
layerId = "6F9C6BB4-2DCF-443B-A55D-9CE049090094";
shapes = (
{
attr = {
lineCapEnd = 1;
lineCapStart = 1;
};
closed = 0;
nodes = (
(491,679,l),
(432,693,o),
(381,700,o),
(336,700,cs),
(153,700,o),
(77,583,o),
(77,326,cs),
(77,138,o),
(151,0,o),
(289,0,cs),
(418,0,o),
(516,152,o),
(508,341,c),
(271,341,l)
);
}
);
width = 568;
}
);
metricLeft = O;
},
{
export = 0;
glyphname = H.ss04;
kernLeft = H;
kernRight = H;
lastChange = "2024-05-27 08:27:03 +0000";
layers = (
{
background = {
shapes = (
{
closed = 0;
nodes = (
(23,320,l),
(553,320,l)
);
},
{
closed = 0;
nodes = (
(108,699,l),
(161,699,o),
(151,635,o),
(148,547,cs),
(127,-1,l)
);
},
{
closed = 0;
nodes = (
(767,230,l),
(705,83,o),
(611,0,o),
(576,0,cs),
(543,0,o),
(542,38,o),
(545,119,cs),
(567,700,l)
);
}
);
};
layerId = "6F9C6BB4-2DCF-443B-A55D-9CE049090094";
shapes = (
{
attr = {
lineCapEnd = 1;
lineCapStart = 1;
};
closed = 0;
nodes = (
(136,320,l),
(515,320,l)
);
},
{
attr = {
lineCapEnd = 1;
lineCapStart = 1;
};
closed = 0;
nodes = (
(133,700,l),
(120,0,l)
);
},
{
attr = {
lineCapEnd = 1;
lineCapStart = 1;
};
closed = 0;
nodes = (
(533,700,l),
(520,0,l)
);
}
);
width = 653;
}
);
},
{
export = 0;
glyphname = I.ss04;
kernLeft = I;
kernRight = I;
lastChange = "2024-05-27 08:27:03 +0000";
layers = (
{
anchors = (
{
name = bottom;
pos = (199,0);
},
{
name = ogonek;
pos = (395,10);
},
{
name = top;
pos = (199,650);
},
{
name = topleft;
pos = (-26,700);
}
);
background = {
shapes = (
{
closed = 0;
nodes = (
(96,170,l),
(71,69,o),
(110,0,o),
(192,0,cs),
(297,0,o),
(388,114,o),
(393,251,cs),
(409,700,l),
(141,700,l)
);
}
);
};
layerId = "6F9C6BB4-2DCF-443B-A55D-9CE049090094";
shapes = (
{
attr = {
lineCapEnd = 1;
lineCapStart = 1;
};
closed = 0;
nodes = (
(208,700,l),
(195,0,l)
);
},
{
attr = {
lineCapEnd = 1;
lineCapStart = 1;
};
closed = 0;
nodes = (
(107,700,l),
(307,700,l)
);
},
{
attr = {
lineCapEnd = 1;
lineCapStart = 1;
};
closed = 0;
nodes = (
(90,0,l),
(300,0,l)
);
}
);
width = 397;
}
);
},
{
export = 0;
glyphname = IJ.ss04;
kernLeft = I;
kernRight = J;
lastChange = "2024-06-17 14:29:45 +0000";
layers = (
{
background = {
shapes = (
{
pos = (-2,0);
ref = I;
}
);
};
layerId = "6F9C6BB4-2DCF-443B-A55D-9CE049090094";
shapes = (
{
attr = {
identifier = ID0x7fadab45f450;
lineCapEnd = 1;
lineCapStart = 1;
};
closed = 0;
nodes = (
(206,700,l),
(199,320,l)
);
},
{
attr = {
identifier = ID0x7fadab45f450;
lineCapEnd = 1;
lineCapStart = 1;
};
closed = 0;
nodes = (
(105,700,l),
(305,700,l)
);
},
{
attr = {
identifier = ID0x7fadab45f450;
lineCapEnd = 1;
lineCapStart = 1;
};
closed = 0;
nodes = (
(94,320,l),
(304,320,l)
);
},
{
pos = (150,0);
ref = J;
}
);
width = 629;
}
);
metricLeft = I;
metricRight = J;
},
{
export = 0;
glyphname = J.ss04;
kernLeft = J;
kernRight = J;
lastChange = "2024-05-27 08:27:03 +0000";
layers = (
{
anchors = (
{
name = bottom;
pos = (213,0);
},
{
name = top;
pos = (314,650);
}
);
background = {
shapes = (
{
closed = 0;
nodes = (
(349,151,l),
(336,88,o),
(87,-25,o),
(87,-244,cs),
(87,-305,o),
(109,-347,o),
(148,-347,cs),
(200,-347,o),
(203,-285,o),
(201,-104,cs),
(199,51,o),
(194,206,o),
(201,361,cs),
(217,700,l),
(217,700,o),
(181,228,o),
(40,128,c)
);
}
);
};
layerId = "6F9C6BB4-2DCF-443B-A55D-9CE049090094";
shapes = (
{
attr = {
lineCapEnd = 1;
lineCapStart = 1;
};
closed = 0;
nodes = (
(48,239,l),
(39,82,o),
(89,0,o),
(193,0,cs),
(282,0,o),
(341,80,o),
(343,212,cs),
(351,700,l)
);
}
);
width = 426;
}
);
},
{
export = 0;
glyphname = K.ss04;
kernLeft = H;
kernRight = K;
lastChange = "2024-06-17 14:29:45 +0000";
layers = (
{
background = {
shapes = (
{
closed = 0;
nodes = (
(386,0,l),
(92,0,l),
(106,700,l),
(389,700,l)
);
},
{
closed = 0;
nodes = (
(99,344,l),
(353,344,l)
);
}
);
};
layerId = "6F9C6BB4-2DCF-443B-A55D-9CE049090094";
shapes = (
{
attr = {
lineCapEnd = 1;
lineCapStart = 1;
};
closed = 0;
nodes = (
(430,700,l),
(113,348,l),
(469,0,l)
);
},
{
attr = {
lineCapEnd = 1;
lineCapStart = 1;
};
closed = 0;
nodes = (
(106,700,l),
(94,0,l)
);
}
);
width = 509;
}
);
metricLeft = H;
},
{
export = 0;
glyphname = L.ss04;
kernLeft = H;
kernRight = L;
lastChange = "2024-06-17 14:29:45 +0000";
layers = (
{
background = {
shapes = (
{
closed = 0;
nodes = (
(9,700,l),
(390,700,l)
);
},
{
closed = 0;
nodes = (
(378,0,l),
(111,0,l),
(84,0,o),
(82,12,o),
(83,39,cs),
(109,700,l)
);
},
{
closed = 0;
nodes = (
(93,344,l),
(350,344,l)
);
}
);
};
layerId = "6F9C6BB4-2DCF-443B-A55D-9CE049090094";
shapes = (
{
attr = {
lineCapEnd = 1;
lineCapStart = 1;
};
closed = 0;
nodes = (
(388,0,l),
(94,0,l),
(108,700,l)
);
}
);
width = 398;
}
);
metricLeft = H;
},
{
export = 0;
glyphname = M.ss04;
kernLeft = H;
kernRight = H;
lastChange = "2024-06-17 14:29:45 +0000";
layers = (
{
background = {
shapes = (
{
closed = 0;
nodes = (
(311,700,l),
(105,113,ls),
(76,30,o),
(43,1,o),
(-26,1,c)
);
},
{
closed = 0;
nodes = (
(796,686,l),
(661,268,o),
(511,103,o),
(445,54,c),
(390,142,o),
(327,329,o),
(311,686,c)
);
},
{
closed = 0;
nodes = (
(994,230,l),
(932,83,o),
(838,0,o),
(803,0,cs),
(746,0,o),
(770,189,o),
(796,700,c)
);
}
);
};
layerId = "6F9C6BB4-2DCF-443B-A55D-9CE049090094";
shapes = (
{
attr = {
lineCapEnd = 1;
lineCapStart = 1;
};
closed = 0;
nodes = (
(94,-1,l),
(144,699,l),
(145,699,l),
(446,82,l),
(447,82,l),
(768,699,l),
(769,699,l),
(799,0,l)
);
}
);
width = 893;
}
);
metricLeft = H;
metricRight = H;
},
{
export = 0;
glyphname = N.ss04;
kernLeft = H;
kernRight = H;
lastChange = "2024-06-17 14:29:45 +0000";
layers = (
{
anchors = (
{
name = bottom;
pos = (308,0);
},
{
name = top;
pos = (308,650);
}
);
background = {
shapes = (
{
closed = 0;
nodes = (
(525,700,l),
(501,0,l),
(110,699,l),
(89,112,ls),
(86,29,o),
(62,0,o),
(-7,0,c)
);
}
);
};
layerId = "6F9C6BB4-2DCF-443B-A55D-9CE049090094";
shapes = (
{
attr = {
lineCapEnd = 1;
lineCapStart = 1;
};
closed = 0;
nodes = (
(520,700,l),
(508,0,l),
(507,0,l),
(109,699,l),
(108,699,l),
(94,2,l)
);
}
);
width = 614;
}
);
metricLeft = H;
metricRight = H;
},
{
export = 0;
glyphname = O.ss04;
kernLeft = O;
kernRight = O;
lastChange = "2024-05-27 08:27:03 +0000";
layers = (
{
anchors = (
{
name = bottom;
pos = (338,0);
},
{
name = center;
pos = (338,350);
},
{
name = ogonek;
pos = (633,10);
},
{
name = top;
pos = (358,650);
},
{
name = topleft;
pos = (-12,700);
},
{
name = topright;
pos = (687,700);
}
);
background = {
shapes = (
{
closed = 0;
nodes = (
(172,170,l),
(131,170,o),
(88,203,o),
(82,265,cs),
(65,463,o),
(167,700,o),
(365,700,cs),
(514,700,o),
(592,578,o),
(604,435,cs),
(621,237,o),
(514,0,o),
(310,0,cs),
(232,0,o),
(170,30,o),
(131,77,c)
);
}
);
};
layerId = "6F9C6BB4-2DCF-443B-A55D-9CE049090094";
shapes = (
{
attr = {
lineCapEnd = 1;
lineCapStart = 1;
};
closed = 0;
nodes = (
(359,700,l),
(515,700,o),
(602,565,o),
(605,394,cs),
(609,205,o),
(506,0,o),
(316,0,cs),
(160,0,o),
(73,135,o),
(70,306,cs),
(66,495,o),
(169,700,o),
(359,700,c)
);
}
);
width = 675;
}
);
},
{
export = 0;
glyphname = Oslash.ss04;
kernLeft = O;
kernRight = O;
lastChange = "2024-06-17 14:29:45 +0000";
layers = (
{
layerId = "6F9C6BB4-2DCF-443B-A55D-9CE049090094";
shapes = (
{
pos = (40,0);
ref = O;
},
{
attr = {
identifier = ID0x7fadb183f0a0;
lineCapEnd = "1";
lineCapStart = "1";
};
closed = 0;
nodes = (
(677,700,l),
(77,0,l)
);
}
);
width = 754;
}
);
metricLeft = O;
metricRight = O;
},
{
export = 0;
glyphname = OE.ss04;
kernLeft = O;
kernRight = E;
lastChange = "2024-06-17 14:29:45 +0000";
layers = (
{
anchors = (
{
name = bottom;
pos = (394,0);
},
{
name = center;
pos = (394,350);
},
{
name = ogonek;
pos = (689,10);
},
{
name = top;
pos = (394,650);
},
{
name = topleft;
pos = (44,700);
},
{
name = topright;
pos = (743,700);
}
);
background = {
shapes = (
{
attr = {
identifier = ID0x7fadae80b090;
lineCapEnd = 1;
lineCapStart = 1;
};
closed = 0;
nodes = (
(775,0,l),
(481,0,l),
(495,700,l),
(778,700,l)
);
},
{
attr = {
identifier = ID0x7fadae80b090;
lineCapEnd = 1;
lineCapStart = 1;
};
closed = 0;
nodes = (
(488,344,l),
(742,344,l)
);
},
{
attr = {
identifier = ID0x7fe542542670;
lineCapEnd = 1;
lineCapStart = 1;
};
closed = 1;
nodes = (
(522,700,o),
(609,565,o),
(612,394,cs),
(616,205,o),
(513,0,o),
(323,0,cs),
(167,0,o),
(80,135,o),
(77,306,cs),
(73,495,o),
(176,700,o),
(366,700,cs)
);
}
);
};
layerId = "6F9C6BB4-2DCF-443B-A55D-9CE049090094";
shapes = (
{
attr = {
identifier = ID0x7fe542542670;
lineCapEnd = 1;
lineCapStart = 1;
};
closed = 0;
nodes = (
(483,60,l),
(440,23,o),
(386,0,o),
(323,0,cs),
(167,0,o),
(80,135,o),
(77,306,cs),
(73,495,o),
(176,700,o),
(366,700,cs),
(416,700,o),
(460,686,o),
(495,661,c)
);
},
{
attr = {
identifier = ID0x7fadae80b090;
lineCapEnd = "1";
lineCapStart = "1";
};
closed = 0;
nodes = (
(775,0,l),
(481,0,l),
(495,700,l),
(778,700,l)
);
},
{
attr = {
identifier = ID0x7fadae80b090;
lineCapEnd = "1";
lineCapStart = "1";
};
closed = 0;
nodes = (
(488,344,l),
(742,344,l)
);
}
);
width = 871;
}
);
metricLeft = O;
metricRight = E;
},
{
export = 0;
glyphname = P.ss04;
kernLeft = H;
kernRight = F;
lastChange = "2024-06-17 14:29:45 +0000";
layers = (
{
background = {
shapes = (
{
pos = (27,0);
ref = B;
}
);
};
layerId = "6F9C6BB4-2DCF-443B-A55D-9CE049090094";
shapes = (
{
attr = {
lineCapEnd = 1;
lineCapStart = 1;
};
closed = 0;
nodes = (
(94,-1,l),
(109,700,l),
(276,700,l),
(389,700,o),
(448,646,o),
(448,543,cs),
(448,402,o),
(319,304,o),
(105,304,c)
);
}
);
width = 528;
}
);
metricLeft = H;
},
{
export = 0;
glyphname = Thorn.ss04;
kernLeft = H;
kernRight = Thorn;
lastChange = "2024-06-17 14:29:45 +0000";
layers = (
{
layerId = "6F9C6BB4-2DCF-443B-A55D-9CE049090094";
shapes = (
{
attr = {
identifier = ID0x7fadab497160;
lineCapEnd = 1;
lineCapStart = 1;
};
closed = 0;
nodes = (
(94,-1,l),
(109,700,l)
);
},
{
attr = {
identifier = ID0x7fadab497160;
lineCapEnd = 1;
lineCapStart = 1;
};
closed = 0;
nodes = (
(109,560,l),
(276,560,ls),
(389,560,o),
(448,506,o),
(448,403,cs),
(448,262,o),
(319,164,o),
(105,164,c)
);
}
);
width = 520;
}
);
metricLeft = H;
metricRight = P;
},
{
export = 0;
glyphname = Q.ss04;
kernLeft = O;
kernRight = Q;
lastChange = "2024-06-17 14:29:45 +0000";
layers = (
{
background = {
shapes = (
{
closed = 0;
nodes = (
(529,500,l),
(595,500,o),
(625,449,o),
(625,383,cs),
(625,226,o),
(521,0,o),
(346,0,cs),
(190,0,o),
(105,135,o),
(105,306,cs),
(105,495,o),
(211,700,o),
(401,700,cs),
(479,700,o),
(541,670,o),
(580,623,cs)
);
}
);
};
layerId = "6F9C6BB4-2DCF-443B-A55D-9CE049090094";
shapes = (
{
attr = {
lineCapEnd = 1;
lineCapStart = 1;
};
closed = 0;
nodes = (
(390,183,l),
(642,-58,l)
);
},
{
ref = O;
}
);
width = 692;
}
);
metricLeft = O;
},
{
export = 0;
glyphname = R.ss04;
kernLeft = H;
kernRight = R;
lastChange = "2024-06-17 14:29:45 +0000";
layers = (
{
background = {
shapes = (
{
pos = (27,0);
ref = B;
}
);
};
layerId = "6F9C6BB4-2DCF-443B-A55D-9CE049090094";
shapes = (
{
attr = {
lineCapEnd = 1;
lineCapStart = 1;
};
closed = 0;
nodes = (
(94,0,l),
(109,700,l),
(281,700,l),
(381,700,o),
(449,661,o),
(449,569,cs),
(449,428,o),
(335,338,o),
(106,338,c)
);
},
{
attr = {
lineCapEnd = 1;
lineCapStart = 1;
};
closed = 0;
nodes = (
(113,338,l),
(468,0,l)
);
}
);
width = 518;
}
);
metricLeft = H;
},
{
export = 0;
glyphname = S.ss04;
kernLeft = S;
kernRight = B;
lastChange = "2024-05-27 08:27:03 +0000";
layers = (
{
background = {
shapes = (
{
attr = {
lineCapEnd = 1;
lineCapStart = 1;
};
closed = 0;
nodes = (
(80,31,l),
(107,12,o),
(155,0,o),
(206,0,cs),
(309,0,o),
(426,49,o),
(423,188,cs),
(421,274,o),
(340,321,o),
(258,367,cs),
(180,411,o),
(97,464,o),
(97,556,cs),
(97,648,o),
(184,699,o),
(276,699,cs),
(319,699,o),
(363,688,o),
(400,664,cs)
);
}
);
};
hints = (
{
horizontal = 1;
origin = (0,0);
settings = {
deltaV = {
"{100, 100, 0, 0, 0, 0}" = {
"62" = 0;
};
};
};
type = TTDelta;
},
{
horizontal = 1;
origin = (0,0);
settings = {
deltaV = {
"{100, 100, 0, 0, 0, 0}" = {
"62" = 0;
};
};
};
type = TTDelta;
},
{
horizontal = 1;
origin = (0,0);
settings = {
deltaV = {
"{100, 100, 0, 0, 0, 0}" = {
"62" = 0;
};
};
};
type = TTDelta;
},
{
horizontal = 1;
origin = (0,3);
settings = {
deltaV = {
"{100, 100, 0, 0, 0, 0}" = {
"62" = 0;
};
};
};
type = TTDelta;
},
{
horizontal = 1;
origin = (0,6);
settings = {
deltaV = {
"{100, 100, 0, 0, 0, 0}" = {
"62" = 0;
};
};
};
type = TTDelta;
},
{
horizontal = 1;
origin = (0,6);
settings = {
deltaV = {
"{100, 100, 0, 0, 0, 0}" = {
"62" = 0;
};
};
};
type = TTDelta;
},
{
horizontal = 1;
origin = (0,6);
settings = {
deltaV = {
"{100, 100, 0, 0, 0, 0}" = {
"62" = 0;
};
};
};
type = TTDelta;
},
{
horizontal = 1;
origin = (0,9);
settings = {
deltaV = {
"{100, 100, 0, 0, 0, 0}" = {
"62" = 0;
};
};
};
type = TTDelta;
},
{
horizontal = 1;
origin = (0,9);
settings = {
deltaV = {
"{100, 100, 0, 0, 0, 0}" = {
"62" = 0;
};
};
};
type = TTDelta;
},
{
horizontal = 1;
origin = (0,9);
settings = {
deltaV = {
"{100, 100, 0, 0, 0, 0}" = {
"62" = 0;
};
};
};
type = TTDelta;
},
{
horizontal = 1;
origin = (0,9);
settings = {
deltaV = {
"{100, 100, 0, 0, 0, 0}" = {
"62" = 0;
};
};
};
type = TTDelta;
},
{
horizontal = 1;
origin = (0,9);
settings = {
deltaV = {
"{100, 100, 0, 0, 0, 0}" = {
"62" = 0;
};
};
};
type = TTDelta;
},
{
horizontal = 1;
origin = (0,9);
settings = {
deltaV = {
"{100, 100, 0, 0, 0, 0}" = {
"62" = 0;
};
};
};
type = TTDelta;
}
);
layerId = "6F9C6BB4-2DCF-443B-A55D-9CE049090094";
shapes = (
{
attr = {
lineCapEnd = 1;
lineCapStart = 1;
};
closed = 0;
nodes = (
(80,31,l),
(171,-27,o),
(427,-20,o),
(423,188,cs),
(419,364,o),
(97,368,o),
(97,556,cs),
(97,693,o),
(287,737,o),
(400,664,cs)
);
}
);
width = 503;
}
);
},
{
export = 0;
glyphname = Germandbls.ss04;
kernLeft = H;
kernRight = S;
lastChange = "2024-06-17 14:29:45 +0000";
layers = (
{
hints = (
{
horizontal = 1;
settings = {
deltaV = {
"{100, 100, 0, 0, 0, 0}" = {
"62" = 0;
};
};
};
type = TTDelta;
},
{
horizontal = 1;
settings = {
deltaV = {
"{100, 100, 0, 0, 0, 0}" = {
"62" = 0;
};
};
};
type = TTDelta;
},
{
horizontal = 1;
settings = {
deltaV = {
"{100, 100, 0, 0, 0, 0}" = {
"62" = 0;
};
};
};
type = TTDelta;
},
{
horizontal = 1;
settings = {
deltaV = {
"{100, 100, 0, 0, 0, 0}" = {
"62" = 0;
};
};
};
type = TTDelta;
},
{
horizontal = 1;
settings = {
deltaV = {
"{100, 100, 0, 0, 0, 0}" = {
"62" = 0;
};
};
};
type = TTDelta;
},
{
horizontal = 1;
settings = {
deltaV = {
"{100, 100, 0, 0, 0, 0}" = {
"62" = 0;
};
};
};
type = TTDelta;
},
{
horizontal = 1;
settings = {
deltaV = {
"{100, 100, 0, 0, 0, 0}" = {
"62" = 0;
};
};
};
type = TTDelta;
},
{
horizontal = 1;
settings = {
deltaV = {
"{100, 100, 0, 0, 0, 0}" = {
"62" = 0;
};
};
};
type = TTDelta;
},
{
horizontal = 1;
settings = {
deltaV = {
"{100, 100, 0, 0, 0, 0}" = {
"62" = 0;
};
};
};
type = TTDelta;
},
{
horizontal = 1;
settings = {
deltaV = {
"{100, 100, 0, 0, 0, 0}" = {
"62" = 0;
};
};
};
type = TTDelta;
},
{
horizontal = 1;
settings = {
deltaV = {
"{100, 100, 0, 0, 0, 0}" = {
"62" = 0;
};
};
};
type = TTDelta;
},
{
horizontal = 1;
settings = {
deltaV = {
"{100, 100, 0, 0, 0, 0}" = {
"62" = 0;
};
};
};
type = TTDelta;
},
{
horizontal = 1;
settings = {
deltaV = {
"{100, 100, 0, 0, 0, 0}" = {
"62" = 0;
};
};
};
type = TTDelta;
}
);
layerId = "6F9C6BB4-2DCF-443B-A55D-9CE049090094";
shapes = (
{
attr = {
identifier = ID0x7fadb0841000;
lineCapEnd = "1";
lineCapStart = "1";
};
closed = 0;
nodes = (
(254,25,l),
(329,-22,o),
(539,-16,o),
(535,154,cs),
(532,298,o),
(268,301,o),
(268,455,cs),
(268,567,o),
(395,625,o),
(514,700,c),
(107,700,l),
(94,0,l)
);
}
);
width = 607;
}
);
metricLeft = H;
metricRight = S;
},
{
export = 0;
glyphname = T.ss04;
kernLeft = T;
kernRight = T;
lastChange = "2024-05-27 08:27:03 +0000";
layers = (
{
background = {
shapes = (
{
closed = 0;
nodes = (
(76,634,l),
(56,692,o),
(104,709,o),
(145,709,cs),
(257,709,o),
(391,690,o),
(485,690,cs),
(526,690,o),
(574,707,o),
(554,765,c)
);
},
{
closed = 0;
nodes = (
(350,700,l),
(325,0,l)
);
}
);
};
layerId = "6F9C6BB4-2DCF-443B-A55D-9CE049090094";
shapes = (
{
attr = {
lineCapEnd = 1;
lineCapStart = 1;
};
closed = 0;
nodes = (
(290,700,l),
(277,0,l)
);
},
{
attr = {
lineCapEnd = 1;
lineCapStart = 1;
};
closed = 0;
nodes = (
(10,701,l),
(550,700,l)
);
}
);
width = 560;
}
);
},
{
export = 0;
glyphname = U.ss04;
kernLeft = U;
kernRight = U;
lastChange = "2024-05-27 08:27:03 +0000";
layers = (
{
anchors = (
{
name = bottom;
pos = (313,0);
},
{
name = ogonek;
pos = (583,10);
},
{
name = top;
pos = (313,650);
},
{
name = topright;
pos = (631,700);
}
);
layerId = "6F9C6BB4-2DCF-443B-A55D-9CE049090094";
shapes = (
{
attr = {
lineCapEnd = 1;
lineCapStart = 1;
};
closed = 0;
nodes = (
(110,700,l),
(100,220,ls),
(96,89,o),
(171,0,o),
(298,0,cs),
(422,0,o),
(515,87,o),
(518,220,cs),
(529,700,l)
);
}
);
width = 629;
}
);
},
{
export = 0;
glyphname = V.ss04;
kernLeft = V;
kernRight = V;
lastChange = "2024-05-27 08:27:03 +0000";
layers = (
{
background = {
shapes = (
{
pos = (-44,0);
ref = U;
}
);
};
layerId = "6F9C6BB4-2DCF-443B-A55D-9CE049090094";
shapes = (
{
attr = {
lineCapEnd = 1;
lineCapStart = 1;
};
closed = 0;
nodes = (
(41,700,l),
(270,1,l),
(271,1,l),
(522,700,ls)
);
}
);
width = 562;
}
);
},
{
export = 0;
glyphname = W.ss04;
kernLeft = V;
kernRight = V;
lastChange = "2024-06-17 14:29:45 +0000";
layers = (
{
anchors = (
{
name = bottom;
pos = (532,0);
},
{
name = top;
pos = (532,650);
}
);
background = {
shapes = (
{
attr = {
lineCapEnd = "1";
lineCapStart = "1";
};
closed = 0;
nodes = (
(67,700,l),
(297,0,l),
(67,700,l)
);
}
);
};
layerId = "6F9C6BB4-2DCF-443B-A55D-9CE049090094";
shapes = (
{
attr = {
lineCapEnd = "1";
lineCapStart = "1";
};
closed = 0;
nodes = (
(997,700,ls),
(747,0,l),
(532,700,l),
(297,0,l),
(67,700,l)
);
}
);
width = 1064;
}
);
metricLeft = V;
metricRight = V;
},
{
export = 0;
glyphname = X.ss04;
kernLeft = X;
kernRight = X;
lastChange = "2024-05-27 08:27:03 +0000";
layers = (
{
background = {
shapes = (
{
closed = 0;
nodes = (
(-30,320,l),
(487,320,l)
);
},
{
closed = 0;
nodes = (
(701,230,l),
(639,83,o),
(545,0,o),
(510,0,cs),
(477,0,o),
(476,38,o),
(479,119,cs),
(501,700,l)
);
},
{
pos = (-64,0);
ref = baston.caps;
}
);
};
layerId = "6F9C6BB4-2DCF-443B-A55D-9CE049090094";
shapes = (
{
attr = {
lineCapEnd = 1;
lineCapStart = 1;
};
closed = 0;
nodes = (
(40,0,l),
(521,700,l)
);
},
{
attr = {
lineCapEnd = 1;
lineCapStart = 1;
};
closed = 0;
nodes = (
(506,0,l),
(60,700,l)
);
}
);
width = 561;
}
);
},
{
export = 0;
glyphname = Y.ss04;
kernLeft = Y;
kernRight = Y;
lastChange = "2024-05-27 08:27:03 +0000";
layers = (
{
anchors = (
{
name = bottom;
pos = (273,0);
},
{
name = top;
pos = (273,650);
},
{
name = topleft;
pos = (20,700);
}
);
layerId = "6F9C6BB4-2DCF-443B-A55D-9CE049090094";
shapes = (
{
attr = {
lineCapEnd = 1;
lineCapStart = 1;
};
closed = 0;
nodes = (
(506,700,l),
(256,300,l)
);
},
{
attr = {
lineCapEnd = 1;
lineCapStart = 1;
};
closed = 0;
nodes = (
(40,700,l),
(256,300,l),
(251,0,l)
);
}
);
width = 546;
}
);
},
{
export = 0;
glyphname = Z.ss04;
kernLeft = Z;
kernRight = Z;
lastChange = "2024-05-27 08:27:03 +0000";
layers = (
{
background = {
shapes = (
{
closed = 0;
nodes = (
(650,230,l),
(588,83,o),
(495,-4,o),
(459,-4,cs),
(413,-4,o),
(348,6,o),
(274,6,cs),
(201,6,o),
(131,6,o),
(52,0,c)
);
},
{
closed = 0;
nodes = (
(620,740,l),
(22,-40,l)
);
},
{
closed = 0;
nodes = (
(119,700,l),
(222,686,o),
(424,688,o),
(590,700,c)
);
}
);
};
layerId = "6F9C6BB4-2DCF-443B-A55D-9CE049090094";
shapes = (
{
attr = {
lineCapEnd = 1;
lineCapStart = 1;
};
closed = 0;
nodes = (
(500,695,l),
(40,4,l)
);
},
{
attr = {
lineCapEnd = 1;
lineCapStart = 1;
};
closed = 0;
nodes = (
(50,700,l),
(500,700,l)
);
},
{
attr = {
lineCapEnd = 1;
lineCapStart = 1;
};
closed = 0;
nodes = (
(40,0,l),
(490,0,l)
);
}
);
width = 540;
}
);
},
{
glyphname = adieresis;
lastChange = "2024-06-17 10:47:05 +0000";
layers = (
{
layerId = "6F9C6BB4-2DCF-443B-A55D-9CE049090094";
shapes = (
{
ref = a;
},
{
pos = (198,0);
ref = dieresiscomb;
},
{
closed = 0;
nodes = (
(2432,-1183,l)
);
}
);
width = 561;
}
);
unicode = 228;
},
{
glyphname = eth;
lastChange = "2024-05-27 08:27:03 +0000";
layers = (
{
layerId = "6F9C6BB4-2DCF-443B-A55D-9CE049090094";
shapes = (
{
ref = d;
},
{
closed = 0;
nodes = (
(196,553,l),
(552,553,l)
);
}
);
width = 551;
}
);
unicode = 240;
},
{
glyphname = e;
kernLeft = e;
kernRight = e;
lastChange = "2024-06-17 12:24:58 +0000";
layers = (
{
anchors = (
{
name = bottom;
pos = (155,0);
},
{
name = ogonek;
pos = (279,10);
}
);
background = {
shapes = (
{
closed = 0;
nodes = (
(195,364,ls),
(138,364,o),
(99,289,o),
(99,207,cs),
(99,76,o),
(201,-5,o),
(298,-5,cs)
);
}
);
};
guides = (
{
pos = (156,364);
}
);
layerId = "6F9C6BB4-2DCF-443B-A55D-9CE049090094";
shapes = (
{
ref = _conect.right.e;
},
{
pos = (206,0);
ref = _e.master;
}
);
width = 361;
}
);
unicode = 101;
},
{
glyphname = f;
kernLeft = l;
kernRight = g;
lastChange = "2024-06-17 12:25:15 +0000";
layers = (
{
background = {
shapes = (
{
attr = {
identifier = ID0x7f82cd9921d0;
lineCapEnd = "1";
lineCapStart = "1";
};
closed = 0;
nodes = (
(189,160,l),
(213,49,o),
(232,-70,o),
(223,-203,cs),
(217,-296,o),
(182,-373,o),
(129,-373,cs),
(93,-373,o),
(54,-332,o),
(67,-241,cs),
(83,-126,o),
(176,-104,o),
(339,0,c)
);
},
{
pos = (181,0);
ref = _bucle.ascendente;
},
{
ref = _f.master;
}
);
};
layerId = "6F9C6BB4-2DCF-443B-A55D-9CE049090094";
shapes = (
{
ref = _conect.left.ascendente;
},
{
pos = (182,0);
ref = _f.master;
}
);
width = 327;
}
);
unicode = 102;
},
{
glyphname = idotless;
kernLeft = a;
lastChange = "2024-06-17 11:40:38 +0000";
layers = (
{
anchors = (
{
name = bottom;
pos = (4,0);
},
{
name = ogonek;
pos = (101,0);
},
{
name = top;
pos = (0,360);
}
);
background = {
shapes = (
{
attr = {
identifier = ID0x7ff0482cad10;
lineCapEnd = 1;
lineCapStart = 1;
};
closed = 0;
nodes = (
(-6,360,l),
(-20,267,o),
(-46,180,o),
(-46,180,cs)
);
},
{
attr = {
identifier = ID0x7f8325d1efa0;
lineCapEnd = "1";
lineCapStart = "1";
};
closed = 0;
nodes = (
(-3,360,l),
(-3,150,ls)
);
}
);
};
layerId = "6F9C6BB4-2DCF-443B-A55D-9CE049090094";
shapes = (
{
alignment = -1;
ref = _conect.right;
},
{
attr = {
identifier = ID0x7fe6d54b4b70;
lineCapEnd = "1";
lineCapStart = "1";
};
closed = 0;
nodes = (
(0,360,l),
(0,150,l)
);
}
);
width = 120;
}
);
unicode = 305;
},
{
glyphname = oslash;
lastChange = "2024-05-27 08:27:03 +0000";
layers = (
{
layerId = "6F9C6BB4-2DCF-443B-A55D-9CE049090094";
shapes = (
{
ref = o;
},
{
attr = {
identifier = ID0x7fb6629fdce0;
lineCapEnd = "1";
lineCapStart = "1";
};
closed = 0;
nodes = (
(482,550,l),
(128,-150,l)
);
}
);
width = 502;
}
);
unicode = 248;
},
{
glyphname = oe;
lastChange = "2024-06-14 13:01:32 +0000";
layers = (
{
anchors = (
{
name = bottom;
pos = (250,0);
},
{
name = center;
pos = (250,180);
},
{
name = ogonek;
pos = (450,10);
},
{
name = top;
pos = (313,360);
},
{
name = topright;
pos = (480,360);
}
);
background = {
shapes = (
{
closed = 0;
nodes = (
(348,359,l),
(338,362,o),
(326,364,o),
(314,364,cs),
(218,364,o),
(160,286,o),
(160,178,cs),
(160,86,o),
(214,-6,o),
(314,-6,cs),
(389,-6,o),
(464,61,o),
(464,180,cs),
(464,346,o),
(301,423,o),
(301,295,cs),
(301,174,o),
(405,112,o),
(501,140,c),
(712,158,o),
(754,364,o),
(639,364,cs),
(582,364,o),
(501,304,o),
(501,175,cs),
(501,59,o),
(592,-5,o),
(697,-5,c)
);
}
);
};
layerId = "6F9C6BB4-2DCF-443B-A55D-9CE049090094";
shapes = (
{
ref = _conect.from.base.long;
},
{
pos = (222,0);
ref = _or.master;
}
);
width = 727;
}
);
unicode = 339;
},
{
glyphname = thorn;
lastChange = "2024-05-27 08:27:03 +0000";
layers = (
{
layerId = "6F9C6BB4-2DCF-443B-A55D-9CE049090094";
shapes = (
{
ref = _conect.left.long;
},
{
alignment = -1;
pos = (186,0);
ref = _arco3;
},
{
attr = {
identifier = ID0x7fb6623a3b60;
lineCapEnd = "1";
lineCapStart = "1";
};
closed = 0;
nodes = (
(186,725,l),
(186,-370,l)
);
},
{
pos = (420,0);
ref = _conect.right;
}
);
width = 540;
}
);
unicode = 254;
},
{
glyphname = s;
kernLeft = a;
kernRight = s;
lastChange = "2024-06-14 12:26:35 +0000";
layers = (
{
background = {
shapes = (
{
closed = 0;
nodes = (
(499,-5,l),
(465,-5,o),
(411,0,o),
(387,2,c)
);
}
);
};
layerId = "6F9C6BB4-2DCF-443B-A55D-9CE049090094";
shapes = (
{
ref = _entra_s;
},
{
pos = (236,0);
ref = _s.master;
}
);
width = 501;
}
);
unicode = 115;
},
{
glyphname = germandbls;
lastChange = "2024-05-27 13:23:13 +0000";
layers = (
{
anchors = (
{
name = bottom;
pos = (144,0);
},
{
name = center;
pos = (144,180);
},
{
name = top;
pos = (144,360);
},
{
name = topright;
pos = (267,710);
}
);
background = {
shapes = (
{
pos = (60,0);
ref = _entra_s;
},
{
pos = (296,0);
ref = _s.master;
},
{
attr = {
identifier = ID0x7f7bd5659180;
lineCapEnd = "1";
lineCapStart = "1";
};
closed = 0;
nodes = (
(434,6,l),
(466,-1,o),
(500,-5,o),
(554,-5,c)
);
}
);
};
layerId = "6F9C6BB4-2DCF-443B-A55D-9CE049090094";
shapes = (
{
ref = _conect.left.long;
},
{
closed = 0;
nodes = (
(176,-173,l),
(192,700,l)
);
},
{
attr = {
identifier = ID0x7fadae4621b0;
lineCapEnd = 1;
lineCapStart = 1;
};
closed = 0;
nodes = (
(180,61,l),
(180,235,o),
(247,699,o),
(409,699,cs),
(547,699,o),
(500,350,o),
(281,360,c),
(637,387,o),
(587,-79,o),
(323,21,c)
);
},
{
attr = {
identifier = ID0x7f7bd5659180;
lineCapEnd = "1";
lineCapStart = "1";
};
closed = 0;
nodes = (
(384,7,l),
(416,0,o),
(465,-5,o),
(535,-5,c)
);
}
);
width = 535;
}
);
unicode = 223;
},
{
glyphname = saltillo;
lastChange = "2024-05-27 08:27:03 +0000";
layers = (
{
anchors = (
{
name = top;
pos = (162,580);
}
);
layerId = "6F9C6BB4-2DCF-443B-A55D-9CE049090094";
shapes = (
{
attr = {
identifier = ID0x7fb6623c2950;
lineCapEnd = 1;
lineCapStart = 1;
};
closed = 0;
nodes = (
(107,227,l),
(222,335,o),
(218,484,o),
(177,553,c)
);
}
);
width = 312;
}
);
unicode = 42892;
},
{
glyphname = a.fina;
lastChange = "2024-06-14 09:09:27 +0000";
layers = (
{
background = {
shapes = (
{
ref = _conect.left;
},
{
pos = (158,0);
ref = _a.master;
},
{
attr = {
identifier = ID0x7fdbcbec0790;
lineCapEnd = "1";
lineCapStart = "1";
};
closed = 0;
nodes = (
(429,150,l),
(429,16,o),
(479,-5,o),
(530,-5,cs),
(560,-5,o),
(578,14,o),
(600,51,c)
);
}
);
};
layerId = "6F9C6BB4-2DCF-443B-A55D-9CE049090094";
shapes = (
{
ref = a;
},
{
pos = (561,0);
ref = _final;
}
);
width = 627;
}
);
},
{
color = 11;
glyphname = e.from.bottom;
kernLeft = e;
kernRight = e;
lastChange = "2024-06-17 14:47:00 +0000";
layers = (
{
anchors = (
{
name = bottom;
pos = (182,0);
},
{
name = ogonek;
pos = (318,10);
},
{
name = top;
pos = (228,360);
}
);
background = {
shapes = (
{
attr = {
identifier = ID0x7f80f006cfb0;
lineCapEnd = "1";
lineCapStart = "1";
};
closed = 0;
nodes = (
(-103,360,l),
(-103,-129,ls),
(-103,-310,o),
(-120,-373,o),
(-172,-373,cs),
(-222,-373,o),
(-242,-330,o),
(-242,-278,cs),
(-242,-117,o),
(-127,-99,o),
(0,0,c),
(108,45,o),
(297,121,o),
(297,274,cs),
(297,326,o),
(270,364,o),
(218,364,cs),
(164,364,o),
(130,297,o),
(130,221,cs),
(130,117,o),
(192,-5,o),
(352,-5,cs)
);
}
);
};
layerId = "6F9C6BB4-2DCF-443B-A55D-9CE049090094";
shapes = (
{
attr = {
identifier = ID0x7f80f006cfb0;
lineCapEnd = "1";
lineCapStart = "1";
};
closed = 0;
nodes = (
(0,0,l),
(35,28,o),
(100,73,o),
(149,110,c)
);
},
{
attr = {
identifier = ID0x7f80f006cfb0;
lineCapEnd = "1";
lineCapStart = "1";
};
closed = 0;
nodes = (
(153,107,l),
(238,145,o),
(300,203,o),
(300,280,cs),
(300,329,o),
(275,364,o),
(219,364,cs),
(164,364,o),
(126,305,o),
(126,227,cs),
(126,124,o),
(172,-5,o),
(353,-5,cs)
);
}
);
width = 353;
}
);
},
{
color = 11;
glyphname = s.from.bottom;
lastChange = "2024-06-14 12:26:30 +0000";
layers = (
{
background = {
shapes = (
{
attr = {
lineCapEnd = "1";
lineCapStart = "1";
};
closed = 0;
nodes = (
(190,20,l),
(238,-5,o),
(353,-15,o),
(430,-5,cs),
(505,5,o),
(548,58,o),
(588,180,c)
);
}
);
};
layerId = "6F9C6BB4-2DCF-443B-A55D-9CE049090094";
shapes = (
{
ref = _conect.from.bottom.long;
},
{
pos = (206,0);
ref = _s.master;
}
);
width = 471;
}
);
},
{
glyphname = e.from.middle;
kernLeft = e;
kernRight = e;
lastChange = "2024-06-17 14:47:00 +0000";
layers = (
{
anchors = (
{
name = bottom;
pos = (165,0);
},
{
name = ogonek;
pos = (280,10);
},
{
name = top;
pos = (225,360);
}
);
background = {
shapes = (
{
closed = 0;
nodes = (
(309,-5,ls),
(298,-7,o),
(287,-7,o),
(277,-7,cs),
(52,-7,o),
(69,363,o),
(241,363,cs),
(276,363,o),
(308,332,o),
(308,274,cs),
(308,160,o),
(185,112,o),
(20,112,cs),
(-76,112,o),
(-181,174,o),
(-181,295,cs)
);
}
);
};
layerId = "6F9C6BB4-2DCF-443B-A55D-9CE049090094";
shapes = (
{
closed = 0;
nodes = (
(329,-5,l),
(167,-5,o),
(106,99,o),
(106,196,cs),
(106,299,o),
(151,363,o),
(223,363,cs),
(281,363,o),
(304,326,o),
(304,274,cs),
(304,162,o),
(149,90,o),
(0,90,c)
);
}
);
width = 329;
}
);
},
{
glyphname = e.from.top;
kernLeft = e;
kernRight = e;
lastChange = "2024-06-17 14:47:00 +0000";
layers = (
{
anchors = (
{
name = bottom;
pos = (129,0);
},
{
name = ogonek;
pos = (215,10);
},
{
name = top;
pos = (163,360);
}
);
background = {
shapes = (
{
closed = 0;
nodes = (
(20,218,l),
(224,218,o),
(258,266,o),
(258,318,cs),
(258,397,o),
(51,400,o),
(51,175,cs),
(51,59,o),
(142,-5,o),
(247,-5,c)
);
}
);
};
guides = (
{
pos = (176,364);
}
);
layerId = "6F9C6BB4-2DCF-443B-A55D-9CE049090094";
shapes = (
{
closed = 0;
nodes = (
(0,218,l),
(15,218,o),
(42,218,o),
(55,219,c),
(84,212,o),
(110,209,o),
(132,209,cs),
(214,209,o),
(259,265,o),
(259,310,cs),
(259,341,o),
(238,367,o),
(192,367,cs),
(131,367,o),
(51,315,o),
(51,175,cs),
(51,59,o),
(142,-5,o),
(247,-5,c)
);
}
);
width = 241;
}
);
},
{
glyphname = s.from.top;
lastChange = "2024-06-14 12:26:30 +0000";
layers = (
{
background = {
shapes = (
{
attr = {
lineCapEnd = "1";
lineCapStart = "1";
};
closed = 0;
nodes = (
(48,29,l),
(147,-14,o),
(375,-59,o),
(440,180,c)
);
}
);
};
layerId = "6F9C6BB4-2DCF-443B-A55D-9CE049090094";
shapes = (
{
ref = _conect.from.top.i;
},
{
pos = (68,0);
ref = _s.master;
}
);
width = 333;
}
);
metricRight = a;
},
{
glyphname = c.from.bottom.fina;
lastChange = "2024-06-17 13:17:07 +0000";
layers = (
{
background = {
shapes = (
{
attr = {
identifier = ID0x7fba9c16c3a0;
lineCapEnd = "1";
lineCapStart = "1";
};
closed = 0;
nodes = (
(363,344,l),
(344,355,o),
(320,363,o),
(295,363,cs),
(203,363,o),
(160,272,o),
(160,177,cs),
(160,50,o),
(259,-5,o),
(349,-5,cs),
(407,-5,o),
(462,17,o),
(485,58,c)
);
}
);
};
layerId = "6F9C6BB4-2DCF-443B-A55D-9CE049090094";
shapes = (
{
ref = _conect.from.bottom;
},
{
pos = (160,0);
ref = _c.fina.master;
},
{
pos = (348,0);
ref = _final.base.long;
}
);
width = 444;
}
);
},
{
glyphname = x.from.base.long.fina;
lastChange = "2024-06-17 12:33:43 +0000";
layers = (
{
background = {
shapes = (
{
ref = _conect.from.base.long.to.arco;
},
{
closed = 0;
nodes = (
(379,360,l),
(457,360,o),
(522,299,o),
(522,179,cs),
(522,48,o),
(451,-5,o),
(345,-5,c)
);
},
{
pos = (522,0);
ref = _c.fina.master;
}
);
};
layerId = "6F9C6BB4-2DCF-443B-A55D-9CE049090094";
shapes = (
{
ref = _conect.from.base.long.to.arco;
},
{
pos = (380,0);
ref = _x.master;
},
{
pos = (710,0);
ref = _final.base.long;
}
);
width = 806;
}
);
},
{
glyphname = zero;
lastChange = "2024-06-17 14:31:37 +0000";
layers = (
{
background = {
shapes = (
{
attr = {
lineCapEnd = "1";
lineCapStart = "1";
strokeHeight = 45;
strokeWidth = 40;
};
closed = 1;
nodes = (
(14,495,o),
(117,700,o),
(307,700,cs),
(463,700,o),
(550,565,o),
(553,394,cs),
(557,205,o),
(454,0,o),
(264,0,cs),
(108,0,o),
(21,135,o),
(18,306,cs)
);
}
);
};
layerId = "6F9C6BB4-2DCF-443B-A55D-9CE049090094";
shapes = (
{
closed = 0;
nodes = (
(306,700,l),
(153,700,o),
(79,542,o),
(79,348,cs),
(79,153,o),
(153,-5,o),
(306,-5,cs),
(459,-5,o),
(533,153,o),
(533,348,cs),
(533,542,o),
(459,700,o),
(306,700,c)
);
}
);
width = 612;
}
);
unicode = 48;
},
{
glyphname = one;
lastChange = "2024-06-17 14:31:37 +0000";
layers = (
{
layerId = "6F9C6BB4-2DCF-443B-A55D-9CE049090094";
shapes = (
{
attr = {
identifier = ID0x7fea05ea0240;
lineCapEnd = 1;
lineCapStart = 1;
};
closed = 0;
nodes = (
(264,700,l),
(251,0,l)
);
},
{
attr = {
lineCapEnd = 1;
lineCapStart = 1;
};
closed = 0;
nodes = (
(67,420,l),
(137,503,o),
(202,598,o),
(262,700,c)
);
}
);
width = 358;
}
);
unicode = 49;
},
{
glyphname = two;
lastChange = "2024-06-17 14:31:37 +0000";
layers = (
{
hints = (
{
horizontal = 1;
origin = (0,10);
settings = {
deltaV = {
"{100, 100, 0, 0, 0, 0}" = {
"62" = 0;
};
};
};
type = TTDelta;
},
{
horizontal = 1;
origin = (0,10);
settings = {
deltaV = {
"{100, 100, 0, 0, 0, 0}" = {
"62" = 0;
};
};
};
type = TTDelta;
},
{
horizontal = 1;
origin = (0,10);
settings = {
deltaV = {
"{100, 100, 0, 0, 0, 0}" = {
"62" = 0;
};
};
};
type = TTDelta;
},
{
horizontal = 1;
origin = (0,10);
settings = {
deltaV = {
"{100, 100, 0, 0, 0, 0}" = {
"62" = 0;
};
};
};
type = TTDelta;
},
{
horizontal = 1;
origin = (0,6);
settings = {
deltaV = {
"{100, 100, 0, 0, 0, 0}" = {
"62" = 0;
};
};
};
type = TTDelta;
},
{
horizontal = 1;
origin = (0,6);
settings = {
deltaV = {
"{100, 100, 0, 0, 0, 0}" = {
"62" = 0;
};
};
};
type = TTDelta;
},
{
horizontal = 1;
origin = (0,6);
settings = {
deltaV = {
"{100, 100, 0, 0, 0, 0}" = {
"62" = 0;
};
};
};
type = TTDelta;
},
{
horizontal = 1;
origin = (0,0);
settings = {
deltaV = {
"{100, 100, 0, 0, 0, 0}" = {
"62" = 0;
};
};
};
type = TTDelta;
},
{
horizontal = 1;
origin = (0,0);
settings = {
deltaV = {
"{100, 100, 0, 0, 0, 0}" = {
"62" = 0;
};
};
};
type = TTDelta;
},
{
horizontal = 1;
origin = (0,0);
settings = {
deltaV = {
"{100, 100, 0, 0, 0, 0}" = {
"62" = 0;
};
};
};
type = TTDelta;
},
{
horizontal = 1;
origin = (0,0);
settings = {
deltaV = {
"{100, 100, 0, 0, 0, 0}" = {
"62" = 0;
};
};
};
type = TTDelta;
},
{
horizontal = 1;
origin = (0,0);
settings = {
deltaV = {
"{100, 100, 0, 0, 0, 0}" = {
"62" = 0;
};
};
};
type = TTDelta;
},
{
horizontal = 1;
origin = (0,0);
settings = {
deltaV = {
"{100, 100, 0, 0, 0, 0}" = {
"62" = 0;
};
};
};
type = TTDelta;
}
);
layerId = "6F9C6BB4-2DCF-443B-A55D-9CE049090094";
shapes = (
{
attr = {
identifier = ID0x7fea05e04080;
lineCapEnd = 1;
lineCapStart = 1;
};
closed = 0;
nodes = (
(91,664,l),
(128,688,o),
(202,699,o),
(245,699,cs),
(337,699,o),
(424,648,o),
(424,556,cs),
(424,450,o),
(365,362,o),
(199,161,cs),
(66,0,l),
(462,0,l)
);
}
);
width = 534;
}
);
unicode = 50;
},
{
glyphname = three;
lastChange = "2024-06-17 14:31:37 +0000";
layers = (
{
hints = (
{
horizontal = 1;
origin = (1,9);
settings = {
deltaV = {
"{100, 100, 0, 0, 0, 0}" = {
"62" = 0;
};
};
};
type = TTDelta;
},
{
horizontal = 1;
origin = (1,9);
settings = {
deltaV = {
"{100, 100, 0, 0, 0, 0}" = {
"62" = 0;
};
};
};
type = TTDelta;
},
{
horizontal = 1;
origin = (1,9);
settings = {
deltaV = {
"{100, 100, 0, 0, 0, 0}" = {
"62" = 0;
};
};
};
type = TTDelta;
},
{
horizontal = 1;
origin = (2,6);
settings = {
deltaV = {
"{100, 100, 0, 0, 0, 0}" = {
"62" = 0;
};
};
};
type = TTDelta;
},
{
horizontal = 1;
origin = (0,6);
settings = {
deltaV = {
"{100, 100, 0, 0, 0, 0}" = {
"62" = 0;
};
};
};
type = TTDelta;
},
{
horizontal = 1;
origin = (0,6);
settings = {
deltaV = {
"{100, 100, 0, 0, 0, 0}" = {
"62" = 0;
};
};
};
type = TTDelta;
},
{
horizontal = 1;
origin = (0,6);
settings = {
deltaV = {
"{100, 100, 0, 0, 0, 0}" = {
"62" = 0;
};
};
};
type = TTDelta;
},
{
horizontal = 1;
origin = (0,0);
settings = {
deltaV = {
"{100, 100, 0, 0, 0, 0}" = {
"62" = 0;
};
};
};
type = TTDelta;
},
{
horizontal = 1;
origin = (0,0);
settings = {
deltaV = {
"{100, 100, 0, 0, 0, 0}" = {
"62" = 0;
};
};
};
type = TTDelta;
},
{
horizontal = 1;
origin = (0,0);
settings = {
deltaV = {
"{100, 100, 0, 0, 0, 0}" = {
"62" = 0;
};
};
};
type = TTDelta;
},
{
horizontal = 1;
origin = (0,0);
settings = {
deltaV = {
"{100, 100, 0, 0, 0, 0}" = {
"62" = 0;
};
};
};
type = TTDelta;
},
{
horizontal = 1;
origin = (0,0);
settings = {
deltaV = {
"{100, 100, 0, 0, 0, 0}" = {
"62" = 0;
};
};
};
type = TTDelta;
},
{
horizontal = 1;
origin = (0,0);
settings = {
deltaV = {
"{100, 100, 0, 0, 0, 0}" = {
"62" = 0;
};
};
};
type = TTDelta;
}
);
layerId = "6F9C6BB4-2DCF-443B-A55D-9CE049090094";
shapes = (
{
attr = {
lineCapEnd = 2;
lineCapStart = 2;
};
closed = 0;
nodes = (
(105,664,l),
(141,688,o),
(185,699,o),
(228,699,cs),
(320,699,o),
(408,648,o),
(409,556,cs),
(412,401,o),
(278,378,o),
(127,358,c)
);
},
{
attr = {
lineCapEnd = 2;
lineCapStart = 2;
};
closed = 0;
nodes = (
(126,360,l),
(319,360,o),
(433,319,o),
(435,188,cs),
(437,44,o),
(324,-5,o),
(221,-5,cs),
(158,-5,o),
(99,10,o),
(66,33,c)
);
}
);
width = 509;
}
);
unicode = 51;
},
{
glyphname = four;
lastChange = "2024-06-17 14:31:37 +0000";
layers = (
{
layerId = "6F9C6BB4-2DCF-443B-A55D-9CE049090094";
shapes = (
{
attr = {
identifier = ID0x7fe9ed50ee20;
lineCapEnd = 1;
lineCapStart = 1;
};
closed = 0;
nodes = (
(406,450,l),
(406,0,l)
);
},
{
attr = {
lineCapEnd = 1;
lineCapStart = 1;
};
closed = 0;
nodes = (
(152,700,l),
(71,239,l),
(519,239,l)
);
}
);
width = 607;
}
);
unicode = 52;
},
{
glyphname = five;
lastChange = "2024-06-17 14:31:37 +0000";
layers = (
{
layerId = "6F9C6BB4-2DCF-443B-A55D-9CE049090094";
shapes = (
{
attr = {
lineCapEnd = "2";
lineCapStart = "2";
};
closed = 0;
nodes = (
(70,36,l),
(106,11,o),
(170,-5,o),
(239,-5,cs),
(399,-5,o),
(447,101,o),
(447,211,cs),
(447,314,o),
(402,415,o),
(256,415,cs),
(198,415,o),
(140,403,o),
(99,392,c),
(99,701,l),
(444,701,l)
);
}
);
width = 521;
}
);
unicode = 53;
},
{
glyphname = six;
lastChange = "2024-06-17 14:31:37 +0000";
layers = (
{
layerId = "6F9C6BB4-2DCF-443B-A55D-9CE049090094";
shapes = (
{
attr = {
identifier = ID0x7fe9ed5b6e30;
lineCapEnd = 1;
lineCapStart = 1;
};
closed = 0;
nodes = (
(392,682,l),
(368,697,o),
(322,705,o),
(292,705,cs),
(157,705,o),
(87,547,o),
(80,353,cs),
(73,153,o),
(131,-5,o),
(267,-5,cs),
(397,-5,o),
(458,99,o),
(459,204,cs),
(461,310,o),
(403,421,o),
(294,421,cs),
(225,421,o),
(146,377,o),
(84,278,c)
);
}
);
width = 533;
}
);
metricLeft = zero;
unicode = 54;
},
{
glyphname = seven;
lastChange = "2024-06-17 14:31:37 +0000";
layers = (
{
background = {
shapes = (
{
attr = {
identifier = ID0x7fe9ed852dc0;
lineCapEnd = 1;
lineCapStart = 1;
};
closed = 0;
nodes = (
(437,695,l),
(149,4,l)
);
},
{
attr = {
identifier = ID0x7fe9ed852dc0;
lineCapEnd = 1;
lineCapStart = 1;
};
closed = 0;
nodes = (
(87,700,l),
(437,700,l)
);
},
{
attr = {
identifier = ID0x7fe9ed852dc0;
lineCapEnd = "1";
lineCapStart = "1";
};
closed = 0;
nodes = (
(138,340,l),
(405,340,l)
);
}
);
};
layerId = "6F9C6BB4-2DCF-443B-A55D-9CE049090094";
shapes = (
{
attr = {
identifier = ID0x7fe9ed852dc0;
lineCapEnd = 1;
lineCapStart = 1;
};
closed = 0;
nodes = (
(67,700,l),
(447,700,l),
(144,-5,l)
);
},
{
attr = {
identifier = ID0x7fe9ed852dc0;
lineCapEnd = "1";
lineCapStart = "1";
};
closed = 0;
nodes = (
(138,340,l),
(405,340,l)
);
}
);
width = 514;
}
);
unicode = 55;
},
{
glyphname = eight;
lastChange = "2024-06-17 14:31:37 +0000";
layers = (
{
background = {
shapes = (
{
attr = {
identifier = ID0x7fe9ef5fe080;
lineCapEnd = "1";
lineCapStart = "1";
};
closed = 0;
nodes = (
(333,352,ls),
(411,408,o),
(450,485,o),
(450,552,cs),
(450,632,o),
(394,699,o),
(286,699,cs),
(194,699,o),
(109,648,o),
(114,556,cs),
(119,464,o),
(205,411,o),
(285,367,cs),
(369,321,o),
(452,274,o),
(459,188,cs),
(470,44,o),
(355,-5,o),
(272,-5,cs),
(142,-5,o),
(75,76,o),
(75,174,cs),
(75,252,o),
(123,339,o),
(221,392,cs)
);
}
);
};
hints = (
{
horizontal = 1;
place = (0,0);
settings = {
deltaV = {
"{100, 100, 0, 0, 0, 0}" = {
"62" = 0;
};
};
};
type = TTDelta;
},
{
horizontal = 1;
place = (0,0);
settings = {
deltaV = {
"{100, 100, 0, 0, 0, 0}" = {
"62" = 0;
};
};
};
type = TTDelta;
},
{
horizontal = 1;
place = (0,0);
settings = {
deltaV = {
"{100, 100, 0, 0, 0, 0}" = {
"62" = 0;
};
};
};
type = TTDelta;
},
{
horizontal = 1;
place = (174,0);
settings = {
deltaV = {
"{100, 100, 0, 0, 0, 0}" = {
"62" = 0;
};
};
};
type = TTDelta;
},
{
horizontal = 1;
place = (511,0);
settings = {
deltaV = {
"{100, 100, 0, 0, 0, 0}" = {
"62" = 0;
};
};
};
type = TTDelta;
},
{
horizontal = 1;
place = (511,0);
settings = {
deltaV = {
"{100, 100, 0, 0, 0, 0}" = {
"62" = 0;
};
};
};
type = TTDelta;
},
{
horizontal = 1;
place = (511,0);
settings = {
deltaV = {
"{100, 100, 0, 0, 0, 0}" = {
"62" = 0;
};
};
};
type = TTDelta;
},
{
horizontal = 1;
place = (699,0);
settings = {
deltaV = {
"{100, 100, 0, 0, 0, 0}" = {
"62" = 0;
};
};
};
type = TTDelta;
},
{
horizontal = 1;
place = (699,0);
settings = {
deltaV = {
"{100, 100, 0, 0, 0, 0}" = {
"62" = 0;
};
};
};
type = TTDelta;
},
{
horizontal = 1;
place = (699,0);
settings = {
deltaV = {
"{100, 100, 0, 0, 0, 0}" = {
"62" = 0;
};
};
};
type = TTDelta;
},
{
horizontal = 1;
place = (699,0);
settings = {
deltaV = {
"{100, 100, 0, 0, 0, 0}" = {
"62" = 0;
};
};
};
type = TTDelta;
},
{
horizontal = 1;
place = (699,0);
settings = {
deltaV = {
"{100, 100, 0, 0, 0, 0}" = {
"62" = 0;
};
};
};
type = TTDelta;
},
{
horizontal = 1;
place = (699,0);
settings = {
deltaV = {
"{100, 100, 0, 0, 0, 0}" = {
"62" = 0;
};
};
};
type = TTDelta;
}
);
layerId = "6F9C6BB4-2DCF-443B-A55D-9CE049090094";
shapes = (
{
attr = {
identifier = ID0x7fe9ef5fe080;
lineCapEnd = "1";
lineCapStart = "1";
};
closed = 0;
nodes = (
(299,364,ls),
(402,401,o),
(450,479,o),
(450,551,cs),
(450,631,o),
(390,704,o),
(274,704,cs),
(156,704,o),
(91,630,o),
(91,550,cs),
(91,487,o),
(133,420,o),
(221,386,cs),
(315,349,ls),
(420,307,o),
(464,237,o),
(464,170,cs),
(464,79,o),
(384,-6,o),
(268,-6,cs),
(150,-6,o),
(75,76,o),
(75,167,cs),
(75,240,o),
(124,319,o),
(239,364,cs)
);
}
);
width = 539;
}
);
unicode = 56;
},
{
glyphname = nine;
lastChange = "2024-06-17 14:31:37 +0000";
layers = (
{
background = {
shapes = (
{
pos = (-39,0);
ref = nine.alt;
}
);
};
layerId = "6F9C6BB4-2DCF-443B-A55D-9CE049090094";
shapes = (
{
attr = {
identifier = ID0x7fe9ed288520;
lineCapEnd = 1;
lineCapStart = 1;
};
closed = 0;
nodes = (
(400,-5,l),
(427,564,ls),
(431,658,o),
(347,709,o),
(260,709,cs),
(130,709,o),
(73,614,o),
(73,518,cs),
(73,423,o),
(130,328,o),
(229,328,cs),
(298,328,o),
(371,360,o),
(418,422,c)
);
}
);
width = 513;
}
);
unicode = 57;
},
{
glyphname = eight.alt;
lastChange = "2024-05-27 08:27:03 +0000";
layers = (
{
hints = (
{
horizontal = 1;
place = (0,0);
settings = {
deltaV = {
"{100, 100, 0, 0, 0, 0}" = {
"62" = 0;
};
};
};
type = TTDelta;
},
{
horizontal = 1;
place = (0,0);
settings = {
deltaV = {
"{100, 100, 0, 0, 0, 0}" = {
"62" = 0;
};
};
};
type = TTDelta;
},
{
horizontal = 1;
place = (0,0);
settings = {
deltaV = {
"{100, 100, 0, 0, 0, 0}" = {
"62" = 0;
};
};
};
type = TTDelta;
},
{
horizontal = 1;
place = (174,0);
settings = {
deltaV = {
"{100, 100, 0, 0, 0, 0}" = {
"62" = 0;
};
};
};
type = TTDelta;
},
{
horizontal = 1;
place = (511,0);
settings = {
deltaV = {
"{100, 100, 0, 0, 0, 0}" = {
"62" = 0;
};
};
};
type = TTDelta;
},
{
horizontal = 1;
place = (511,0);
settings = {
deltaV = {
"{100, 100, 0, 0, 0, 0}" = {
"62" = 0;
};
};
};
type = TTDelta;
},
{
horizontal = 1;
place = (511,0);
settings = {
deltaV = {
"{100, 100, 0, 0, 0, 0}" = {
"62" = 0;
};
};
};
type = TTDelta;
},
{
horizontal = 1;
place = (699,0);
settings = {
deltaV = {
"{100, 100, 0, 0, 0, 0}" = {
"62" = 0;
};
};
};
type = TTDelta;
},
{
horizontal = 1;
place = (699,0);
settings = {
deltaV = {
"{100, 100, 0, 0, 0, 0}" = {
"62" = 0;
};
};
};
type = TTDelta;
},
{
horizontal = 1;
place = (699,0);
settings = {
deltaV = {
"{100, 100, 0, 0, 0, 0}" = {
"62" = 0;
};
};
};
type = TTDelta;
},
{
horizontal = 1;
place = (699,0);
settings = {
deltaV = {
"{100, 100, 0, 0, 0, 0}" = {
"62" = 0;
};
};
};
type = TTDelta;
},
{
horizontal = 1;
place = (699,0);
settings = {
deltaV = {
"{100, 100, 0, 0, 0, 0}" = {
"62" = 0;
};
};
};
type = TTDelta;
},
{
horizontal = 1;
place = (699,0);
settings = {
deltaV = {
"{100, 100, 0, 0, 0, 0}" = {
"62" = 0;
};
};
};
type = TTDelta;
}
);
layerId = "6F9C6BB4-2DCF-443B-A55D-9CE049090094";
shapes = (
{
attr = {
identifier = ID0x7fe9ef5fe080;
lineCapEnd = "1";
lineCapStart = "1";
};
closed = 0;
nodes = (
(347,352,ls),
(425,408,o),
(464,485,o),
(464,552,cs),
(464,632,o),
(408,699,o),
(300,699,cs),
(208,699,o),
(123,648,o),
(128,556,cs),
(133,464,o),
(219,411,o),
(299,367,cs),
(383,321,o),
(466,274,o),
(473,188,cs),
(484,44,o),
(369,-5,o),
(286,-5,cs),
(156,-5,o),
(89,76,o),
(89,174,cs),
(89,252,o),
(137,339,o),
(235,392,cs)
);
}
);
width = 571;
}
);
},
{
glyphname = nine.alt;
lastChange = "2024-05-27 08:27:03 +0000";
layers = (
{
layerId = "6F9C6BB4-2DCF-443B-A55D-9CE049090094";
shapes = (
{
attr = {
identifier = ID0x7fe9ed288520;
lineCapEnd = 1;
lineCapStart = 1;
};
closed = 0;
nodes = (
(153,18,l),
(177,3,o),
(223,-5,o),
(253,-5,cs),
(388,-5,o),
(465,106,o),
(465,357,cs),
(465,552,o),
(414,710,o),
(278,710,cs),
(148,710,o),
(87,606,o),
(86,501,cs),
(84,395,o),
(142,289,o),
(251,289,cs),
(320,289,o),
(386,314,o),
(461,375,c)
);
}
);
width = 570;
}
);
},
{
glyphname = zero.numr;
lastChange = "2024-06-17 14:31:37 +0000";
layers = (
{
layerId = "6F9C6BB4-2DCF-443B-A55D-9CE049090094";
shapes = (
{
closed = 0;
nodes = (
(215,748,l),
(123,748,o),
(79,669,o),
(79,572,cs),
(79,474,o),
(123,395,o),
(215,395,cs),
(307,395,o),
(351,474,o),
(351,572,cs),
(351,669,o),
(307,748,o),
(215,748,c)
);
}
);
width = 430;
}
);
metricLeft = zero;
metricRight = zero;
},
{
glyphname = one.numr;
lastChange = "2024-05-27 08:27:03 +0000";
layers = (
{
layerId = "6F9C6BB4-2DCF-443B-A55D-9CE049090094";
shapes = (
{
attr = {
identifier = ID0x7fc5b2035410;
lineCapEnd = 1;
lineCapStart = 1;
};
closed = 0;
nodes = (
(152,750,l),
(144,400,l)
);
},
{
attr = {
identifier = ID0x7fc5b2035410;
lineCapEnd = 1;
lineCapStart = 1;
};
closed = 0;
nodes = (
(33,610,l),
(75,652,o),
(114,699,o),
(150,750,c)
);
}
);
width = 226;
}
);
},
{
glyphname = two.numr;
lastChange = "2024-06-17 14:31:37 +0000";
layers = (
{
hints = (
{
horizontal = 1;
origin = (0,10);
settings = {
deltaV = {
"{100, 100, 0, 0, 0, 0}" = {
"62" = 0;
};
};
};
type = TTDelta;
},
{
horizontal = 1;
origin = (0,10);
settings = {
deltaV = {
"{100, 100, 0, 0, 0, 0}" = {
"62" = 0;
};
};
};
type = TTDelta;
},
{
horizontal = 1;
origin = (0,10);
settings = {
deltaV = {
"{100, 100, 0, 0, 0, 0}" = {
"62" = 0;
};
};
};
type = TTDelta;
},
{
horizontal = 1;
origin = (0,10);
settings = {
deltaV = {
"{100, 100, 0, 0, 0, 0}" = {
"62" = 0;
};
};
};
type = TTDelta;
},
{
horizontal = 1;
origin = (0,6);
settings = {
deltaV = {
"{100, 100, 0, 0, 0, 0}" = {
"62" = 0;
};
};
};
type = TTDelta;
},
{
horizontal = 1;
origin = (0,6);
settings = {
deltaV = {
"{100, 100, 0, 0, 0, 0}" = {
"62" = 0;
};
};
};
type = TTDelta;
},
{
horizontal = 1;
origin = (0,6);
settings = {
deltaV = {
"{100, 100, 0, 0, 0, 0}" = {
"62" = 0;
};
};
};
type = TTDelta;
},
{
horizontal = 1;
origin = (0,0);
settings = {
deltaV = {
"{100, 100, 0, 0, 0, 0}" = {
"62" = 0;
};
};
};
type = TTDelta;
},
{
horizontal = 1;
origin = (0,0);
settings = {
deltaV = {
"{100, 100, 0, 0, 0, 0}" = {
"62" = 0;
};
};
};
type = TTDelta;
},
{
horizontal = 1;
origin = (0,0);
settings = {
deltaV = {
"{100, 100, 0, 0, 0, 0}" = {
"62" = 0;
};
};
};
type = TTDelta;
},
{
horizontal = 1;
origin = (0,0);
settings = {
deltaV = {
"{100, 100, 0, 0, 0, 0}" = {
"62" = 0;
};
};
};
type = TTDelta;
},
{
horizontal = 1;
origin = (0,0);
settings = {
deltaV = {
"{100, 100, 0, 0, 0, 0}" = {
"62" = 0;
};
};
};
type = TTDelta;
},
{
horizontal = 1;
origin = (0,0);
settings = {
deltaV = {
"{100, 100, 0, 0, 0, 0}" = {
"62" = 0;
};
};
};
type = TTDelta;
}
);
layerId = "6F9C6BB4-2DCF-443B-A55D-9CE049090094";
shapes = (
{
attr = {
identifier = ID0x7fc5b20358d0;
lineCapEnd = 1;
lineCapStart = 1;
};
closed = 0;
nodes = (
(81,732,l),
(103,744,o),
(148,750,o),
(174,750,cs),
(229,750,o),
(281,724,o),
(281,678,cs),
(281,625,o),
(246,581,o),
(146,481,cs),
(66,400,l),
(304,400,l)
);
}
);
width = 376;
}
);
metricLeft = two;
metricRight = two;
},
{
glyphname = three.numr;
lastChange = "2024-05-27 08:27:03 +0000";
layers = (
{
hints = (
{
horizontal = 1;
origin = (1,9);
settings = {
deltaV = {
"{100, 100, 0, 0, 0, 0}" = {
"62" = 0;
};
};
};
type = TTDelta;
},
{
horizontal = 1;
origin = (1,9);
settings = {
deltaV = {
"{100, 100, 0, 0, 0, 0}" = {
"62" = 0;
};
};
};
type = TTDelta;
},
{
horizontal = 1;
origin = (1,9);
settings = {
deltaV = {
"{100, 100, 0, 0, 0, 0}" = {
"62" = 0;
};
};
};
type = TTDelta;
},
{
horizontal = 1;
origin = (2,6);
settings = {
deltaV = {
"{100, 100, 0, 0, 0, 0}" = {
"62" = 0;
};
};
};
type = TTDelta;
},
{
horizontal = 1;
origin = (0,6);
settings = {
deltaV = {
"{100, 100, 0, 0, 0, 0}" = {
"62" = 0;
};
};
};
type = TTDelta;
},
{
horizontal = 1;
origin = (0,6);
settings = {
deltaV = {
"{100, 100, 0, 0, 0, 0}" = {
"62" = 0;
};
};
};
type = TTDelta;
},
{
horizontal = 1;
origin = (0,6);
settings = {
deltaV = {
"{100, 100, 0, 0, 0, 0}" = {
"62" = 0;
};
};
};
type = TTDelta;
},
{
horizontal = 1;
origin = (0,0);
settings = {
deltaV = {
"{100, 100, 0, 0, 0, 0}" = {
"62" = 0;
};
};
};
type = TTDelta;
},
{
horizontal = 1;
origin = (0,0);
settings = {
deltaV = {
"{100, 100, 0, 0, 0, 0}" = {
"62" = 0;
};
};
};
type = TTDelta;
},
{
horizontal = 1;
origin = (0,0);
settings = {
deltaV = {
"{100, 100, 0, 0, 0, 0}" = {
"62" = 0;
};
};
};
type = TTDelta;
},
{
horizontal = 1;
origin = (0,0);
settings = {
deltaV = {
"{100, 100, 0, 0, 0, 0}" = {
"62" = 0;
};
};
};
type = TTDelta;
},
{
horizontal = 1;
origin = (0,0);
settings = {
deltaV = {
"{100, 100, 0, 0, 0, 0}" = {
"62" = 0;
};
};
};
type = TTDelta;
},
{
horizontal = 1;
origin = (0,0);
settings = {
deltaV = {
"{100, 100, 0, 0, 0, 0}" = {
"62" = 0;
};
};
};
type = TTDelta;
}
);
layerId = "6F9C6BB4-2DCF-443B-A55D-9CE049090094";
shapes = (
{
attr = {
identifier = ID0x7fc5b2035e20;
lineCapEnd = 2;
lineCapStart = 2;
};
closed = 0;
nodes = (
(57,730,l),
(79,742,o),
(105,747,o),
(131,747,cs),
(186,747,o),
(239,722,o),
(240,676,cs),
(241,598,o),
(161,587,o),
(70,577,c)
);
},
{
attr = {
identifier = ID0x7fc5b2035e20;
lineCapEnd = 2;
lineCapStart = 2;
};
closed = 0;
nodes = (
(70,578,l),
(186,578,o),
(254,557,o),
(255,492,cs),
(256,420,o),
(189,395,o),
(127,395,cs),
(89,395,o),
(54,403,o),
(34,414,c)
);
}
);
width = 305;
}
);
},
{
glyphname = four.numr;
lastChange = "2024-06-17 14:31:37 +0000";
layers = (
{
layerId = "6F9C6BB4-2DCF-443B-A55D-9CE049090094";
shapes = (
{
attr = {
identifier = ID0x7fc5b20362e0;
lineCapEnd = 1;
lineCapStart = 1;
};
closed = 0;
nodes = (
(272,625,l),
(272,400,l)
);
},
{
attr = {
identifier = ID0x7fc5b20362e0;
lineCapEnd = 1;
lineCapStart = 1;
};
closed = 0;
nodes = (
(119,750,l),
(71,520,l),
(339,520,l)
);
}
);
width = 427;
}
);
metricLeft = four;
metricRight = four;
},
{
glyphname = five.numr;
lastChange = "2024-05-27 08:27:03 +0000";
layers = (
{
layerId = "6F9C6BB4-2DCF-443B-A55D-9CE049090094";
shapes = (
{
attr = {
identifier = ID0x7fc5b20367a0;
lineCapEnd = "2";
lineCapStart = "2";
};
closed = 0;
nodes = (
(50,416,l),
(72,403,o),
(110,395,o),
(152,395,cs),
(248,395,o),
(277,448,o),
(277,503,cs),
(277,555,o),
(250,605,o),
(162,605,cs),
(127,605,o),
(92,599,o),
(68,594,c),
(68,748,l),
(275,748,l)
);
}
);
width = 321;
}
);
},
{
glyphname = six.numr;
lastChange = "2024-06-17 14:31:37 +0000";
layers = (
{
layerId = "6F9C6BB4-2DCF-443B-A55D-9CE049090094";
shapes = (
{
attr = {
identifier = ID0x7fc5b2036c60;
lineCapEnd = 1;
lineCapStart = 1;
};
closed = 0;
nodes = (
(266,739,l),
(251,746,o),
(224,750,o),
(206,750,cs),
(125,750,o),
(83,671,o),
(79,574,cs),
(74,474,o),
(109,395,o),
(191,395,cs),
(269,395,o),
(305,447,o),
(306,500,cs),
(307,553,o),
(272,608,o),
(207,608,cs),
(166,608,o),
(118,586,o),
(81,537,c)
);
}
);
width = 380;
}
);
metricLeft = six;
metricRight = six;
},
{
glyphname = seven.numr;
lastChange = "2024-05-27 08:27:03 +0000";
layers = (
{
layerId = "6F9C6BB4-2DCF-443B-A55D-9CE049090094";
shapes = (
{
attr = {
identifier = ID0x7fc5b2037120;
lineCapEnd = 1;
lineCapStart = 1;
};
closed = 0;
nodes = (
(34,748,l),
(262,748,l),
(80,395,l)
);
},
{
attr = {
identifier = ID0x7fc5b2037120;
lineCapEnd = "1";
lineCapStart = "1";
};
closed = 0;
nodes = (
(77,568,l),
(237,568,l)
);
}
);
width = 296;
}
);
},
{
glyphname = eight.numr;
lastChange = "2024-06-17 14:31:37 +0000";
layers = (
{
hints = (
{
horizontal = 1;
place = (115,0);
settings = {
deltaV = {
"{100, 100, 0, 0, 0, 0}" = {
"62" = 0;
};
};
};
type = TTDelta;
},
{
horizontal = 1;
place = (115,0);
settings = {
deltaV = {
"{100, 100, 0, 0, 0, 0}" = {
"62" = 0;
};
};
};
type = TTDelta;
},
{
horizontal = 1;
place = (115,0);
settings = {
deltaV = {
"{100, 100, 0, 0, 0, 0}" = {
"62" = 0;
};
};
};
type = TTDelta;
},
{
horizontal = 1;
place = (219,0);
settings = {
deltaV = {
"{100, 100, 0, 0, 0, 0}" = {
"62" = 0;
};
};
};
type = TTDelta;
},
{
horizontal = 1;
place = (422,0);
settings = {
deltaV = {
"{100, 100, 0, 0, 0, 0}" = {
"62" = 0;
};
};
};
type = TTDelta;
},
{
horizontal = 1;
place = (422,0);
settings = {
deltaV = {
"{100, 100, 0, 0, 0, 0}" = {
"62" = 0;
};
};
};
type = TTDelta;
},
{
horizontal = 1;
place = (422,0);
settings = {
deltaV = {
"{100, 100, 0, 0, 0, 0}" = {
"62" = 0;
};
};
};
type = TTDelta;
},
{
horizontal = 1;
place = (534,0);
settings = {
deltaV = {
"{100, 100, 0, 0, 0, 0}" = {
"62" = 0;
};
};
};
type = TTDelta;
},
{
horizontal = 1;
place = (534,0);
settings = {
deltaV = {
"{100, 100, 0, 0, 0, 0}" = {
"62" = 0;
};
};
};
type = TTDelta;
},
{
horizontal = 1;
place = (534,0);
settings = {
deltaV = {
"{100, 100, 0, 0, 0, 0}" = {
"62" = 0;
};
};
};
type = TTDelta;
},
{
horizontal = 1;
place = (534,0);
settings = {
deltaV = {
"{100, 100, 0, 0, 0, 0}" = {
"62" = 0;
};
};
};
type = TTDelta;
},
{
horizontal = 1;
place = (534,0);
settings = {
deltaV = {
"{100, 100, 0, 0, 0, 0}" = {
"62" = 0;
};
};
};
type = TTDelta;
},
{
horizontal = 1;
place = (534,0);
settings = {
deltaV = {
"{100, 100, 0, 0, 0, 0}" = {
"62" = 0;
};
};
};
type = TTDelta;
}
);
layerId = "6F9C6BB4-2DCF-443B-A55D-9CE049090094";
shapes = (
{
attr = {
identifier = ID0x7fc5b20375e0;
lineCapEnd = "1";
lineCapStart = "1";
};
closed = 0;
nodes = (
(209,579,ls),
(271,598,o),
(300,637,o),
(300,673,cs),
(300,713,o),
(264,749,o),
(194,749,cs),
(123,749,o),
(84,712,o),
(84,672,cs),
(84,641,o),
(110,607,o),
(162,590,cs),
(219,572,ls),
(282,551,o),
(308,516,o),
(308,482,cs),
(308,437,o),
(260,394,o),
(191,394,cs),
(120,394,o),
(75,435,o),
(75,481,cs),
(75,517,o),
(104,557,o),
(173,579,cs)
);
}
);
width = 383;
}
);
metricLeft = eight;
metricRight = eight;
},
{
glyphname = nine.numr;
lastChange = "2024-06-17 14:31:37 +0000";
layers = (
{
layerId = "6F9C6BB4-2DCF-443B-A55D-9CE049090094";
shapes = (
{
attr = {
identifier = ID0x7fc5b2037aa0;
lineCapEnd = 1;
lineCapStart = 1;
};
closed = 0;
nodes = (
(269,395,l),
(285,680,ls),
(288,727,o),
(237,752,o),
(185,752,cs),
(107,752,o),
(73,705,o),
(73,657,cs),
(73,609,o),
(107,562,o),
(166,562,cs),
(208,562,o),
(252,578,o),
(280,609,c)
);
}
);
width = 371;
}
);
metricLeft = nine;
metricRight = nine;
},
{
glyphname = fraction;
lastChange = "2024-05-27 08:27:03 +0000";
layers = (
{
layerId = "6F9C6BB4-2DCF-443B-A55D-9CE049090094";
shapes = (
{
closed = 0;
nodes = (
(-180,0,l),
(417,710,l)
);
}
);
width = 237;
}
);
unicode = 8260;
},
{
glyphname = fraction.alt;
lastChange = "2024-05-27 08:27:03 +0000";
layers = (
{
layerId = "6F9C6BB4-2DCF-443B-A55D-9CE049090094";
shapes = (
{
closed = 0;
nodes = (
(110,331,l),
(490,331,l)
);
}
);
width = 600;
}
);
},
{
glyphname = comma;
kernLeft = period;
kernRight = period;
lastChange = "2024-06-17 14:35:14 +0000";
layers = (
{
anchors = (
{
name = top;
pos = (122,91);
}
);
background = {
shapes = (
{
closed = 1;
nodes = (
(122,-180,o),
(166,-96,o),
(166,-9,cs),
(166,39,o),
(154,77,o),
(140,105,c),
(108,105,o),
(69,92,o),
(50,72,c),
(66,39,o),
(74,11,o),
(74,-17,cs),
(74,-83,o),
(38,-132,o),
(-8,-162,c),
(-6,-185,o),
(18,-212,o),
(37,-222,c)
);
}
);
};
layerId = "6F9C6BB4-2DCF-443B-A55D-9CE049090094";
shapes = (
{
attr = {
lineCapEnd = 1;
lineCapStart = 1;
};
closed = 0;
nodes = (
(67,-192,l),
(182,-114,o),
(178,35,o),
(137,104,c)
);
}
);
width = 248;
}
);
unicode = 44;
},
{
glyphname = exclamdown;
lastChange = "2024-06-17 14:30:33 +0000";
layers = (
{
layerId = "6F9C6BB4-2DCF-443B-A55D-9CE049090094";
shapes = (
{
pos = (76,0);
ref = dotaccentcomb;
},
{
attr = {
lineCapEnd = "1";
lineCapStart = "1";
};
closed = 0;
nodes = (
(105,330,l),
(92,-152,l)
);
}
);
width = 198;
}
);
unicode = 161;
},
{
glyphname = questiondown;
lastChange = "2024-06-17 14:30:33 +0000";
layers = (
{
background = {
shapes = (
{
pos = (122,0);
ref = dotaccentcomb;
},
{
attr = {
lineCapEnd = "1";
lineCapStart = "1";
};
closed = 0;
nodes = (
(151,360,l),
(138,-152,l)
);
}
);
};
layerId = "6F9C6BB4-2DCF-443B-A55D-9CE049090094";
shapes = (
{
attr = {
identifier = ID0x7fdbb38b5c70;
lineCapEnd = 1;
lineCapStart = 1;
};
closed = 0;
nodes = (
(321,-125,l),
(236,-145,o),
(73,-128,o),
(73,25,cs),
(73,120,o),
(114,155,o),
(206,197,cs),
(270,226,o),
(295,244,o),
(295,331,c)
);
},
{
pos = (262,0);
ref = dotaccentcomb;
}
);
width = 391;
}
);
unicode = 191;
},
{
glyphname = periodcentered;
lastChange = "2024-06-17 14:27:47 +0000";
layers = (
{
anchors = (
{
name = _centerright;
pos = (159,320);
},
{
name = top;
pos = (159,360);
}
);
background = {
anchors = (
{
name = _centerright;
pos = (159,320);
},
{
name = top;
pos = (159,360);
}
);
shapes = (
{
closed = 1;
nodes = (
(177,276,o),
(188,289,o),
(188,318,cs),
(188,344,o),
(177,360,o),
(158,360,cs),
(140,360,o),
(129,346,o),
(129,318,cs),
(129,291,o),
(139,276,o),
(158,276,cs)
);
}
);
};
layerId = "6F9C6BB4-2DCF-443B-A55D-9CE049090094";
shapes = (
{
closed = 0;
nodes = (
(159,342,l),
(159,298,l)
);
}
);
width = 316;
}
);
unicode = 183;
},
{
glyphname = bullet;
lastChange = "2024-06-17 14:30:33 +0000";
layers = (
{
layerId = "6F9C6BB4-2DCF-443B-A55D-9CE049090094";
shapes = (
{
closed = 1;
nodes = (
(190,252,o),
(216,280,o),
(216,318,cs),
(216,357,o),
(188,384,o),
(151,384,cs),
(114,384,o),
(90,356,o),
(90,318,cs),
(90,277,o),
(115,252,o),
(151,252,cs)
);
}
);
width = 305;
}
);
unicode = 8226;
},
{
glyphname = asterisk;
lastChange = "2024-06-17 14:30:33 +0000";
layers = (
{
layerId = "6F9C6BB4-2DCF-443B-A55D-9CE049090094";
shapes = (
{
attr = {
lineCapEnd = "1";
lineCapStart = "1";
};
closed = 0;
nodes = (
(72,528,l),
(459,528,l)
);
},
{
attr = {
lineCapEnd = "1";
lineCapStart = "1";
};
closed = 0;
nodes = (
(169,695,l),
(362,360,l)
);
},
{
attr = {
lineCapEnd = "1";
lineCapStart = "1";
};
closed = 0;
nodes = (
(168,360,l),
(363,695,l)
);
}
);
width = 530;
}
);
unicode = 42;
},
{
glyphname = numbersign;
lastChange = "2024-06-17 14:30:33 +0000";
layers = (
{
layerId = "6F9C6BB4-2DCF-443B-A55D-9CE049090094";
shapes = (
{
attr = {
lineCapEnd = "1";
lineCapStart = "1";
};
closed = 0;
nodes = (
(283,700,l),
(270,0,l)
);
},
{
attr = {
lineCapEnd = "1";
lineCapStart = "1";
};
closed = 0;
nodes = (
(503,700,l),
(490,0,l)
);
},
{
attr = {
lineCapEnd = "1";
lineCapStart = "1";
};
closed = 0;
nodes = (
(680,447,l),
(94,447,l)
);
},
{
attr = {
lineCapEnd = "1";
lineCapStart = "1";
};
closed = 0;
nodes = (
(680,247,l),
(94,247,l)
);
}
);
width = 774;
}
);
unicode = 35;
},
{
glyphname = slash;
lastChange = "2024-06-17 14:30:33 +0000";
layers = (
{
layerId = "6F9C6BB4-2DCF-443B-A55D-9CE049090094";
shapes = (
{
attr = {
lineCapEnd = "1";
lineCapStart = "1";
};
closed = 0;
nodes = (
(334,700,l),
(67,0,l)
);
}
);
width = 401;
}
);
unicode = 47;
},
{
glyphname = backslash;
lastChange = "2024-06-17 14:30:33 +0000";
layers = (
{
layerId = "6F9C6BB4-2DCF-443B-A55D-9CE049090094";
shapes = (
{
attr = {
lineCapEnd = "1";
lineCapStart = "1";
};
closed = 0;
nodes = (
(67,700,l),
(308,0,l)
);
}
);
width = 375;
}
);
unicode = 92;
},
{
glyphname = hyphen;
lastChange = "2024-05-27 08:27:03 +0000";
layers = (
{
layerId = "6F9C6BB4-2DCF-443B-A55D-9CE049090094";
shapes = (
{
closed = 0;
nodes = (
(40,190,l),
(297,190,l)
);
}
);
width = 337;
}
);
unicode = 45;
},
{
glyphname = endash;
lastChange = "2024-05-27 08:27:03 +0000";
layers = (
{
layerId = "6F9C6BB4-2DCF-443B-A55D-9CE049090094";
shapes = (
{
closed = 0;
nodes = (
(40,190,l),
(497,190,l)
);
}
);
width = 537;
}
);
metricLeft = hyphen;
metricRight = hyphen;
unicode = 8211;
},
{
glyphname = emdash;
lastChange = "2024-05-27 08:27:03 +0000";
layers = (
{
layerId = "6F9C6BB4-2DCF-443B-A55D-9CE049090094";
shapes = (
{
closed = 0;
nodes = (
(30,190,l),
(730,190,l)
);
}
);
width = 760;
}
);
unicode = 8212;
},
{
glyphname = underscore;
lastChange = "2024-05-27 08:27:03 +0000";
layers = (
{
layerId = "6F9C6BB4-2DCF-443B-A55D-9CE049090094";
shapes = (
{
closed = 0;
nodes = (
(40,-64,l),
(397,-64,l)
);
}
);
width = 437;
}
);
unicode = 95;
},
{
glyphname = parenleft;
lastChange = "2024-06-17 14:30:33 +0000";
layers = (
{
background = {
shapes = (
{
attr = {
lineCapEnd = "1";
lineCapStart = "1";
};
closed = 0;
nodes = (
(215,700,l),
(75,471,o),
(45,206,o),
(228,0,c)
);
}
);
};
layerId = "6F9C6BB4-2DCF-443B-A55D-9CE049090094";
shapes = (
{
attr = {
lineCapEnd = "1";
lineCapStart = "1";
};
closed = 0;
nodes = (
(235,748,l),
(131,631,o),
(77,489,o),
(77,349,cs),
(77,218,o),
(124,87,o),
(221,-23,c)
);
}
);
width = 301;
}
);
unicode = 40;
},
{
glyphname = braceleft;
lastChange = "2024-06-17 14:30:33 +0000";
layers = (
{
guides = (
{
angle = 90;
pos = (66,363);
}
);
layerId = "6F9C6BB4-2DCF-443B-A55D-9CE049090094";
shapes = (
{
attr = {
lineCapEnd = "1";
lineCapStart = "1";
};
closed = 0;
nodes = (
(224,747,l),
(51,747,o),
(138,574,o),
(138,459,cs),
(138,412,o),
(115,373,o),
(66,362,c),
(66,361,l),
(115,350,o),
(138,313,o),
(138,266,cs),
(138,151,o),
(51,-23,o),
(224,-23,c)
);
}
);
width = 289;
}
);
unicode = 123;
},
{
glyphname = bracketleft;
lastChange = "2024-06-17 14:30:33 +0000";
layers = (
{
layerId = "6F9C6BB4-2DCF-443B-A55D-9CE049090094";
shapes = (
{
attr = {
lineCapEnd = "1";
lineCapStart = "1";
};
closed = 0;
nodes = (
(238,725,l),
(100,725,l),
(100,0,l),
(238,0,l)
);
}
);
width = 338;
}
);
unicode = 91;
},
{
glyphname = guilsinglleft;
lastChange = "2024-06-17 14:30:33 +0000";
layers = (
{
layerId = "6F9C6BB4-2DCF-443B-A55D-9CE049090094";
shapes = (
{
attr = {
lineCapEnd = "1";
lineCapStart = "1";
};
closed = 0;
nodes = (
(286,360,l),
(68,180,l),
(286,0,l)
);
}
);
width = 354;
}
);
unicode = 8249;
},
{
glyphname = quotesingle;
lastChange = "2024-06-17 14:30:33 +0000";
layers = (
{
background = {
shapes = (
{
closed = 0;
nodes = (
(81,399,l),
(110,480,o),
(122,541,o),
(122,576,cs),
(122,600,o),
(109,630,o),
(66,630,c)
);
}
);
};
layerId = "6F9C6BB4-2DCF-443B-A55D-9CE049090094";
shapes = (
{
pos = (0,594);
ref = comma;
}
);
width = 248;
}
);
unicode = 39;
},
{
glyphname = baht;
lastChange = "2024-06-17 14:31:07 +0000";
layers = (
{
layerId = "6F9C6BB4-2DCF-443B-A55D-9CE049090094";
shapes = (
{
pos = (-5,0);
ref = B;
},
{
attr = {
lineCapEnd = "1";
lineCapStart = "1";
};
closed = 0;
nodes = (
(288,800,l),
(258,-100,l)
);
}
);
width = 510;
}
);
unicode = 3647;
},
{
glyphname = at;
lastChange = "2024-06-17 14:31:16 +0000";
layers = (
{
anchors = (
{
name = bottom;
pos = (980,0);
},
{
name = center;
pos = (980,350);
},
{
name = ogonek;
pos = (1275,10);
},
{
name = top;
pos = (980,650);
},
{
name = topleft;
pos = (630,700);
},
{
name = topright;
pos = (1329,700);
}
);
background = {
shapes = (
{
attr = {
identifier = ID0x7fa77d345e60;
lineCapEnd = 1;
lineCapStart = 1;
};
closed = 0;
nodes = (
(407,555,l),
(616,555,o),
(733,413,o),
(738,232,c),
(642,-5,l),
(576,-5,o),
(522,37,o),
(522,150,c)
);
},
{
attr = {
identifier = ID0x7fa77d345e60;
lineCapEnd = 1;
lineCapStart = 1;
};
closed = 0;
nodes = (
(348,-183,l),
(139,-183,o),
(22,-41,o),
(17,140,cs),
(12,339,o),
(151,555,o),
(407,555,c)
);
}
);
};
layerId = "6F9C6BB4-2DCF-443B-A55D-9CE049090094";
shapes = (
{
pos = (281,0);
ref = _a.master;
},
{
closed = 0;
nodes = (
(583,-142,l),
(535,-168,o),
(476,-183,o),
(408,-183,cs),
(199,-183,o),
(82,-41,o),
(77,140,cs),
(72,339,o),
(211,555,o),
(467,555,cs),
(676,555,o),
(798,413,o),
(798,232,cs),
(798,-59,o),
(552,-73,o),
(552,150,c)
);
}
);
width = 875;
}
);
metricLeft = O;
metricRight = O;
unicode = 64;
},
{
glyphname = ampersand;
lastChange = "2024-05-27 08:27:03 +0000";
layers = (
{
anchors = (
{
name = bottom;
pos = (530,0);
},
{
name = center;
pos = (72,180);
},
{
name = ogonek;
pos = (-95,10);
},
{
name = top;
pos = (530,700);
},
{
name = topright;
pos = (195,710);
}
);
background = {
shapes = (
{
attr = {
identifier = ID0x7fa77d1a5b30;
lineCapEnd = 1;
lineCapStart = 1;
};
closed = 0;
nodes = (
(124,679,l),
(65,693,o),
(14,700,o),
(-31,700,cs),
(-214,700,o),
(-290,583,o),
(-290,326,cs),
(-290,138,o),
(-216,0,o),
(-78,0,cs),
(-18,0,o),
(52,25,o),
(135,82,cs)
);
}
);
};
hints = (
{
horizontal = 1;
settings = {
deltaV = {
"{100, 100, 0, 0, 0, 0}" = {
"62" = 0;
};
};
};
type = TTDelta;
},
{
horizontal = 1;
settings = {
deltaV = {
"{100, 100, 0, 0, 0, 0}" = {
"62" = 0;
};
};
};
type = TTDelta;
},
{
horizontal = 1;
settings = {
deltaV = {
"{100, 100, 0, 0, 0, 0}" = {
"62" = 0;
};
};
};
type = TTDelta;
},
{
horizontal = 1;
settings = {
deltaV = {
"{100, 100, 0, 0, 0, 0}" = {
"62" = 0;
};
};
};
type = TTDelta;
},
{
horizontal = 1;
settings = {
deltaV = {
"{100, 100, 0, 0, 0, 0}" = {
"62" = 0;
};
};
};
type = TTDelta;
},
{
horizontal = 1;
settings = {
deltaV = {
"{100, 100, 0, 0, 0, 0}" = {
"62" = 0;
};
};
};
type = TTDelta;
},
{
horizontal = 1;
settings = {
deltaV = {
"{100, 100, 0, 0, 0, 0}" = {
"62" = 0;
};
};
};
type = TTDelta;
},
{
horizontal = 1;
settings = {
deltaV = {
"{100, 100, 0, 0, 0, 0}" = {
"62" = 0;
};
};
};
type = TTDelta;
},
{
horizontal = 1;
settings = {
deltaV = {
"{100, 100, 0, 0, 0, 0}" = {
"62" = 0;
};
};
};
type = TTDelta;
},
{
horizontal = 1;
settings = {
deltaV = {
"{100, 100, 0, 0, 0, 0}" = {
"62" = 0;
};
};
};
type = TTDelta;
},
{
horizontal = 1;
settings = {
deltaV = {
"{100, 100, 0, 0, 0, 0}" = {
"62" = 0;
};
};
};
type = TTDelta;
},
{
horizontal = 1;
settings = {
deltaV = {
"{100, 100, 0, 0, 0, 0}" = {
"62" = 0;
};
};
};
type = TTDelta;
},
{
horizontal = 1;
settings = {
deltaV = {
"{100, 100, 0, 0, 0, 0}" = {
"62" = 0;
};
};
};
type = TTDelta;
}
);
layerId = "6F9C6BB4-2DCF-443B-A55D-9CE049090094";
shapes = (
{
closed = 0;
nodes = (
(382,323,l),
(376,120,o),
(346,-5,o),
(196,-5,cs),
(91,-5,o),
(0,59,o),
(0,215,cs),
(0,344,o),
(81,404,o),
(138,404,cs),
(253,404,o),
(211,198,o),
(0,208,c),
(234,208,o),
(374,237,o),
(528,301,c)
);
},
{
closed = 0;
nodes = (
(382,481,l),
(382,387,ls),
(382,65,o),
(408,-5,o),
(528,-5,cs),
(600,-5,o),
(643,41,o),
(651,93,c)
);
}
);
width = 632;
}
);
metricLeft = e;
metricRight = t;
unicode = 38;
},
{
glyphname = paragraph;
lastChange = "2024-06-17 14:31:07 +0000";
layers = (
{
anchors = (
{
name = bottom;
pos = (414,0);
},
{
name = center;
pos = (414,180);
},
{
name = top;
pos = (414,360);
},
{
name = topright;
pos = (537,710);
}
);
background = {
shapes = (
{
attr = {
identifier = ID0x7feca72af860;
lineCapEnd = 1;
lineCapStart = 1;
};
closed = 0;
nodes = (
(359,345,l),
(330,358,o),
(293,364,o),
(267,364,cs),
(161,364,o),
(70,311,o),
(70,180,cs),
(70,42,o),
(177,-5,o),
(260,-5,cs),
(420,-5,o),
(450,157,o),
(456,360,c)
);
},
{
closed = 0;
nodes = (
(404,-165,l),
(424,-65,o),
(456,95,o),
(456,377,cs),
(456,609,l)
);
},
{
closed = 0;
nodes = (
(267,-195,l),
(294,-95,o),
(337,65,o),
(357,347,cs),
(373,579,l)
);
}
);
};
layerId = "6F9C6BB4-2DCF-443B-A55D-9CE049090094";
shapes = (
{
attr = {
identifier = ID0x7feca72af860;
lineCapEnd = 1;
lineCapStart = 1;
};
closed = 0;
nodes = (
(313,359,l),
(296,362,o),
(280,364,o),
(267,364,cs),
(161,364,o),
(70,311,o),
(70,180,cs),
(70,42,o),
(177,-5,o),
(260,-5,cs),
(679,-5,o),
(578,1026,o),
(499,587,cs),
(447,299,o),
(427,-71,o),
(456,-299,c)
);
},
{
closed = 0;
nodes = (
(332,-195,l),
(379,64,o),
(404,322,o),
(391,571,c)
);
}
);
width = 646;
}
);
unicode = 182;
},
{
glyphname = section;
lastChange = "2024-06-17 14:31:07 +0000";
layers = (
{
background = {
shapes = (
{
pos = (45,0);
ref = S;
},
{
pos = (45,-170);
ref = S;
}
);
};
hints = (
{
horizontal = 1;
origin = (0,0);
settings = {
deltaV = {
"{100, 100, 0, 0, 0, 0}" = {
"62" = 0;
};
};
};
type = TTDelta;
},
{
horizontal = 1;
origin = (0,0);
settings = {
deltaV = {
"{100, 100, 0, 0, 0, 0}" = {
"62" = 0;
};
};
};
type = TTDelta;
},
{
horizontal = 1;
origin = (0,0);
settings = {
deltaV = {
"{100, 100, 0, 0, 0, 0}" = {
"62" = 0;
};
};
};
type = TTDelta;
},
{
horizontal = 1;
origin = (0,3);
settings = {
deltaV = {
"{100, 100, 0, 0, 0, 0}" = {
"62" = 0;
};
};
};
type = TTDelta;
},
{
horizontal = 1;
origin = (1,0);
settings = {
deltaV = {
"{100, 100, 0, 0, 0, 0}" = {
"62" = 0;
};
};
};
type = TTDelta;
},
{
horizontal = 1;
origin = (1,0);
settings = {
deltaV = {
"{100, 100, 0, 0, 0, 0}" = {
"62" = 0;
};
};
};
type = TTDelta;
},
{
horizontal = 1;
origin = (1,0);
settings = {
deltaV = {
"{100, 100, 0, 0, 0, 0}" = {
"62" = 0;
};
};
};
type = TTDelta;
},
{
horizontal = 1;
origin = (1,0);
settings = {
deltaV = {
"{100, 100, 0, 0, 0, 0}" = {
"62" = 0;
};
};
};
type = TTDelta;
},
{
horizontal = 1;
origin = (1,0);
settings = {
deltaV = {
"{100, 100, 0, 0, 0, 0}" = {
"62" = 0;
};
};
};
type = TTDelta;
},
{
horizontal = 1;
origin = (1,0);
settings = {
deltaV = {
"{100, 100, 0, 0, 0, 0}" = {
"62" = 0;
};
};
};
type = TTDelta;
},
{
horizontal = 1;
origin = (1,0);
settings = {
deltaV = {
"{100, 100, 0, 0, 0, 0}" = {
"62" = 0;
};
};
};
type = TTDelta;
},
{
horizontal = 1;
origin = (1,0);
settings = {
deltaV = {
"{100, 100, 0, 0, 0, 0}" = {
"62" = 0;
};
};
};
type = TTDelta;
},
{
horizontal = 1;
origin = (1,0);
settings = {
deltaV = {
"{100, 100, 0, 0, 0, 0}" = {
"62" = 0;
};
};
};
type = TTDelta;
}
);
layerId = "6F9C6BB4-2DCF-443B-A55D-9CE049090094";
shapes = (
{
attr = {
identifier = ID0x7fa77dec6560;
lineCapEnd = 1;
lineCapStart = 1;
};
closed = 0;
nodes = (
(433,59,l),
(481,92,o),
(505,133,o),
(505,207,cs),
(505,338,o),
(412,364,o),
(321,389,cs),
(232,413,o),
(145,437,o),
(145,556,cs),
(145,669,o),
(299,746,o),
(445,664,cs)
);
},
{
attr = {
identifier = ID0x7fa77dec6560;
lineCapEnd = "1";
lineCapStart = "1";
};
closed = 0;
nodes = (
(178,462,ls),
(121,436,o),
(77,379,o),
(77,311,cs),
(77,193,o),
(169,174,o),
(265,149,cs),
(412,111,o),
(457,51,o),
(457,-12,cs),
(457,-93,o),
(392,-170,o),
(256,-170,cs),
(161,-170,o),
(75,-134,o),
(75,-39,cs),
(75,-6,o),
(88,27,o),
(114,51,c)
);
}
);
width = 576;
}
);
unicode = 167;
},
{
glyphname = copyright;
lastChange = "2024-06-17 14:31:07 +0000";
layers = (
{
anchors = (
{
name = bottom;
pos = (339,0);
},
{
name = top;
pos = (339,700);
}
);
background = {
shapes = (
{
attr = {
identifier = ID0x7fa780fa43a0;
lineCapEnd = 1;
lineCapStart = 1;
};
closed = 0;
nodes = (
(528,527,l),
(491,535,o),
(459,538,o),
(430,538,cs),
(316,538,o),
(268,475,o),
(268,337,cs),
(268,236,o),
(315,162,o),
(401,162,cs),
(439,162,o),
(483,176,o),
(535,206,cs)
);
},
{
closed = 0;
nodes = (
(425,0,l),
(618,0,o),
(775,157,o),
(775,350,cs),
(775,543,o),
(618,700,o),
(425,700,cs),
(232,700,o),
(75,543,o),
(75,350,cs),
(75,157,o),
(232,0,o),
(425,0,c)
);
}
);
};
layerId = "6F9C6BB4-2DCF-443B-A55D-9CE049090094";
shapes = (
{
attr = {
identifier = ID0x7fa780fa43a0;
lineCapEnd = 1;
lineCapStart = 1;
};
closed = 0;
nodes = (
(528,527,l),
(491,535,o),
(459,538,o),
(430,538,cs),
(316,538,o),
(268,475,o),
(268,337,cs),
(268,236,o),
(315,162,o),
(401,162,cs),
(439,162,o),
(483,176,o),
(535,206,cs)
);
},
{
closed = 0;
nodes = (
(419,0,l),
(612,0,o),
(772,157,o),
(775,350,cs),
(778,543,o),
(624,700,o),
(431,700,cs),
(238,700,o),
(78,543,o),
(75,350,cs),
(72,157,o),
(226,0,o),
(419,0,c)
);
}
);
width = 850;
}
);
unicode = 169;
},
{
glyphname = registered;
lastChange = "2024-06-17 14:31:07 +0000";
layers = (
{
layerId = "6F9C6BB4-2DCF-443B-A55D-9CE049090094";
shapes = (
{
attr = {
identifier = ID0x7fa77d0908b0;
lineCapEnd = 1;
lineCapStart = 1;
};
closed = 0;
nodes = (
(226,349,l),
(234,603,l),
(317,603,ls),
(366,603,o),
(399,589,o),
(399,555,cs),
(399,504,o),
(343,472,o),
(232,472,c)
);
},
{
attr = {
identifier = ID0x7fa77d0908b0;
lineCapEnd = 1;
lineCapStart = 1;
};
closed = 0;
nodes = (
(291,476,l),
(408,349,l)
);
},
{
closed = 0;
nodes = (
(300,249,l),
(424,249,o),
(527,350,o),
(529,474,cs),
(531,599,o),
(432,700,o),
(307,700,cs),
(183,700,o),
(80,599,o),
(78,474,cs),
(76,350,o),
(175,249,o),
(300,249,c)
);
}
);
width = 607;
}
);
unicode = 174;
},
{
glyphname = trademark;
lastChange = "2024-06-17 14:31:16 +0000";
layers = (
{
layerId = "6F9C6BB4-2DCF-443B-A55D-9CE049090094";
shapes = (
{
attr = {
identifier = ID0x7fc9e2faeca0;
lineCapEnd = 1;
lineCapStart = 1;
};
closed = 0;
nodes = (
(245,701,l),
(239,350,l)
);
},
{
attr = {
identifier = ID0x7fc9e2faeca0;
lineCapEnd = 1;
lineCapStart = 1;
};
closed = 0;
nodes = (
(94,701,l),
(385,701,l)
);
},
{
attr = {
identifier = ID0x7fc9e2faedc0;
lineCapEnd = 1;
lineCapStart = 1;
};
closed = 0;
nodes = (
(456,350,l),
(482,700,l),
(483,700,l),
(646,391,l),
(646,391,l),
(820,700,l),
(820,700,l),
(837,350,l)
);
}
);
width = 922;
}
);
metricLeft = T;
metricRight = M;
unicode = 8482;
},
{
glyphname = degree;
lastChange = "2024-06-17 14:31:07 +0000";
layers = (
{
layerId = "6F9C6BB4-2DCF-443B-A55D-9CE049090094";
shapes = (
{
closed = 0;
nodes = (
(202,700,l),
(123,700,o),
(84,639,o),
(84,567,cs),
(84,492,o),
(123,433,o),
(202,433,cs),
(281,433,o),
(320,492,o),
(320,567,cs),
(320,639,o),
(281,700,o),
(202,700,c)
);
}
);
userData = {
assembly = "NPUSHB[ ]	/* 17 values pushed */
1 29 29 64 30 17 6 0 25 17 9 3 12 21 1 25 70 
SROUND[ ]	/* SuperRound */
MDAP[1]	/* MoveDirectAbsPt */
SHZ[1]	/* ShiftZoneByLastPoint */
RTG[ ]	/* RoundToGrid */
SVTCA[0]	/* SetFreedomAndProjectionVectorToAxis */
MDAP[1]	/* MoveDirectAbsPt */
MDAP[1]	/* MoveDirectAbsPt */
SVTCA[1]	/* SetFreedomAndProjectionVectorToAxis */
MDAP[0]	/* MoveDirectAbsPt */
MDAP[0]	/* MoveDirectAbsPt */
MDAP[0]	/* MoveDirectAbsPt */
MDAP[0]	/* MoveDirectAbsPt */
SVTCA[0]	/* SetFreedomAndProjectionVectorToAxis */
MDAP[0]	/* MoveDirectAbsPt */
MDAP[0]	/* MoveDirectAbsPt */
IUP[1]	/* InterpolateUntPts */
IUP[0]	/* InterpolateUntPts */
SVTCA[1]	/* SetFreedomAndProjectionVectorToAxis */
MD[0]	/* MeasureDistance */
ROUND[00]	/* Round */
PUSHW[ ]	/* 2 values pushed */
25 29 
MD[0]	/* MeasureDistance */
ROUND[00]	/* Round */
SUB[ ]	/* Subtract */
PUSHB[ ]	/* 1 value pushed */
64 
GT[ ]	/* GreaterThan */
IF[ ]	/* If */
SHPIX[ ]	/* ShiftZoneByPixel */
SRP1[ ]	/* SetRefPoint1 */
SHZ[1]	/* ShiftZoneByLastPoint */
PUSHW[ ]	/* 2 values pushed */
29 -64 
SHPIX[ ]	/* ShiftZoneByPixel */
EIF[ ]	/* EndIf */";
};
width = 404;
}
);
note = degree;
unicode = 176;
},
{
glyphname = bar;
lastChange = "2024-06-17 14:31:07 +0000";
layers = (
{
layerId = "6F9C6BB4-2DCF-443B-A55D-9CE049090094";
shapes = (
{
attr = {
lineCapEnd = "1";
lineCapStart = "1";
};
closed = 0;
nodes = (
(107,800,l),
(94,-100,l)
);
}
);
width = 201;
}
);
unicode = 124;
},
{
glyphname = brokenbar;
lastChange = "2024-06-17 14:31:16 +0000";
layers = (
{
background = {
shapes = (
{
pos = (-106,0);
ref = bar;
}
);
};
guides = (
{
pos = (44,449);
},
{
pos = (44,249);
}
);
layerId = "6F9C6BB4-2DCF-443B-A55D-9CE049090094";
shapes = (
{
attr = {
identifier = ID0x7fa77dd31a40;
lineCapEnd = "1";
lineCapStart = "1";
};
closed = 0;
nodes = (
(107,800,l),
(102,449,l)
);
},
{
attr = {
identifier = ID0x7fa77dd31a40;
lineCapEnd = "1";
lineCapStart = "1";
};
closed = 0;
nodes = (
(99,249,l),
(94,-100,l)
);
}
);
width = 201;
}
);
metricLeft = bar;
metricRight = bar;
unicode = 166;
},
{
glyphname = dagger;
lastChange = "2024-06-17 14:31:16 +0000";
layers = (
{
layerId = "6F9C6BB4-2DCF-443B-A55D-9CE049090094";
shapes = (
{
closed = 0;
nodes = (
(271,710,l),
(261,249,l)
);
},
{
attr = {
lineCapEnd = "1";
lineCapStart = "1";
};
closed = 0;
nodes = (
(72,528,l),
(459,528,l)
);
}
);
width = 530;
}
);
metricLeft = asterisk;
metricRight = asterisk;
unicode = 8224;
},
{
glyphname = daggerdbl;
lastChange = "2024-06-17 14:31:07 +0000";
layers = (
{
layerId = "6F9C6BB4-2DCF-443B-A55D-9CE049090094";
shapes = (
{
closed = 0;
nodes = (
(295,710,l),
(285,249,l)
);
},
{
attr = {
identifier = ID0x7fa77ceed000;
lineCapEnd = "1";
lineCapStart = "1";
};
closed = 0;
nodes = (
(96,558,l),
(483,558,l)
);
},
{
attr = {
identifier = ID0x7fa77ceed000;
lineCapEnd = "1";
lineCapStart = "1";
};
closed = 0;
nodes = (
(96,398,l),
(483,398,l)
);
}
);
width = 579;
}
);
unicode = 8225;
},
{
glyphname = ampersand.alt;
lastChange = "2024-06-17 14:31:07 +0000";
layers = (
{
anchors = (
{
name = bottom;
pos = (891,0);
},
{
name = center;
pos = (433,180);
},
{
name = top;
pos = (891,700);
},
{
name = topright;
pos = (556,710);
}
);
background = {
shapes = (
{
attr = {
identifier = ID0x7fa77d1a5b30;
lineCapEnd = 1;
lineCapStart = 1;
};
closed = 0;
nodes = (
(485,679,l),
(426,693,o),
(375,700,o),
(330,700,cs),
(147,700,o),
(71,583,o),
(71,326,cs),
(71,138,o),
(145,0,o),
(283,0,cs),
(343,0,o),
(413,25,o),
(496,82,cs)
);
}
);
};
hints = (
{
horizontal = 1;
settings = {
deltaV = {
"{100, 100, 0, 0, 0, 0}" = {
"62" = 0;
};
};
};
type = TTDelta;
},
{
horizontal = 1;
settings = {
deltaV = {
"{100, 100, 0, 0, 0, 0}" = {
"62" = 0;
};
};
};
type = TTDelta;
},
{
horizontal = 1;
settings = {
deltaV = {
"{100, 100, 0, 0, 0, 0}" = {
"62" = 0;
};
};
};
type = TTDelta;
},
{
horizontal = 1;
origin = (2,9);
settings = {
deltaV = {
"{100, 100, 0, 0, 0, 0}" = {
"62" = 0;
};
};
};
type = TTDelta;
},
{
horizontal = 1;
settings = {
deltaV = {
"{100, 100, 0, 0, 0, 0}" = {
"62" = 0;
};
};
};
type = TTDelta;
},
{
horizontal = 1;
settings = {
deltaV = {
"{100, 100, 0, 0, 0, 0}" = {
"62" = 0;
};
};
};
type = TTDelta;
},
{
horizontal = 1;
settings = {
deltaV = {
"{100, 100, 0, 0, 0, 0}" = {
"62" = 0;
};
};
};
type = TTDelta;
},
{
horizontal = 1;
settings = {
deltaV = {
"{100, 100, 0, 0, 0, 0}" = {
"62" = 0;
};
};
};
type = TTDelta;
},
{
horizontal = 1;
settings = {
deltaV = {
"{100, 100, 0, 0, 0, 0}" = {
"62" = 0;
};
};
};
type = TTDelta;
},
{
horizontal = 1;
settings = {
deltaV = {
"{100, 100, 0, 0, 0, 0}" = {
"62" = 0;
};
};
};
type = TTDelta;
},
{
horizontal = 1;
settings = {
deltaV = {
"{100, 100, 0, 0, 0, 0}" = {
"62" = 0;
};
};
};
type = TTDelta;
},
{
horizontal = 1;
settings = {
deltaV = {
"{100, 100, 0, 0, 0, 0}" = {
"62" = 0;
};
};
};
type = TTDelta;
},
{
horizontal = 1;
settings = {
deltaV = {
"{100, 100, 0, 0, 0, 0}" = {
"62" = 0;
};
};
};
type = TTDelta;
}
);
layerId = "6F9C6BB4-2DCF-443B-A55D-9CE049090094";
shapes = (
{
closed = 0;
nodes = (
(681,-5,ls),
(561,-5,o),
(535,65,o),
(535,347,cs),
(535,539,l)
);
},
{
attr = {
identifier = ID0x7fa77d1a5b30;
lineCapEnd = 1;
lineCapStart = 1;
};
closed = 0;
nodes = (
(485,679,l),
(426,693,o),
(375,700,o),
(330,700,cs),
(186,700,o),
(112,615,o),
(112,528,cs),
(112,413,o),
(221,378,o),
(297,378,cs),
(700,378,l)
);
},
{
attr = {
identifier = ID0x7fa77d1a5b30;
lineCapEnd = 1;
lineCapStart = 1;
};
closed = 0;
nodes = (
(385,378,l),
(184,384,o),
(72,309,o),
(72,169,cs),
(72,79,o),
(136,-5,o),
(277,-5,cs),
(395,-5,o),
(517,71,o),
(535,290,cs)
);
},
{
pos = (681,0);
ref = _final;
}
);
width = 813;
}
);
},
{
glyphname = cent;
lastChange = "2024-06-17 14:31:07 +0000";
layers = (
{
background = {
shapes = (
{
attr = {
identifier = ID0x7fa77e051350;
lineCapEnd = "1";
lineCapStart = "1";
};
closed = 0;
nodes = (
(328,198,l),
(301,179,o),
(268,168,o),
(229,168,cs),
(131,168,o),
(76,236,o),
(74,322,cs),
(72,417,o),
(137,520,o),
(256,520,cs),
(290,520,o),
(318,512,o),
(341,498,c)
);
},
{
attr = {
lineCapEnd = "1";
lineCapStart = "1";
};
closed = 0;
nodes = (
(247,647,l),
(222,40,l)
);
}
);
};
layerId = "6F9C6BB4-2DCF-443B-A55D-9CE049090094";
shapes = (
{
attr = {
identifier = ID0x7fa77e051350;
lineCapEnd = "1";
lineCapStart = "1";
};
closed = 0;
nodes = (
(351,198,l),
(250,130,o),
(77,187,o),
(74,332,cs),
(70,501,o),
(241,559,o),
(341,498,c)
);
},
{
attr = {
lineCapEnd = "1";
lineCapStart = "1";
};
closed = 0;
nodes = (
(247,647,l),
(222,40,l)
);
}
);
width = 419;
}
);
unicode = 162;
},
{
glyphname = currency;
lastChange = "2024-06-17 14:31:07 +0000";
layers = (
{
background = {
shapes = (
{
closed = 0;
nodes = (
(299,509,l),
(202,509,o),
(124,431,o),
(124,335,cs),
(124,238,o),
(202,160,o),
(299,160,cs),
(395,160,o),
(473,238,o),
(473,335,cs),
(473,431,o),
(395,509,o),
(299,509,c)
);
},
{
attr = {
lineCapEnd = "1";
lineCapStart = "1";
};
closed = 0;
nodes = (
(82,566,l),
(515,103,l)
);
},
{
attr = {
lineCapEnd = "1";
lineCapStart = "1";
};
closed = 0;
nodes = (
(530,551,l),
(67,118,l)
);
}
);
};
layerId = "6F9C6BB4-2DCF-443B-A55D-9CE049090094";
shapes = (
{
attr = {
lineCapEnd = "1";
lineCapStart = "1";
};
closed = 0;
nodes = (
(82,566,l),
(179,463,l)
);
},
{
attr = {
lineCapEnd = "1";
lineCapStart = "1";
};
closed = 0;
nodes = (
(530,551,l),
(428,455,l)
);
},
{
attr = {
lineCapEnd = "1";
lineCapStart = "1";
};
closed = 0;
nodes = (
(416,209,l),
(515,103,l)
);
},
{
attr = {
lineCapEnd = "1";
lineCapStart = "1";
};
closed = 0;
nodes = (
(171,215,l),
(67,118,l)
);
},
{
closed = 0;
nodes = (
(299,509,l),
(202,509,o),
(124,431,o),
(124,335,cs),
(124,238,o),
(202,160,o),
(299,160,cs),
(395,160,o),
(473,238,o),
(473,335,cs),
(473,431,o),
(395,509,o),
(299,509,c)
);
}
);
width = 598;
}
);
unicode = 164;
},
{
glyphname = dollar;
lastChange = "2024-06-17 14:31:07 +0000";
layers = (
{
background = {
shapes = (
{
attr = {
identifier = ID0x7fa77cce07f0;
lineCapEnd = 1;
lineCapStart = 1;
};
closed = 0;
nodes = (
(79,71,l),
(217,9,o),
(427,32,o),
(422,208,cs),
(418,363,o),
(86,359,o),
(86,516,cs),
(86,653,o),
(286,697,o),
(399,624,cs)
);
},
{
attr = {
lineCapEnd = "1";
lineCapStart = "1";
};
closed = 0;
nodes = (
(262,800,l),
(232,-100,l)
);
}
);
};
hints = (
{
horizontal = 1;
origin = (0,1);
settings = {
deltaV = {
"{100, 100, 0, 0, 0, 0}" = {
"62" = 0;
};
};
};
type = TTDelta;
},
{
horizontal = 1;
origin = (0,1);
settings = {
deltaV = {
"{100, 100, 0, 0, 0, 0}" = {
"62" = 0;
};
};
};
type = TTDelta;
},
{
horizontal = 1;
origin = (0,1);
settings = {
deltaV = {
"{100, 100, 0, 0, 0, 0}" = {
"62" = 0;
};
};
};
type = TTDelta;
},
{
horizontal = 1;
origin = (0,1);
settings = {
deltaV = {
"{100, 100, 0, 0, 0, 0}" = {
"62" = 0;
};
};
};
type = TTDelta;
},
{
horizontal = 1;
origin = (0,0);
settings = {
deltaV = {
"{100, 100, 0, 0, 0, 0}" = {
"62" = 0;
};
};
};
type = TTDelta;
},
{
horizontal = 1;
origin = (0,0);
settings = {
deltaV = {
"{100, 100, 0, 0, 0, 0}" = {
"62" = 0;
};
};
};
type = TTDelta;
},
{
horizontal = 1;
origin = (0,0);
settings = {
deltaV = {
"{100, 100, 0, 0, 0, 0}" = {
"62" = 0;
};
};
};
type = TTDelta;
},
{
horizontal = 1;
origin = (0,0);
settings = {
deltaV = {
"{100, 100, 0, 0, 0, 0}" = {
"62" = 0;
};
};
};
type = TTDelta;
},
{
horizontal = 1;
origin = (0,0);
settings = {
deltaV = {
"{100, 100, 0, 0, 0, 0}" = {
"62" = 0;
};
};
};
type = TTDelta;
},
{
horizontal = 1;
origin = (0,0);
settings = {
deltaV = {
"{100, 100, 0, 0, 0, 0}" = {
"62" = 0;
};
};
};
type = TTDelta;
},
{
horizontal = 1;
origin = (0,0);
settings = {
deltaV = {
"{100, 100, 0, 0, 0, 0}" = {
"62" = 0;
};
};
};
type = TTDelta;
},
{
horizontal = 1;
origin = (0,0);
settings = {
deltaV = {
"{100, 100, 0, 0, 0, 0}" = {
"62" = 0;
};
};
};
type = TTDelta;
},
{
horizontal = 1;
origin = (0,0);
settings = {
deltaV = {
"{100, 100, 0, 0, 0, 0}" = {
"62" = 0;
};
};
};
type = TTDelta;
}
);
layerId = "6F9C6BB4-2DCF-443B-A55D-9CE049090094";
shapes = (
{
attr = {
lineCapEnd = "1";
lineCapStart = "1";
};
closed = 0;
nodes = (
(262,800,l),
(232,-100,l)
);
},
{
pos = (-1,0);
ref = S;
}
);
width = 496;
}
);
unicode = 36;
},
{
glyphname = euro;
lastChange = "2024-06-17 14:31:07 +0000";
layers = (
{
anchors = (
{
name = bottom;
pos = (394,0);
},
{
name = center;
pos = (394,350);
},
{
name = ogonek;
pos = (689,10);
},
{
name = top;
pos = (394,650);
},
{
name = topleft;
pos = (44,700);
},
{
name = topright;
pos = (743,700);
}
);
background = {
shapes = (
{
pos = (56,0);
ref = O;
}
);
};
layerId = "6F9C6BB4-2DCF-443B-A55D-9CE049090094";
shapes = (
{
attr = {
identifier = ID0x7fa77e051350;
lineCapEnd = 1;
lineCapStart = 1;
};
closed = 0;
nodes = (
(465,700,l),
(519,700,o),
(563,684,o),
(600,657,c)
);
},
{
attr = {
identifier = ID0x7fa77e051350;
lineCapEnd = 1;
lineCapStart = 1;
};
closed = 0;
nodes = (
(580,59,l),
(537,22,o),
(484,0,o),
(422,0,cs),
(266,0,o),
(179,136,o),
(176,305,cs),
(172,494,o),
(275,700,o),
(465,700,c)
);
},
{
closed = 0;
nodes = (
(97,441,l),
(513,441,l)
);
},
{
closed = 0;
nodes = (
(77,272,l),
(493,272,l)
);
}
);
width = 667;
}
);
unicode = 8364;
},
{
glyphname = hryvnia;
lastChange = "2024-06-17 14:31:07 +0000";
layers = (
{
hints = (
{
horizontal = 1;
origin = (0,8);
settings = {
deltaV = {
"{100, 100, 0, 0, 0, 0}" = {
"62" = 0;
};
};
};
type = TTDelta;
},
{
horizontal = 1;
origin = (0,8);
settings = {
deltaV = {
"{100, 100, 0, 0, 0, 0}" = {
"62" = 0;
};
};
};
type = TTDelta;
},
{
horizontal = 1;
origin = (0,8);
settings = {
deltaV = {
"{100, 100, 0, 0, 0, 0}" = {
"62" = 0;
};
};
};
type = TTDelta;
},
{
horizontal = 1;
origin = (0,5);
settings = {
deltaV = {
"{100, 100, 0, 0, 0, 0}" = {
"62" = 0;
};
};
};
type = TTDelta;
},
{
horizontal = 1;
origin = (0,2);
settings = {
deltaV = {
"{100, 100, 0, 0, 0, 0}" = {
"62" = 0;
};
};
};
type = TTDelta;
},
{
horizontal = 1;
origin = (0,2);
settings = {
deltaV = {
"{100, 100, 0, 0, 0, 0}" = {
"62" = 0;
};
};
};
type = TTDelta;
},
{
horizontal = 1;
origin = (0,2);
settings = {
deltaV = {
"{100, 100, 0, 0, 0, 0}" = {
"62" = 0;
};
};
};
type = TTDelta;
},
{
horizontal = 1;
origin = (0,9);
settings = {
deltaV = {
"{100, 100, 0, 0, 0, 0}" = {
"62" = 0;
};
};
};
type = TTDelta;
},
{
horizontal = 1;
origin = (0,9);
settings = {
deltaV = {
"{100, 100, 0, 0, 0, 0}" = {
"62" = 0;
};
};
};
type = TTDelta;
},
{
horizontal = 1;
origin = (0,9);
settings = {
deltaV = {
"{100, 100, 0, 0, 0, 0}" = {
"62" = 0;
};
};
};
type = TTDelta;
},
{
horizontal = 1;
origin = (0,9);
settings = {
deltaV = {
"{100, 100, 0, 0, 0, 0}" = {
"62" = 0;
};
};
};
type = TTDelta;
},
{
horizontal = 1;
origin = (0,9);
settings = {
deltaV = {
"{100, 100, 0, 0, 0, 0}" = {
"62" = 0;
};
};
};
type = TTDelta;
},
{
horizontal = 1;
origin = (0,9);
settings = {
deltaV = {
"{100, 100, 0, 0, 0, 0}" = {
"62" = 0;
};
};
};
type = TTDelta;
}
);
layerId = "6F9C6BB4-2DCF-443B-A55D-9CE049090094";
shapes = (
{
attr = {
identifier = ID0x7fadb08ecf00;
lineCapEnd = 1;
lineCapStart = 1;
};
closed = 0;
nodes = (
(159,664,ls),
(274,737,o),
(463,693,o),
(461,556,cs),
(457,368,o),
(145,364,o),
(128,188,cs),
(108,-19,o),
(376,-27,o),
(468,31,c)
);
},
{
closed = 0;
nodes = (
(92,441,l),
(508,441,l)
);
},
{
closed = 0;
nodes = (
(72,272,l),
(488,272,l)
);
}
);
width = 581;
}
);
unicode = 8372;
},
{
glyphname = ruble;
lastChange = "2024-06-17 14:31:07 +0000";
layers = (
{
layerId = "6F9C6BB4-2DCF-443B-A55D-9CE049090094";
shapes = (
{
pos = (92,0);
ref = P;
},
{
closed = 0;
nodes = (
(113,304,l),
(221,304,l)
);
},
{
closed = 0;
nodes = (
(93,135,l),
(509,135,l)
);
}
);
width = 625;
}
);
unicode = 8381;
},
{
glyphname = rupeeIndian;
lastChange = "2024-06-17 14:31:07 +0000";
layers = (
{
layerId = "6F9C6BB4-2DCF-443B-A55D-9CE049090094";
shapes = (
{
attr = {
identifier = ID0x7fada9ba0a70;
lineCapEnd = 1;
lineCapStart = 1;
};
closed = 0;
nodes = (
(333,700,l),
(433,700,o),
(501,661,o),
(501,569,cs),
(501,428,o),
(387,338,o),
(158,338,c)
);
},
{
attr = {
identifier = ID0x7fada9ba0a70;
lineCapEnd = 1;
lineCapStart = 1;
};
closed = 0;
nodes = (
(165,338,l),
(520,0,l)
);
},
{
closed = 0;
nodes = (
(86,700,l),
(634,700,l)
);
},
{
closed = 0;
nodes = (
(66,531,l),
(622,531,l)
);
}
);
width = 702;
}
);
unicode = 8377;
},
{
glyphname = sheqel;
lastChange = "2024-06-17 14:31:07 +0000";
layers = (
{
layerId = "6F9C6BB4-2DCF-443B-A55D-9CE049090094";
shapes = (
{
attr = {
lineCapEnd = "1";
lineCapStart = "1";
};
closed = 0;
nodes = (
(413,250,l),
(422,460,ls),
(426,561,o),
(365,650,o),
(266,650,cs),
(169,650,o),
(94,563,o),
(94,460,cs),
(93,50,l)
);
},
{
attr = {
lineCapEnd = "1";
lineCapStart = "1";
};
closed = 0;
nodes = (
(256,440,l),
(247,230,ls),
(243,129,o),
(304,40,o),
(403,40,cs),
(500,40,o),
(575,127,o),
(575,230,cs),
(576,640,l)
);
}
);
width = 669;
}
);
unicode = 8362;
},
{
glyphname = sterling;
lastChange = "2024-06-17 14:31:07 +0000";
layers = (
{
background = {
shapes = (
{
attr = {
identifier = ID0x7fadae460320;
lineCapEnd = 1;
lineCapStart = 1;
};
closed = 0;
nodes = (
(537,679,l),
(487,693,o),
(443,700,o),
(405,700,cs),
(250,700,o),
(185,583,o),
(185,326,c)
);
}
);
};
layerId = "6F9C6BB4-2DCF-443B-A55D-9CE049090094";
shapes = (
{
attr = {
identifier = ID0x7fadae460320;
lineCapEnd = "1";
lineCapStart = "1";
};
closed = 0;
nodes = (
(537,679,l),
(487,693,o),
(443,700,o),
(405,700,cs),
(250,700,o),
(165,571,o),
(225,326,cs),
(273,130,o),
(162,0,o),
(65,0,c),
(546,0,l)
);
},
{
closed = 0;
nodes = (
(74,337,l),
(490,337,l)
);
}
);
width = 612;
}
);
unicode = 163;
},
{
glyphname = won;
lastChange = "2024-06-17 14:31:08 +0000";
layers = (
{
layerId = "6F9C6BB4-2DCF-443B-A55D-9CE049090094";
shapes = (
{
pos = (46,0);
ref = W;
},
{
closed = 0;
nodes = (
(87,361,l),
(1003,361,l)
);
},
{
closed = 0;
nodes = (
(67,192,l),
(983,192,l)
);
}
);
width = 1148;
}
);
unicode = 8361;
},
{
glyphname = yen;
lastChange = "2024-06-17 14:31:08 +0000";
layers = (
{
layerId = "6F9C6BB4-2DCF-443B-A55D-9CE049090094";
shapes = (
{
pos = (41,0);
ref = Y;
},
{
closed = 0;
nodes = (
(76,361,l),
(532,361,l)
);
},
{
closed = 0;
nodes = (
(66,192,l),
(522,192,l)
);
}
);
width = 657;
}
);
unicode = 165;
},
{
glyphname = minus;
lastChange = "2024-05-27 08:27:03 +0000";
layers = (
{
layerId = "6F9C6BB4-2DCF-443B-A55D-9CE049090094";
shapes = (
{
closed = 0;
nodes = (
(140,250,l),
(570,250,l)
);
}
);
width = 710;
}
);
unicode = 8722;
},
{
glyphname = notequal;
lastChange = "2024-06-17 14:31:08 +0000";
layers = (
{
layerId = "6F9C6BB4-2DCF-443B-A55D-9CE049090094";
shapes = (
{
pos = (-72,0);
ref = equal;
},
{
attr = {
identifier = ID0x7fadae6cd790;
lineCapEnd = "1";
lineCapStart = "1";
};
closed = 0;
nodes = (
(373,512,l),
(178,0,l)
);
}
);
width = 566;
}
);
unicode = 8800;
},
{
glyphname = greater;
lastChange = "2024-06-17 14:31:08 +0000";
layers = (
{
layerId = "6F9C6BB4-2DCF-443B-A55D-9CE049090094";
shapes = (
{
closed = 0;
nodes = (
(67,480,l),
(497,250,l),
(67,20,l)
);
}
);
width = 565;
}
);
unicode = 62;
},
{
glyphname = approxequal;
lastChange = "2024-06-17 14:31:17 +0000";
layers = (
{
anchors = (
{
name = top;
pos = (351,426);
}
);
background = {
shapes = (
{
closed = 0;
nodes = (
(135,350,l),
(565,350,l)
);
},
{
closed = 0;
nodes = (
(135,150,l),
(565,150,l)
);
}
);
};
layerId = "6F9C6BB4-2DCF-443B-A55D-9CE049090094";
shapes = (
{
pos = (-5,-75);
ref = asciitilde;
},
{
pos = (-5,125);
ref = asciitilde;
}
);
width = 588;
}
);
unicode = 8776;
},
{
glyphname = asciitilde;
lastChange = "2024-06-17 14:31:08 +0000";
layers = (
{
layerId = "6F9C6BB4-2DCF-443B-A55D-9CE049090094";
shapes = (
{
attr = {
identifier = ID0x7fadb1868510;
lineCapEnd = "1";
lineCapStart = "1";
};
closed = 0;
nodes = (
(80,209,l),
(111,263,o),
(126,296,o),
(186,296,cs),
(224,296,o),
(261,271,o),
(299,246,cs),
(337,221,o),
(374,196,o),
(412,196,cs),
(472,196,o),
(487,229,o),
(518,283,c)
);
}
);
width = 598;
}
);
unicode = 126;
},
{
glyphname = logicalnot;
lastChange = "2024-06-17 14:31:08 +0000";
layers = (
{
layerId = "6F9C6BB4-2DCF-443B-A55D-9CE049090094";
shapes = (
{
closed = 0;
nodes = (
(530,150,l),
(530,350,l),
(100,350,l)
);
}
);
width = 630;
}
);
unicode = 172;
},
{
glyphname = infinity;
lastChange = "2024-06-17 14:31:08 +0000";
layers = (
{
hints = (
{
horizontal = 1;
place = (637,0);
settings = {
deltaV = {
"{100, 100, 0, 0, 0, 0}" = {
"62" = 0;
};
};
};
type = TTDelta;
},
{
horizontal = 1;
place = (637,0);
settings = {
deltaV = {
"{100, 100, 0, 0, 0, 0}" = {
"62" = 0;
};
};
};
type = TTDelta;
},
{
horizontal = 1;
place = (637,0);
settings = {
deltaV = {
"{100, 100, 0, 0, 0, 0}" = {
"62" = 0;
};
};
};
type = TTDelta;
},
{
horizontal = 1;
place = (637,0);
settings = {
deltaV = {
"{100, 100, 0, 0, 0, 0}" = {
"62" = 0;
};
};
};
type = TTDelta;
},
{
horizontal = 1;
place = (637,0);
settings = {
deltaV = {
"{100, 100, 0, 0, 0, 0}" = {
"62" = 0;
};
};
};
type = TTDelta;
},
{
horizontal = 1;
place = (637,0);
settings = {
deltaV = {
"{100, 100, 0, 0, 0, 0}" = {
"62" = 0;
};
};
};
type = TTDelta;
},
{
horizontal = 1;
place = (637,0);
settings = {
deltaV = {
"{100, 100, 0, 0, 0, 0}" = {
"62" = 0;
};
};
};
type = TTDelta;
},
{
horizontal = 1;
place = (637,0);
settings = {
deltaV = {
"{100, 100, 0, 0, 0, 0}" = {
"62" = 0;
};
};
};
type = TTDelta;
},
{
horizontal = 1;
place = (637,0);
settings = {
deltaV = {
"{100, 100, 0, 0, 0, 0}" = {
"62" = 0;
};
};
};
type = TTDelta;
},
{
horizontal = 1;
place = (637,0);
settings = {
deltaV = {
"{100, 100, 0, 0, 0, 0}" = {
"62" = 0;
};
};
};
type = TTDelta;
},
{
horizontal = 1;
place = (637,0);
settings = {
deltaV = {
"{100, 100, 0, 0, 0, 0}" = {
"62" = 0;
};
};
};
type = TTDelta;
},
{
horizontal = 1;
place = (637,0);
settings = {
deltaV = {
"{100, 100, 0, 0, 0, 0}" = {
"62" = 0;
};
};
};
type = TTDelta;
},
{
horizontal = 1;
place = (637,0);
settings = {
deltaV = {
"{100, 100, 0, 0, 0, 0}" = {
"62" = 0;
};
};
};
type = TTDelta;
}
);
layerId = "6F9C6BB4-2DCF-443B-A55D-9CE049090094";
shapes = (
{
attr = {
identifier = ID0x7fadab42b840;
lineCapEnd = "1";
lineCapStart = "1";
};
closed = 0;
nodes = (
(450,380,ls),
(405,495,o),
(326,544,o),
(253,544,cs),
(162,544,o),
(80,469,o),
(80,351,cs),
(80,235,o),
(165,155,o),
(256,155,cs),
(323,155,o),
(394,199,o),
(435,304,cs),
(471,396,ls),
(513,501,o),
(583,545,o),
(650,545,cs),
(741,545,o),
(826,465,o),
(826,349,cs),
(826,231,o),
(744,156,o),
(653,156,cs),
(580,156,o),
(501,205,o),
(456,320,cs)
);
}
);
width = 906;
}
);
unicode = 8734;
},
{
glyphname = integral;
lastChange = "2024-06-17 14:31:08 +0000";
layers = (
{
layerId = "6F9C6BB4-2DCF-443B-A55D-9CE049090094";
shapes = (
{
attr = {
identifier = ID0x7fea05ea0240;
lineCapEnd = "1";
lineCapStart = "1";
};
closed = 0;
nodes = (
(484,836,l),
(391,836,o),
(346,796,o),
(330,700,cs),
(219,0,ls),
(203,-96,o),
(158,-136,o),
(65,-136,c)
);
}
);
width = 549;
}
);
unicode = 8747;
},
{
glyphname = product;
lastChange = "2024-06-17 14:31:08 +0000";
layers = (
{
layerId = "6F9C6BB4-2DCF-443B-A55D-9CE049090094";
shapes = (
{
attr = {
identifier = ID0x7fadae527ce0;
lineCapEnd = 1;
lineCapStart = 1;
};
closed = 0;
nodes = (
(94,700,l),
(654,700,l)
);
},
{
attr = {
identifier = ID0x7fadae527ce0;
lineCapEnd = 1;
lineCapStart = 1;
};
closed = 0;
nodes = (
(224,700,l),
(211,0,l)
);
},
{
attr = {
identifier = ID0x7fadae527ce0;
lineCapEnd = 1;
lineCapStart = 1;
};
closed = 0;
nodes = (
(524,700,l),
(511,0,l)
);
}
);
width = 748;
}
);
unicode = 8719;
},
{
glyphname = summation;
lastChange = "2024-06-17 14:31:08 +0000";
layers = (
{
layerId = "6F9C6BB4-2DCF-443B-A55D-9CE049090094";
shapes = (
{
attr = {
identifier = ID0x7fadae527ce0;
lineCapEnd = "1";
lineCapStart = "1";
};
closed = 0;
nodes = (
(486,700,l),
(86,700,l),
(311,363,l),
(66,0,l),
(486,0,l)
);
}
);
width = 553;
}
);
unicode = 8721;
},
{
glyphname = radical;
lastChange = "2024-06-17 14:31:08 +0000";
layers = (
{
layerId = "6F9C6BB4-2DCF-443B-A55D-9CE049090094";
shapes = (
{
closed = 0;
nodes = (
(67,360,l),
(247,-70,l),
(571,753,l),
(931,753,l)
);
}
);
width = 998;
}
);
unicode = 8730;
},
{
glyphname = percent;
lastChange = "2024-06-17 14:31:08 +0000";
layers = (
{
guides = (
{
angle = 90;
pos = (135,-530);
},
{
angle = 90;
pos = (635,-530);
}
);
layerId = "6F9C6BB4-2DCF-443B-A55D-9CE049090094";
shapes = (
{
attr = {
identifier = ID0x7fb89da4fcf0;
lineCapEnd = "1";
lineCapStart = "1";
};
closed = 0;
nodes = (
(632,700,l),
(135,0,l)
);
},
{
pos = (-12,0);
ref = degree;
},
{
pos = (450,-440);
ref = degree;
}
);
userData = {
assembly = "NPUSHB[ ]	/* 29 values pushed */
1 56 56 64 57 47 50 44 36 28 22 16 10 4 53 47 40 32 25 19 13 7 3 1 0 2 1 40 70 
SROUND[ ]	/* SuperRound */
MDAP[1]	/* MoveDirectAbsPt */
SHZ[1]	/* ShiftZoneByLastPoint */
RTG[ ]	/* RoundToGrid */
SVTCA[0]	/* SetFreedomAndProjectionVectorToAxis */
MDAP[1]	/* MoveDirectAbsPt */
MDAP[1]	/* MoveDirectAbsPt */
SVTCA[1]	/* SetFreedomAndProjectionVectorToAxis */
MDAP[0]	/* MoveDirectAbsPt */
MDAP[0]	/* MoveDirectAbsPt */
MDAP[0]	/* MoveDirectAbsPt */
MDAP[0]	/* MoveDirectAbsPt */
MDAP[0]	/* MoveDirectAbsPt */
MDAP[0]	/* MoveDirectAbsPt */
MDAP[0]	/* MoveDirectAbsPt */
MDAP[0]	/* MoveDirectAbsPt */
MDAP[0]	/* MoveDirectAbsPt */
MDAP[0]	/* MoveDirectAbsPt */
SVTCA[0]	/* SetFreedomAndProjectionVectorToAxis */
MDAP[0]	/* MoveDirectAbsPt */
MDAP[0]	/* MoveDirectAbsPt */
MDAP[0]	/* MoveDirectAbsPt */
MDAP[0]	/* MoveDirectAbsPt */
MDAP[0]	/* MoveDirectAbsPt */
MDAP[0]	/* MoveDirectAbsPt */
MDAP[0]	/* MoveDirectAbsPt */
MDAP[0]	/* MoveDirectAbsPt */
IUP[1]	/* InterpolateUntPts */
IUP[0]	/* InterpolateUntPts */
SVTCA[1]	/* SetFreedomAndProjectionVectorToAxis */
MD[0]	/* MeasureDistance */
ROUND[00]	/* Round */
PUSHW[ ]	/* 2 values pushed */
40 56 
MD[0]	/* MeasureDistance */
ROUND[00]	/* Round */
SUB[ ]	/* Subtract */
PUSHB[ ]	/* 1 value pushed */
64 
GT[ ]	/* GreaterThan */
IF[ ]	/* If */
SHPIX[ ]	/* ShiftZoneByPixel */
SRP1[ ]	/* SetRefPoint1 */
SHZ[1]	/* ShiftZoneByLastPoint */
PUSHW[ ]	/* 2 values pushed */
56 -64 
SHPIX[ ]	/* ShiftZoneByPixel */
EIF[ ]	/* EndIf */";
};
width = 842;
}
);
note = percent;
unicode = 37;
},
{
glyphname = leftArrow;
lastChange = "2024-06-17 14:31:08 +0000";
layers = (
{
layerId = "6F9C6BB4-2DCF-443B-A55D-9CE049090094";
shapes = (
{
attr = {
lineCapEnd = "1";
lineCapStart = "1";
};
closed = 0;
nodes = (
(79,320,l),
(658,320,l)
);
},
{
closed = 0;
nodes = (
(398,89,l),
(68,319,l),
(398,549,l)
);
}
);
width = 725;
}
);
unicode = 8592;
},
{
glyphname = dottedCircle;
lastChange = "2024-06-17 14:31:08 +0000";
layers = (
{
layerId = "6F9C6BB4-2DCF-443B-A55D-9CE049090094";
shapes = (
{
closed = 1;
nodes = (
(620,-3,o),
(778,155,o),
(778,349,cs),
(778,542,o),
(620,700,o),
(427,700,cs),
(233,700,o),
(75,542,o),
(75,349,cs),
(75,155,o),
(233,-3,o),
(427,-3,cs)
);
}
);
width = 853;
}
);
unicode = 9676;
},
{
glyphname = dotaccentcomb;
lastChange = "2024-05-27 08:27:03 +0000";
layers = (
{
anchors = (
{
name = _top;
pos = (30,360);
},
{
name = top;
pos = (30,545);
}
);
background = {
shapes = (
{
closed = 1;
nodes = (
(48,461,o),
(59,474,o),
(59,503,cs),
(59,529,o),
(48,545,o),
(29,545,cs),
(11,545,o),
(0,531,o),
(0,503,cs),
(0,476,o),
(10,461,o),
(29,461,cs)
);
}
);
};
layerId = "6F9C6BB4-2DCF-443B-A55D-9CE049090094";
shapes = (
{
closed = 0;
nodes = (
(29,525,l),
(29,481,l)
);
}
);
width = 59;
}
);
unicode = 775;
},
{
glyphname = grave;
lastChange = "2024-05-27 08:27:03 +0000";
layers = (
{
layerId = "6F9C6BB4-2DCF-443B-A55D-9CE049090094";
shapes = (
{
attr = {
lineCapEnd = "1";
lineCapStart = "1";
};
closed = 0;
nodes = (
(20,604,l),
(138,484,l)
);
}
);
width = 158;
}
);
unicode = 96;
},
{
glyphname = acute;
lastChange = "2024-05-27 08:27:03 +0000";
layers = (
{
background = {
shapes = (
{
pos = (-259,0);
ref = a;
}
);
};
layerId = "6F9C6BB4-2DCF-443B-A55D-9CE049090094";
shapes = (
{
attr = {
lineCapEnd = 1;
lineCapStart = 1;
};
closed = 0;
nodes = (
(20,484,l),
(138,604,l)
);
}
);
width = 158;
}
);
unicode = 180;
},
{
glyphname = circumflex;
lastChange = "2024-05-27 08:27:03 +0000";
layers = (
{
layerId = "6F9C6BB4-2DCF-443B-A55D-9CE049090094";
shapes = (
{
attr = {
identifier = ID0x7fa2c539d010;
lineCapEnd = 1;
lineCapStart = 1;
};
closed = 0;
nodes = (
(0,484,l),
(98,604,l),
(196,484,l)
);
}
);
width = 196;
}
);
unicode = 710;
},
{
glyphname = breve;
lastChange = "2024-05-27 08:27:03 +0000";
layers = (
{
layerId = "6F9C6BB4-2DCF-443B-A55D-9CE049090094";
shapes = (
{
closed = 0;
nodes = (
(0,602,l),
(0,531,o),
(58,473,o),
(129,473,cs),
(198,473,o),
(256,531,o),
(256,602,c)
);
}
);
width = 256;
}
);
unicode = 728;
},
{
glyphname = ring;
lastChange = "2024-05-27 08:27:03 +0000";
layers = (
{
layerId = "6F9C6BB4-2DCF-443B-A55D-9CE049090094";
shapes = (
{
closed = 0;
nodes = (
(98,669,ls),
(44,669,o),
(0,625,o),
(0,571,cs),
(0,517,o),
(44,473,o),
(98,473,cs),
(152,473,o),
(196,517,o),
(196,571,cs),
(196,625,o),
(152,669,o),
(98,669,c)
);
}
);
width = 196;
}
);
unicode = 730;
},
{
glyphname = tilde;
lastChange = "2024-05-27 08:27:03 +0000";
layers = (
{
background = {
shapes = (
{
attr = {
lineCapEnd = "1";
lineCapStart = "1";
};
closed = 0;
nodes = (
(25,507,l),
(44,539,o),
(54,558,o),
(92,558,cs),
(139,558,o),
(185,498,o),
(235,498,cs),
(270,498,o),
(281,521,o),
(300,550,c)
);
}
);
};
layerId = "6F9C6BB4-2DCF-443B-A55D-9CE049090094";
shapes = (
{
attr = {
lineCapEnd = "1";
lineCapStart = "1";
};
closed = 0;
nodes = (
(33,507,l),
(51,539,o),
(60,558,o),
(95,558,cs),
(140,558,o),
(184,498,o),
(231,498,cs),
(264,498,o),
(274,521,o),
(293,550,c)
);
}
);
width = 325;
}
);
unicode = 732;
},
{
glyphname = macron;
lastChange = "2024-05-27 08:27:03 +0000";
layers = (
{
layerId = "6F9C6BB4-2DCF-443B-A55D-9CE049090094";
shapes = (
{
attr = {
lineCapEnd = "1";
lineCapStart = "1";
};
closed = 0;
nodes = (
(0,500,l),
(260,500,l)
);
}
);
width = 260;
}
);
unicode = 175;
},
{
glyphname = cedilla;
lastChange = "2024-06-17 10:28:35 +0000";
layers = (
{
background = {
shapes = (
{
pos = (-153,0);
ref = c;
}
);
};
layerId = "6F9C6BB4-2DCF-443B-A55D-9CE049090094";
shapes = (
{
attr = {
lineCapEnd = 1;
lineCapStart = 1;
};
closed = 0;
nodes = (
(172,109,l),
(144,34,o),
(105,-42,o),
(30,-120,c)
);
}
);
width = 182;
}
);
unicode = 184;
},
{
glyphname = ogonek;
lastChange = "2024-05-27 08:27:03 +0000";
layers = (
{
layerId = "6F9C6BB4-2DCF-443B-A55D-9CE049090094";
shapes = (
{
attr = {
lineCapEnd = "1";
lineCapStart = "1";
};
closed = 0;
nodes = (
(162,0,l),
(56,-57,o),
(-55,-260,o),
(137,-211,c)
);
}
);
width = 300;
}
);
unicode = 731;
},
{
export = 0;
glyphname = _part.bucle;
lastChange = "2024-05-27 08:27:03 +0000";
layers = (
{
background = {
shapes = (
{
attr = {
lineCapEnd = 1;
lineCapStart = 1;
strokeHeight = 45;
strokeWidth = 40;
};
closed = 0;
nodes = (
(276,355,l),
(240,362,o),
(208,365,o),
(180,365,cs),
(69,365,o),
(18,308,o),
(18,150,cs),
(18,79,o),
(61,0,o),
(145,0,cs),
(203,0,o),
(278,50,o),
(278,150,c)
);
}
);
};
layerId = "6F9C6BB4-2DCF-443B-A55D-9CE049090094";
shapes = (
{
attr = {
lineCapEnd = 1;
lineCapStart = 1;
};
closed = 0;
nodes = (
(286,355,l),
(257,361,o),
(220,364,o),
(194,364,cs),
(88,364,o),
(17,311,o),
(17,180,cs),
(17,42,o),
(81,-5,o),
(150,-5,cs),
(214,-5,o),
(278,50,o),
(288,150,c)
);
}
);
width = 296;
}
);
},
{
export = 0;
glyphname = _part.n.ground;
lastChange = "2024-05-27 08:27:03 +0000";
layers = (
{
background = {
shapes = (
{
closed = 0;
nodes = (
(11,191,l),
(7,305,o),
(55,360,o),
(109,360,cs),
(168,360,o),
(201,316,o),
(201,227,cs),
(201,100,ls),
(201,30,o),
(224,0,o),
(254,0,c)
);
}
);
};
guides = (
{
angle = 80.8858;
pos = (15,214);
}
);
layerId = "6F9C6BB4-2DCF-443B-A55D-9CE049090094";
shapes = (
{
closed = 0;
nodes = (
(201,191,l),
(206,305,o),
(249,360,o),
(303,360,cs),
(362,360,o),
(395,316,o),
(395,227,cs),
(395,100,ls),
(395,30,o),
(418,0,o),
(448,0,c)
);
},
{
closed = 0;
nodes = (
(201,0,l),
(201,227,ls),
(201,316,o),
(183,360,o),
(127,360,cs),
(45,360,o),
(26,281,o),
(0,150,c)
);
}
);
width = 448;
}
);
},
{
export = 0;
glyphname = _part.n.init;
lastChange = "2024-05-27 08:27:03 +0000";
layers = (
{
guides = (
{
angle = 65.4752;
pos = (32,113);
}
);
layerId = "6F9C6BB4-2DCF-443B-A55D-9CE049090094";
shapes = (
{
closed = 0;
nodes = (
(25,100,l),
(68,193,o),
(82,360,o),
(147,360,cs)
);
}
);
width = 147;
}
);
},
{
export = 0;
glyphname = _part.n.tr.entra.largo;
lastChange = "2024-05-27 08:27:03 +0000";
layers = (
{
layerId = "6F9C6BB4-2DCF-443B-A55D-9CE049090094";
shapes = (
{
closed = 0;
nodes = (
(0,0,l),
(48,174,o),
(77,360,o),
(142,360,cs)
);
}
);
width = 142;
}
);
},
{
export = 0;
glyphname = _part.n.tr.entra.sale.medio.alto;
lastChange = "2024-05-27 08:27:03 +0000";
layers = (
{
background = {
shapes = (
{
closed = 0;
nodes = (
(0,0,l),
(33,0,o),
(76,33,o),
(106,100,cs)
);
}
);
};
guides = (
{
angle = 260.5377;
pos = (101,120);
}
);
layerId = "6F9C6BB4-2DCF-443B-A55D-9CE049090094";
shapes = (
{
closed = 0;
nodes = (
(106,237,ls),
(87,101,o),
(34,0,o),
(0,0,c)
);
}
);
width = 106;
}
);
},
{
export = 0;
glyphname = _arco1;
lastChange = "2024-05-27 08:27:03 +0000";
layers = (
{
background = {
shapes = (
{
closed = 0;
nodes = (
(-30,360,ls),
(34,360,o),
(69,327,o),
(69,237,cs),
(69,0,ls)
);
}
);
};
layerId = "6F9C6BB4-2DCF-443B-A55D-9CE049090094";
shapes = (
{
closed = 0;
nodes = (
(0,360,ls),
(57,360,o),
(79,333,o),
(79,257,cs),
(79,0,ls)
);
}
);
width = 79;
}
);
},
{
export = 0;
glyphname = _arco2;
lastChange = "2024-05-27 08:27:03 +0000";
layers = (
{
background = {
shapes = (
{
attr = {
lineCapEnd = "1";
lineCapStart = "1";
};
closed = 0;
nodes = (
(0,171,l),
(6,305,o),
(76,360,o),
(135,360,cs),
(199,360,o),
(234,327,o),
(234,237,cs),
(234,0,ls)
);
}
);
};
layerId = "6F9C6BB4-2DCF-443B-A55D-9CE049090094";
shapes = (
{
attr = {
lineCapEnd = "1";
lineCapStart = "1";
};
closed = 0;
nodes = (
(0,201,l),
(6,325,o),
(76,360,o),
(135,360,cs),
(199,360,o),
(234,327,o),
(234,237,cs),
(234,0,ls)
);
}
);
width = 234;
}
);
},
{
export = 0;
glyphname = _arco3;
lastChange = "2024-06-14 07:46:42 +0000";
layers = (
{
background = {
shapes = (
{
attr = {
lineCapEnd = 1;
lineCapStart = 1;
};
closed = 0;
nodes = (
(0,171,l),
(6,305,o),
(76,360,o),
(135,360,cs),
(199,360,o),
(234,327,o),
(234,237,cs),
(234,150,l)
);
},
{
pos = (234,0);
ref = _conect.right;
},
{
pos = (313,0);
ref = _conect.left;
}
);
};
layerId = "6F9C6BB4-2DCF-443B-A55D-9CE049090094";
shapes = (
{
attr = {
lineCapEnd = 1;
lineCapStart = 1;
};
closed = 0;
nodes = (
(0,201,l),
(6,325,o),
(76,360,o),
(135,360,cs),
(199,360,o),
(234,327,o),
(234,237,cs),
(234,170,l)
);
}
);
width = 234;
}
);
},
{
export = 0;
glyphname = _arco_v;
lastChange = "2024-05-27 08:27:03 +0000";
layers = (
{
background = {
shapes = (
{
closed = 0;
nodes = (
(0,-5,l),
(187,-5,o),
(111,360,o),
(290,360,cs)
);
}
);
};
layerId = "6F9C6BB4-2DCF-443B-A55D-9CE049090094";
shapes = (
{
closed = 0;
nodes = (
(0,-5,l),
(187,-5,o),
(190,360,o),
(290,360,cs)
);
}
);
width = 290;
}
);
},
{
export = 0;
glyphname = _entra_s;
lastChange = "2024-05-27 08:27:03 +0000";
layers = (
{
background = {
shapes = (
{
ref = _conect.left;
}
);
};
layerId = "6F9C6BB4-2DCF-443B-A55D-9CE049090094";
shapes = (
{
attr = {
identifier = ID0x7fc21b80f700;
lineCapEnd = "1";
lineCapStart = "1";
};
closed = 0;
nodes = (
(0,-5,l),
(150,-5,o),
(180,157,o),
(236,360,c)
);
}
);
width = 236;
}
);
},
{
export = 0;
glyphname = _final;
lastChange = "2024-06-14 09:09:33 +0000";
layers = (
{
background = {
shapes = (
{
attr = {
identifier = ID0x7f8322cab0f0;
lineCapEnd = "1";
lineCapStart = "1";
};
closed = 0;
nodes = (
(0,-5,l),
(72,-5,o),
(115,41,o),
(123,93,c)
);
}
);
};
layerId = "6F9C6BB4-2DCF-443B-A55D-9CE049090094";
shapes = (
{
attr = {
identifier = ID0x7f80efeab990;
lineCapEnd = "1";
lineCapStart = "1";
};
closed = 0;
nodes = (
(0,-5,l),
(23,-5,o),
(45,-2,o),
(66,5,c)
);
}
);
width = 66;
}
);
},
{
export = 0;
glyphname = _a.master;
lastChange = "2024-05-27 08:28:48 +0000";
layers = (
{
anchors = (
{
name = top;
pos = (178,360);
}
);
background = {
shapes = (
{
attr = {
identifier = ID0x7f7de989f3a0;
lineCapEnd = "1";
lineCapStart = "1";
};
closed = 0;
nodes = (
(271,357,l),
(271,150,l)
);
}
);
};
layerId = "6F9C6BB4-2DCF-443B-A55D-9CE049090094";
shapes = (
{
alignment = -1;
pos = (-17,0);
ref = _part.bucle;
},
{
attr = {
identifier = ID0x7f7de989f3a0;
lineCapEnd = "1";
lineCapStart = "1";
};
closed = 0;
nodes = (
(271,354,l),
(271,150,l)
);
}
);
width = 271;
}
);
},
{
export = 0;
glyphname = _ae.master;
lastChange = "2024-06-14 12:48:18 +0000";
layers = (
{
layerId = "6F9C6BB4-2DCF-443B-A55D-9CE049090094";
shapes = (
{
alignment = -1;
pos = (-17,0);
ref = _part.bucle;
},
{
attr = {
identifier = ID0x7f80efde6920;
lineCapEnd = "1";
lineCapStart = "1";
};
closed = 0;
nodes = (
(271,357,l),
(271,168,ls),
(271,49,o),
(333,-5,o),
(472,-5,cs)
);
},
{
closed = 0;
nodes = (
(271,168,l),
(482,158,o),
(524,364,o),
(409,364,cs),
(352,364,o),
(271,304,o),
(271,175,cs)
);
}
);
width = 472;
}
);
},
{
export = 0;
glyphname = _arco.h;
lastChange = "2024-05-27 08:27:03 +0000";
layers = (
{
background = {
shapes = (
{
attr = {
identifier = ID0x7f8325d1e2e0;
lineCapEnd = "1";
lineCapStart = "1";
};
closed = 0;
nodes = (
(128,150,l),
(128,267,ls),
(128,327,o),
(106,360,o),
(67,360,cs),
(8,360,o),
(-95,257,o),
(-127,180,c)
);
}
);
};
layerId = "6F9C6BB4-2DCF-443B-A55D-9CE049090094";
shapes = (
{
attr = {
identifier = ID0x7f8325d1e2e0;
lineCapEnd = "1";
lineCapStart = "1";
};
closed = 0;
nodes = (
(128,150,l),
(128,267,ls),
(128,333,o),
(103,359,o),
(68.008,359,cs),
(14,359,o),
(-61,299,o),
(-102,227,cs),
(-127,183,l)
);
}
);
width = 128;
}
);
},
{
export = 0;
glyphname = _arco.v;
lastChange = "2024-05-27 08:27:03 +0000";
layers = (
{
layerId = "6F9C6BB4-2DCF-443B-A55D-9CE049090094";
shapes = (
{
attr = {
identifier = ID0x7fe6d54ed9c0;
lineCapEnd = 1;
lineCapStart = 1;
};
closed = 0;
nodes = (
(50,150,l),
(50,237,ls),
(50,326,o),
(49,360,o),
(0,360,cs)
);
}
);
width = 50;
}
);
},
{
export = 0;
glyphname = _arcos.w;
lastChange = "2024-05-27 08:27:03 +0000";
layers = (
{
background = {
shapes = (
{
pos = (-110,0);
ref = v;
}
);
};
layerId = "6F9C6BB4-2DCF-443B-A55D-9CE049090094";
shapes = (
{
attr = {
identifier = ID0x7f88630096e0;
lineCapEnd = 1;
lineCapStart = 1;
};
closed = 0;
nodes = (
(260,355,l),
(260,210,ls),
(260,133,o),
(187,-6,o),
(88,-6,cs),
(15,-6,o),
(0,49,o),
(0,150,cs)
);
},
{
attr = {
identifier = ID0x7fdbcacde340;
lineCapEnd = "1";
lineCapStart = "1";
};
closed = 0;
nodes = (
(259,190,l),
(259,62,o),
(317,-5,o),
(391,-5,c)
);
}
);
width = 391;
}
);
},
{
export = 0;
glyphname = _brazo.b;
lastChange = "2024-05-27 08:27:03 +0000";
layers = (
{
background = {
shapes = (
{
attr = {
identifier = ID0x7fdbca0add30;
lineCapEnd = "1";
lineCapStart = "1";
};
closed = 0;
nodes = (
(-69,323,l),
(-36,303,o),
(48,268,o),
(98,268,cs)
);
}
);
};
layerId = "6F9C6BB4-2DCF-443B-A55D-9CE049090094";
shapes = (
{
attr = {
identifier = ID0x7fd5a626cf40;
lineCapEnd = "1";
lineCapStart = "1";
};
closed = 0;
nodes = (
(-70,324,l),
(-36,293,o),
(38,218,o),
(118,218,cs)
);
}
);
width = 118;
}
);
},
{
export = 0;
glyphname = _bucle.ascendente;
lastChange = "2024-05-27 08:27:03 +0000";
layers = (
{
background = {
shapes = (
{
closed = 0;
nodes = (
(6,164,l),
(42,236,o),
(120,445,o),
(118,570,cs),
(117,645,o),
(97,701,o),
(44,701,cs),
(-10,701,o),
(-42,610,o),
(-40,502,cs),
(-36,293,o),
(7,-5,o),
(161,-5,c)
);
}
);
};
guides = (
{
pos = (106,164);
}
);
layerId = "6F9C6BB4-2DCF-443B-A55D-9CE049090094";
shapes = (
{
closed = 0;
nodes = (
(7,164,l),
(53,255,o),
(117,471,o),
(117,605,cs),
(117,679,o),
(97,731,o),
(44,731,cs),
(-18,731,o),
(-39,632,o),
(-39,515,cs),
(-39,388,o),
(-15,230,o),
(6,164,c)
);
}
);
width = 161;
}
);
},
{
export = 0;
glyphname = _bucle.decendente;
lastChange = "2024-06-14 08:03:10 +0000";
layers = (
{
background = {
shapes = (
{
attr = {
identifier = ID0x7fe6d54b4b70;
lineCapEnd = "1";
lineCapStart = "1";
};
closed = 0;
nodes = (
(0,360,l),
(0,-129,ls),
(0,-310,o),
(-17,-373,o),
(-69,-373,cs),
(-119,-373,o),
(-139,-330,o),
(-139,-278,cs),
(-139,-117,o),
(-24,-99,o),
(103,0,cs),
(288,145,o),
(254,360,o),
(367,360,cs)
);
}
);
};
layerId = "6F9C6BB4-2DCF-443B-A55D-9CE049090094";
shapes = (
{
attr = {
identifier = ID0x7fe6d54b4b70;
lineCapEnd = "1";
lineCapStart = "1";
};
closed = 0;
nodes = (
(0,360,l),
(0,-129,ls),
(0,-310,o),
(-17,-373,o),
(-69,-373,cs),
(-119,-373,o),
(-139,-330,o),
(-139,-278,cs),
(-139,-117,o),
(-24,-99,o),
(103,0,c)
);
}
);
width = 103;
}
);
},
{
export = 0;
glyphname = _c.master;
lastChange = "2024-06-17 10:28:03 +0000";
layers = (
{
anchors = (
{
name = bottom;
pos = (105,0);
},
{
name = top;
pos = (177,360);
}
);
background = {
shapes = (
{
attr = {
identifier = ID0x7fba9c16c3a0;
lineCapEnd = 1;
lineCapStart = 1;
};
closed = 0;
nodes = (
(203,344,l),
(133,383,o),
(-1,367,o),
(-1,175,cs),
(-1,60,o),
(57,-5,o),
(193,-5,cs),
(216,-5,l)
);
}
);
};
layerId = "6F9C6BB4-2DCF-443B-A55D-9CE049090094";
shapes = (
{
attr = {
identifier = ID0x7fba9c16c3a0;
lineCapEnd = 1;
lineCapStart = 1;
};
closed = 0;
nodes = (
(203,344,l),
(184,355,o),
(160,363,o),
(135,363,cs),
(43,363,o),
(0,272,o),
(0,177,cs),
(0,55,o),
(91,-5,o),
(188,-5,cs)
);
}
);
width = 188;
}
);
},
{
export = 0;
glyphname = _conect.left;
kernLeft = a;
lastChange = "2024-06-17 12:24:02 +0000";
layers = (
{
background = {
shapes = (
{
closed = 0;
nodes = (
(0,-5,l),
(79,-5,o),
(145,48,o),
(160,180,c)
);
}
);
};
layerId = "6F9C6BB4-2DCF-443B-A55D-9CE049090094";
shapes = (
{
closed = 0;
nodes = (
(0,-5,ls),
(89,-5,o),
(150,64,o),
(160,180,c)
);
}
);
width = 160;
}
);
},
{
export = 0;
glyphname = _conect.right;
lastChange = "2024-06-14 07:49:39 +0000";
layers = (
{
background = {
shapes = (
{
closed = 0;
nodes = (
(0,180,l),
(0,47,o),
(44,-5,o),
(120,-5,cs)
);
}
);
};
layerId = "6F9C6BB4-2DCF-443B-A55D-9CE049090094";
shapes = (
{
closed = 0;
nodes = (
(0,170,l),
(0,70,o),
(30,-5,o),
(130,-5,cs)
);
}
);
width = 130;
}
);
},
{
export = 0;
glyphname = _d.master;
lastChange = "2024-05-27 08:31:20 +0000";
layers = (
{
layerId = "6F9C6BB4-2DCF-443B-A55D-9CE049090094";
shapes = (
{
ref = _a.master;
},
{
attr = {
identifier = ID0x7fb9850b6300;
lineCapEnd = "1";
lineCapStart = "1";
};
closed = 0;
nodes = (
(271,731,l),
(271,357,l)
);
}
);
width = 271;
}
);
},
{
export = 0;
glyphname = _e.master;
lastChange = "2024-06-17 10:06:48 +0000";
layers = (
{
anchors = (
{
name = top;
pos = (41,364);
}
);
background = {
shapes = (
{
attr = {
identifier = ID0x7f9d1baad8f0;
lineCapEnd = "1";
lineCapStart = "1";
};
closed = 0;
nodes = (
(0,55,l),
(127,162,o),
(132,364,o),
(21,364,cs),
(-106,364,o),
(-123,-5,o),
(155,-5,cs)
);
}
);
};
layerId = "6F9C6BB4-2DCF-443B-A55D-9CE049090094";
shapes = (
{
attr = {
identifier = ID0x7f9d1baad8f0;
lineCapEnd = "1";
lineCapStart = "1";
};
closed = 0;
nodes = (
(-5,52,l),
(164,169,o),
(151,364,o),
(40,364,cs),
(-14,364,o),
(-55,305,o),
(-60,227,cs),
(-65,124,o),
(-26,-5,o),
(155,-5,cs)
);
}
);
width = 155;
}
);
},
{
export = 0;
glyphname = _entrada.i;
lastChange = "2024-05-27 08:27:03 +0000";
layers = (
{
layerId = "6F9C6BB4-2DCF-443B-A55D-9CE049090094";
shapes = (
{
attr = {
identifier = ID0x7fe6d54b4b70;
lineCapEnd = 1;
lineCapStart = 1;
};
closed = 0;
nodes = (
(63,360,l),
(44,257,o),
(20,180,o),
(20,180,cs)
);
}
);
width = 65;
}
);
},
{
export = 0;
glyphname = _f.master;
lastChange = "2024-06-14 08:28:51 +0000";
layers = (
{
background = {
shapes = (
{
pos = (-376,0);
ref = g;
},
{
attr = {
identifier = ID0x7f80ed21baf0;
lineCapEnd = "1";
lineCapStart = "1";
};
closed = 0;
nodes = (
(54,360,l),
(54,-129,ls),
(54,-310,o),
(37,-373,o),
(-15,-373,cs),
(-65,-373,o),
(-85,-330,o),
(-85,-278,cs),
(-85,-117,o),
(30,-99,o),
(157,0,c)
);
}
);
};
layerId = "6F9C6BB4-2DCF-443B-A55D-9CE049090094";
shapes = (
{
pos = (-1,0);
ref = _bucle.ascendente;
},
{
attr = {
identifier = ID0x7f82cd9921d0;
lineCapEnd = "1";
lineCapStart = "1";
};
closed = 0;
nodes = (
(6,160,l),
(23,82,o),
(52,-69,o),
(52,-190,cs),
(52,-291,o),
(46,-372,o),
(-19,-372,cs),
(-54,-372,o),
(-83,-345,o),
(-83,-278,cs),
(-83,-117,o),
(33,-86,o),
(145,0,c)
);
}
);
width = 145;
}
);
},
{
export = 0;
glyphname = _fina.g;
lastChange = "2024-05-27 12:42:43 +0000";
layers = (
{
background = {
shapes = (
{
attr = {
identifier = ID0x7fe6d54b4b70;
lineCapEnd = "1";
lineCapStart = "1";
};
closed = 0;
nodes = (
(-103,360,l),
(-103,-129,ls),
(-103,-310,o),
(-120,-373,o),
(-172,-373,cs),
(-222,-373,o),
(-242,-330,o),
(-242,-278,cs),
(-242,-117,o),
(-145,-70,o),
(0,0,cs),
(50,24,o),
(101,49,o),
(147,84,cs)
);
}
);
};
layerId = "6F9C6BB4-2DCF-443B-A55D-9CE049090094";
shapes = (
{
attr = {
identifier = ID0x7fe6d54b4b70;
lineCapEnd = "1";
lineCapStart = "1";
};
closed = 0;
nodes = (
(0,0,l),
(50,24,o),
(101,49,o),
(147,84,cs)
);
}
);
width = 147;
}
);
},
{
export = 0;
glyphname = _k.brazos;
lastChange = "2024-05-27 08:27:03 +0000";
layers = (
{
layerId = "6F9C6BB4-2DCF-443B-A55D-9CE049090094";
shapes = (
{
attr = {
lineCapEnd = "1";
lineCapStart = "1";
};
closed = 0;
nodes = (
(140,360,l),
(118,317,o),
(-11,183,o),
(-120,141,c)
);
},
{
attr = {
identifier = ID0x7f8323181190;
lineCapEnd = "1";
lineCapStart = "1";
};
closed = 0;
nodes = (
(142,-5,l),
(62,-5,o),
(-46,88,o),
(-120,139,c)
);
}
);
width = 142;
}
);
},
{
export = 0;
glyphname = _l.master;
lastChange = "2024-05-27 08:31:20 +0000";
layers = (
{
background = {
shapes = (
{
closed = 0;
nodes = (
(6,174,l),
(42,246,o),
(120,445,o),
(118,570,cs),
(117,645,o),
(97,701,o),
(44,701,cs),
(-10,701,o),
(-42,610,o),
(-40,502,cs),
(-36,293,o),
(7,-5,o),
(161,-5,c)
);
}
);
};
layerId = "6F9C6BB4-2DCF-443B-A55D-9CE049090094";
shapes = (
{
closed = 0;
nodes = (
(7,163,ls),
(28,69,o),
(77,-5,o),
(161,-5,c)
);
},
{
ref = _bucle.ascendente;
}
);
width = 161;
}
);
},
{
export = 0;
glyphname = _o.master;
lastChange = "2024-06-17 10:08:34 +0000";
layers = (
{
anchors = (
{
name = bottom;
pos = (117,0);
},
{
name = center;
pos = (117,180);
},
{
name = ogonek;
pos = (338,10);
},
{
name = top;
pos = (153,360);
},
{
name = topright;
pos = (373,360);
}
);
background = {
shapes = (
{
closed = 0;
nodes = (
(541,180,l),
(524,119,o),
(456,90,o),
(380,90,cs),
(265,90,o),
(132,157,o),
(132,276,cs),
(132,322,o),
(155,359,o),
(186,359,cs),
(234,359,o),
(304,289,o),
(304,180,cs),
(304,61,o),
(229,-6,o),
(154,-6,cs),
(54,-6,o),
(0,86,o),
(0,178,cs),
(0,286,o),
(58,364,o),
(154,364,cs),
(166,364,o),
(178,362,o),
(188,359,c)
);
}
);
};
layerId = "6F9C6BB4-2DCF-443B-A55D-9CE049090094";
shapes = (
{
closed = 0;
nodes = (
(360,90,l),
(225,90,o),
(132,157,o),
(132,276,cs),
(132,322,o),
(155,359,o),
(186,359,cs),
(234,359,o),
(304,289,o),
(304,180,cs),
(304,61,o),
(229,-6,o),
(154,-6,cs),
(54,-6,o),
(0,86,o),
(0,178,cs),
(0,286,o),
(58,364,o),
(154,364,cs),
(166,364,o),
(178,362,o),
(188,359,c)
);
}
);
width = 360;
}
);
},
{
export = 0;
glyphname = _or.master;
lastChange = "2024-06-14 12:56:18 +0000";
layers = (
{
layerId = "6F9C6BB4-2DCF-443B-A55D-9CE049090094";
shapes = (
{
closed = 0;
nodes = (
(188,359,l),
(178,362,o),
(166,364,o),
(154,364,cs),
(58,364,o),
(0,286,o),
(0,178,cs),
(0,86,o),
(54,-6,o),
(154,-6,cs),
(229,-6,o),
(304,61,o),
(304,180,cs),
(304,346,o),
(141,423,o),
(141,295,cs),
(141,181,o),
(220,136,o),
(307,136,cs),
(380,136,o),
(505,207,o),
(505,302,cs),
(505,337,o),
(484,364,o),
(442,364,cs),
(385,364,o),
(304,304,o),
(304,175,cs),
(304,59,o),
(400,-5,o),
(505,-5,c)
);
}
);
width = 505;
}
);
},
{
export = 0;
glyphname = _p.master;
lastChange = "2024-05-27 08:31:20 +0000";
layers = (
{
layerId = "6F9C6BB4-2DCF-443B-A55D-9CE049090094";
shapes = (
{
attr = {
identifier = ID0x7f9510d0edf0;
lineCapEnd = 1;
lineCapStart = 1;
};
closed = 0;
nodes = (
(0,111,l),
(6,295,o),
(76,360,o),
(135,360,cs),
(199,360,o),
(234,327,o),
(234,237,cs),
(234,150,l)
);
},
{
attr = {
identifier = ID0x7fe6d54b4b70;
lineCapEnd = "1";
lineCapStart = "1";
};
closed = 0;
nodes = (
(0,360,l),
(0,-370,l)
);
}
);
width = 234;
}
);
},
{
export = 0;
glyphname = _panza.b;
lastChange = "2024-06-17 10:39:38 +0000";
layers = (
{
background = {
shapes = (
{
closed = 0;
nodes = (
(0,-5,l),
(139,-5,o),
(193,230,o),
(31,324,c)
);
},
{
closed = 1;
nodes = (
(34,97,l),
(97,97,l),
(97,205,l),
(34,205,l)
);
}
);
};
layerId = "6F9C6BB4-2DCF-443B-A55D-9CE049090094";
shapes = (
{
closed = 0;
nodes = (
(0,-5,l),
(85,-5,o),
(150,72,o),
(150,160,cs),
(150,216,o),
(124,276,o),
(61,324,c)
);
}
);
width = 130;
}
);
},
{
export = 0;
glyphname = _q.master;
lastChange = "2024-05-27 08:31:20 +0000";
layers = (
{
layerId = "6F9C6BB4-2DCF-443B-A55D-9CE049090094";
shapes = (
{
attr = {
lineCapEnd = 1;
lineCapStart = 1;
};
closed = 0;
nodes = (
(271,150,l),
(271,-370,l)
);
},
{
ref = _a.master;
}
);
width = 271;
}
);
},
{
export = 0;
glyphname = _r.master;
lastChange = "2024-05-27 08:31:20 +0000";
layers = (
{
background = {
shapes = (
{
attr = {
lineCapEnd = 1;
lineCapStart = 1;
};
closed = 0;
nodes = (
(0,389,l),
(27,359,o),
(61,349,o),
(148,359,cs),
(177,363,o),
(187,364,o),
(185,348,cs),
(177,295,o),
(164,219,o),
(164,151,cs),
(164,67,o),
(194,-5,o),
(279,-5,cs)
);
}
);
};
layerId = "6F9C6BB4-2DCF-443B-A55D-9CE049090094";
shapes = (
{
closed = 0;
nodes = (
(0,360,l),
(0,389,l),
(27,359,o),
(61,349,o),
(148,359,cs),
(177,363,o),
(187,364,o),
(185,348,cs),
(177,295,o),
(164,219,o),
(164,151,cs),
(164,67,o),
(194,-5,o),
(279,-5,cs)
);
}
);
width = 279;
}
);
},
{
export = 0;
glyphname = _s.master;
lastChange = "2024-06-14 12:26:30 +0000";
layers = (
{
background = {
shapes = (
{
attr = {
lineCapEnd = "1";
lineCapStart = "1";
};
closed = 0;
nodes = (
(0,369,l),
(121,286,o),
(251,234,o),
(243,121,cs),
(236,19,o),
(123,-11,o),
(15,30,c)
);
}
);
};
layerId = "6F9C6BB4-2DCF-443B-A55D-9CE049090094";
shapes = (
{
attr = {
lineCapEnd = "1";
lineCapStart = "1";
};
closed = 0;
nodes = (
(0,369,l),
(121,286,o),
(248,234,o),
(243,121,cs),
(236,-31,o),
(93,-11,o),
(35,30,c)
);
},
{
closed = 0;
nodes = (
(265,-5,l),
(231,-5,o),
(177,0,o),
(153,2,c)
);
}
);
width = 265;
}
);
},
{
export = 0;
glyphname = _t.master;
lastChange = "2024-05-27 08:31:20 +0000";
layers = (
{
guides = (
{
pos = (89,577);
}
);
layerId = "6F9C6BB4-2DCF-443B-A55D-9CE049090094";
shapes = (
{
attr = {
identifier = ID0x7fe6d6dc0d10;
lineCapEnd = 1;
lineCapStart = 1;
};
closed = 0;
nodes = (
(-104,421,l),
(165,421,l)
);
},
{
closed = 0;
nodes = (
(146,-5,ls),
(26,-5,o),
(0,65,o),
(0,347,cs),
(0,720,l)
);
}
);
width = 146;
}
);
},
{
export = 0;
glyphname = _u.master;
lastChange = "2024-06-17 10:09:36 +0000";
layers = (
{
anchors = (
{
name = bottom;
pos = (-17,0);
},
{
name = ogonek;
pos = (174,10);
},
{
name = top;
pos = (127,360);
},
{
name = topright;
pos = (242,360);
}
);
layerId = "6F9C6BB4-2DCF-443B-A55D-9CE049090094";
shapes = (
{
attr = {
identifier = ID0x7fe6d6dc1620;
lineCapEnd = "1";
lineCapStart = "1";
};
closed = 0;
nodes = (
(271,360,l),
(271,150,l)
);
},
{
attr = {
identifier = ID0x7fba9a1830a0;
lineCapEnd = 1;
lineCapStart = 1;
};
closed = 0;
nodes = (
(270,150,l),
(244,55,o),
(174,-5,o),
(111,-5,cs),
(52,-5,o),
(0,27,o),
(0,150,cs),
(0,360,l)
);
}
);
width = 271;
}
);
},
{
export = 0;
glyphname = _v.master;
lastChange = "2024-05-27 08:31:20 +0000";
layers = (
{
background = {
shapes = (
{
attr = {
identifier = ID0x7fdbcacddb30;
lineCapEnd = "1";
lineCapStart = "1";
};
closed = 0;
nodes = (
(0,360,l),
(49,360,o),
(50,319,o),
(50,265,cs),
(50,150,ls),
(50,42,o),
(94,-5,o),
(176,-5,c)
);
},
{
pos = (176,0);
ref = _panza.b;
}
);
};
guides = (
{
pos = (178,323);
}
);
layerId = "6F9C6BB4-2DCF-443B-A55D-9CE049090094";
shapes = (
{
ref = _arco.v;
},
{
attr = {
identifier = ID0x7fbe1ecb5cb0;
lineCapEnd = 1;
lineCapStart = 1;
};
closed = 0;
nodes = (
(237,323,l),
(286,286,o),
(313,243,o),
(313,194,cs),
(313,97,o),
(228,-6,o),
(138,-6,cs),
(65,-6,o),
(50,49,o),
(50,150,cs)
);
}
);
width = 307;
}
);
},
{
export = 0;
glyphname = _x.master;
lastChange = "2024-05-27 13:03:43 +0000";
layers = (
{
background = {
shapes = (
{
closed = 0;
nodes = (
(-137,180,l),
(-127,270,o),
(-104,361,o),
(9,361,cs),
(77,361,o),
(142,301,o),
(142,179,cs),
(142,48,o),
(71,-5,o),
(-35,-5,c)
);
}
);
};
layerId = "6F9C6BB4-2DCF-443B-A55D-9CE049090094";
shapes = (
{
pos = (142,0);
ref = _c.master;
},
{
closed = 0;
nodes = (
(-1,360,l),
(77,360,o),
(142,299,o),
(142,179,cs),
(142,48,o),
(71,-5,o),
(-35,-5,c)
);
}
);
width = 330;
}
);
},
{
export = 0;
glyphname = _z.master;
lastChange = "2024-06-14 08:52:11 +0000";
layers = (
{
background = {
shapes = (
{
pos = (-261,0);
ref = _conect.left;
},
{
pos = (-101,0);
ref = _a.master;
},
{
attr = {
identifier = ID0x7f80efc3ce40;
lineCapEnd = "1";
lineCapStart = "1";
};
closed = 0;
nodes = (
(170,360,l),
(170,-129,ls),
(170,-310,o),
(153,-373,o),
(101,-373,cs),
(51,-373,o),
(31,-330,o),
(31,-278,cs),
(31,-117,o),
(146,-99,o),
(273,0,c)
);
}
);
};
layerId = "6F9C6BB4-2DCF-443B-A55D-9CE049090094";
shapes = (
{
closed = 0;
nodes = (
(0,360,l),
(0,388,l),
(23,366,o),
(42,355,o),
(109,355,cs),
(192,355,o),
(255,363,o),
(255,363,cs),
(263,364,o),
(266,360,o),
(259,348,cs),
(237,310,o),
(151,171,o),
(86,48,c),
(207,34,o),
(255,-90,o),
(255,-200,cs),
(255,-323,o),
(212,-373,o),
(170,-373,cs),
(130,-373,o),
(92,-329,o),
(92,-264,cs),
(92,-188,o),
(146,-99,o),
(273,0,c)
);
}
);
width = 273;
}
);
},
{
export = 0;
glyphname = baston.caps;
lastChange = "2024-05-27 08:27:03 +0000";
layers = (
{
layerId = "6F9C6BB4-2DCF-443B-A55D-9CE049090094";
shapes = (
{
closed = 0;
nodes = (
(50,700,l),
(144,700,o),
(150,699,o),
(146,588,cs),
(125,0,l)
);
}
);
width = 197;
}
);
},
{
export = 0;
glyphname = bucle.descendente;
lastChange = "2024-05-27 08:27:03 +0000";
layers = (
{
background = {
shapes = (
{
closed = 0;
nodes = (
(124,270,l),
(106,-240,ls),
(104,-299,o),
(90,-324,o),
(60,-324,cs),
(27,-324,o),
(0,-294,o),
(0,-244,cs),
(0,-166,o),
(64,-99,o),
(164,20,cs),
(223,90,o),
(287,167,o),
(315,230,c)
);
}
);
};
layerId = "6F9C6BB4-2DCF-443B-A55D-9CE049090094";
shapes = (
{
closed = 0;
nodes = (
(127,360,l),
(106,-240,ls),
(104,-299,o),
(90,-324,o),
(60,-324,cs),
(27,-324,o),
(0,-294,o),
(0,-244,cs),
(0,-166,o),
(64,-99,o),
(164,20,cs),
(223,90,o),
(287,167,o),
(315,230,c)
);
}
);
width = 310;
}
);
},
{
export = 0;
glyphname = _arco1.from.top;
lastChange = "2024-05-27 08:57:37 +0000";
layers = (
{
background = {
shapes = (
{
attr = {
lineCapEnd = 1;
lineCapStart = 1;
};
closed = 0;
nodes = (
(192,0,l),
(192,237,ls),
(192,326,o),
(171,360,o),
(122,360,cs),
(88,360,o),
(70,339,o),
(50,300,c)
);
}
);
};
layerId = "6F9C6BB4-2DCF-443B-A55D-9CE049090094";
shapes = (
{
attr = {
lineCapEnd = 1;
lineCapStart = 1;
};
closed = 0;
nodes = (
(192,0,l),
(192,237,ls),
(192,325,o),
(170,360,o),
(125,360,cs),
(89,360,o),
(70,340,o),
(50,300,c)
);
}
);
width = 192;
}
);
},
{
export = 0;
glyphname = _brazo.b.e;
lastChange = "2024-05-27 08:27:03 +0000";
layers = (
{
layerId = "6F9C6BB4-2DCF-443B-A55D-9CE049090094";
shapes = (
{
attr = {
identifier = ID0x7fdbb27ec480;
lineCapEnd = "1";
lineCapStart = "1";
};
closed = 0;
nodes = (
(4,276,l),
(44,231,o),
(105,178,o),
(166,168,cs)
);
}
);
width = 166;
}
);
},
{
export = 0;
glyphname = _bucle.ascendente.b;
lastChange = "2024-05-27 08:27:03 +0000";
layers = (
{
background = {
shapes = (
{
closed = 0;
nodes = (
(0,194,l),
(57,276,o),
(129,445,o),
(129,570,cs),
(129,645,o),
(110,701,o),
(57,701,cs),
(3,701,o),
(-20,620,o),
(-20,512,cs),
(-20,303,o),
(-12,-5,o),
(142,-5,c)
);
}
);
};
layerId = "6F9C6BB4-2DCF-443B-A55D-9CE049090094";
shapes = (
{
closed = 0;
nodes = (
(6,163,l),
(28,66,o),
(68,-5,o),
(142,-5,c)
);
},
{
pos = (-2,0);
ref = _bucle.ascendente;
}
);
width = 142;
}
);
metricLeft = "-4t2";
},
{
export = 0;
glyphname = _bucle.ascendente.h;
lastChange = "2024-05-27 08:27:03 +0000";
layers = (
{
background = {
shapes = (
{
attr = {
identifier = ID0x7fc21b80f700;
lineCapEnd = "1";
lineCapStart = "1";
};
closed = 0;
nodes = (
(6,184,l),
(94,362,o),
(138,472,o),
(128,625,cs),
(125,674,o),
(95,701,o),
(63,701,cs),
(29,701,o),
(0,670,o),
(0,602,cs),
(2,271,l),
(2,0,l)
);
}
);
};
layerId = "6F9C6BB4-2DCF-443B-A55D-9CE049090094";
shapes = (
{
attr = {
identifier = ID0x7fc21b80f700;
lineCapEnd = "1";
lineCapStart = "1";
};
closed = 0;
nodes = (
(2,183,l),
(36,245,ls),
(142,438,o),
(219,731,o),
(63,731,cs),
(29,731,o),
(0,700,o),
(0,632,cs),
(2,271,l),
(2,0,l)
);
}
);
width = 129;
}
);
},
{
export = 0;
glyphname = _c.fina.master;
lastChange = "2024-06-17 11:44:37 +0000";
layers = (
{
background = {
shapes = (
{
attr = {
identifier = ID0x7fba9c16c3a0;
lineCapEnd = "1";
lineCapStart = "1";
};
closed = 0;
nodes = (
(188,-5,l),
(246,-5,o),
(301,17,o),
(324,58,c)
);
}
);
};
layerId = "6F9C6BB4-2DCF-443B-A55D-9CE049090094";
shapes = (
{
ref = _c.master;
}
);
width = 188;
}
);
},
{
export = 0;
glyphname = _conect.b.h;
lastChange = "2024-05-27 08:27:03 +0000";
layers = (
{
layerId = "6F9C6BB4-2DCF-443B-A55D-9CE049090094";
shapes = (
{
attr = {
identifier = ID0x7fa69e598610;
lineCapEnd = "1";
lineCapStart = "1";
};
closed = 0;
nodes = (
(-222,330,l),
(-109,243,o),
(3,238,o),
(36,274,cs)
);
}
);
width = 36;
}
);
},
{
export = 0;
glyphname = _conect.from.bottom;
lastChange = "2024-06-14 08:10:05 +0000";
layers = (
{
background = {
shapes = (
{
attr = {
identifier = ID0x7f80f008d8c0;
lineCapEnd = "1";
lineCapStart = "1";
};
closed = 0;
nodes = (
(-103,360,l),
(-103,-129,ls),
(-103,-310,o),
(-120,-373,o),
(-172,-373,cs),
(-222,-373,o),
(-242,-330,o),
(-242,-278,cs),
(-242,-117,o),
(-133,-103,o),
(0,0,cs),
(69,53,o),
(119,94,o),
(160,178,c)
);
}
);
};
layerId = "6F9C6BB4-2DCF-443B-A55D-9CE049090094";
shapes = (
{
attr = {
identifier = ID0x7f80f008d8c0;
lineCapEnd = "1";
lineCapStart = "1";
};
closed = 0;
nodes = (
(0,0,l),
(69,53,o),
(119,94,o),
(160,178,c)
);
}
);
width = 160;
}
);
},
{
export = 0;
glyphname = _conect.from.middle;
lastChange = "2024-06-14 09:45:28 +0000";
layers = (
{
layerId = "6F9C6BB4-2DCF-443B-A55D-9CE049090094";
shapes = (
{
closed = 0;
nodes = (
(181,190,l),
(164,129,o),
(76,90,o),
(0,90,cs)
);
}
);
width = 181;
}
);
},
{
export = 0;
glyphname = _conect.from.top;
lastChange = "2024-05-27 08:57:37 +0000";
layers = (
{
background = {
shapes = (
{
pos = (-915,0);
ref = o;
}
);
};
layerId = "6F9C6BB4-2DCF-443B-A55D-9CE049090094";
shapes = (
{
closed = 0;
nodes = (
(0,218,ls),
(29,218,o),
(47,234,o),
(58,268,cs)
);
}
);
width = 44;
}
);
},
{
export = 0;
glyphname = _conect.left.ascendente;
kernLeft = l;
lastChange = "2024-06-17 12:24:26 +0000";
layers = (
{
background = {
shapes = (
{
closed = 0;
nodes = (
(222,180,l),
(173,54,o),
(81,-5,o),
(0,-5,cs),
(-84,-5,o),
(-156,58,o),
(-156,175,cs),
(-156,304,o),
(-75,364,o),
(-18,364,cs),
(106,364,o),
(74,128,o),
(-156,168,c)
);
}
);
};
layerId = "6F9C6BB4-2DCF-443B-A55D-9CE049090094";
shapes = (
{
closed = 0;
nodes = (
(182,180,l),
(147,79,o),
(91,-5,o),
(0,-5,c)
);
}
);
width = 182;
}
);
},
{
export = 0;
glyphname = _conect.left.long;
lastChange = "2024-05-27 08:27:03 +0000";
layers = (
{
background = {
shapes = (
{
ref = _conect.left;
}
);
};
layerId = "6F9C6BB4-2DCF-443B-A55D-9CE049090094";
shapes = (
{
attr = {
identifier = ID0x7fc21b80f700;
lineCapEnd = "1";
lineCapStart = "1";
};
closed = 0;
nodes = (
(0,-5,l),
(170,-5,o),
(180,157,o),
(186,360,c)
);
}
);
width = 186;
}
);
},
{
export = 0;
glyphname = _conect.right.e;
lastChange = "2024-05-27 08:27:03 +0000";
layers = (
{
background = {
anchors = (
{
name = bottom;
pos = (130,0);
},
{
name = ogonek;
pos = (6,10);
},
{
name = top;
pos = (66,360);
}
);
shapes = (
{
pos = (285,0);
ref = _conect.right.e;
scale = (-1,1);
},
{
pos = (135,0);
ref = _e.master;
scale = (-1,1);
}
);
};
guides = (
{
angle = 90;
pos = (143,84);
}
);
layerId = "6F9C6BB4-2DCF-443B-A55D-9CE049090094";
shapes = (
{
attr = {
identifier = ID0x7f8322cab0f0;
lineCapEnd = "1";
lineCapStart = "1";
};
closed = 0;
nodes = (
(0,-5,l),
(73,-5,o),
(142,8,o),
(206,55,c)
);
}
);
width = 206;
}
);
},
{
export = 0;
glyphname = _conector.b.m;
lastChange = "2024-05-27 08:27:03 +0000";
layers = (
{
layerId = "6F9C6BB4-2DCF-443B-A55D-9CE049090094";
shapes = (
{
closed = 0;
nodes = (
(0,218,l),
(71,218,o),
(76,360,o),
(145,360,cs)
);
}
);
width = 145;
}
);
},
{
export = 0;
glyphname = _conector.saleida.s;
lastChange = "2024-06-14 12:00:12 +0000";
layers = (
{
background = {
shapes = (
{
attr = {
lineCapEnd = "1";
lineCapStart = "1";
};
closed = 0;
nodes = (
(-166,30,l),
(-108,-5,o),
(-3,-5,o),
(84,-5,cs),
(173,-5,o),
(234,64,o),
(244,180,c)
);
},
{
pos = (-201,0);
ref = _s.master;
}
);
};
layerId = "6F9C6BB4-2DCF-443B-A55D-9CE049090094";
shapes = (
{
attr = {
lineCapEnd = "1";
lineCapStart = "1";
};
closed = 0;
nodes = (
(-80,2,l),
(-51,-3,o),
(-35,-5,o),
(20,-5,cs)
);
}
);
width = 20;
}
);
},
{
export = 0;
glyphname = _conetc.fina.e;
lastChange = "2024-06-14 09:06:30 +0000";
layers = (
{
layerId = "6F9C6BB4-2DCF-443B-A55D-9CE049090094";
shapes = (
{
attr = {
identifier = ID0x7fba9c16c3a0;
lineCapEnd = "1";
lineCapStart = "1";
};
closed = 0;
nodes = (
(0,-5,l),
(23,-5,o),
(45,-2,o),
(66,5,c)
);
}
);
width = 66;
}
);
},
{
export = 0;
glyphname = _f.top.master;
lastChange = "2024-05-27 08:31:20 +0000";
layers = (
{
layerId = "6F9C6BB4-2DCF-443B-A55D-9CE049090094";
shapes = (
{
attr = {
identifier = ID0x7f832352d5f0;
lineCapEnd = "1";
lineCapStart = "1";
};
closed = 0;
nodes = (
(8,280,l),
(52,333,o),
(114,450,o),
(114,573,cs),
(114,652,o),
(97,709,o),
(53,709,cs),
(1,709,o),
(-16,639,o),
(-16,539,cs),
(-16,322,o),
(67,-39,o),
(67,-146,cs),
(67,-302,o),
(35,-354,o),
(2,-354,cs),
(-30,-354,o),
(-62,-304,o),
(-62,-239,cs),
(-62,-174,o),
(-30,-93,o),
(63,-33,cs)
);
}
);
width = 114;
}
);
},
{
export = 0;
glyphname = _final.base.long;
lastChange = "2024-06-17 12:32:25 +0000";
layers = (
{
layerId = "6F9C6BB4-2DCF-443B-A55D-9CE049090094";
shapes = (
{
closed = 0;
nodes = (
(0,-5,l),
(23,-5,o),
(65,0,o),
(96,15,c)
);
}
);
width = 96;
}
);
},
{
export = 0;
glyphname = _k.alt.master;
lastChange = "2024-05-27 08:31:20 +0000";
layers = (
{
layerId = "6F9C6BB4-2DCF-443B-A55D-9CE049090094";
shapes = (
{
attr = {
lineCapEnd = 1;
lineCapStart = 1;
};
closed = 0;
nodes = (
(244,-5,l),
(159,-15,o),
(102,77,o),
(57,144,c),
(174,163,o),
(225,232,o),
(225,296,cs),
(225,331,o),
(203,360,o),
(182,360,cs),
(127,360,o),
(9,179,o),
(6,91,cs)
);
},
{
ref = _bucle.ascendente.h;
}
);
width = 244;
}
);
},
{
export = 0;
glyphname = _l.from.top;
lastChange = "2024-06-14 10:36:20 +0000";
layers = (
{
background = {
shapes = (
{
pos = (-50,0);
ref = b.from.top;
}
);
};
layerId = "6F9C6BB4-2DCF-443B-A55D-9CE049090094";
shapes = (
{
closed = 0;
nodes = (
(0,218,l),
(117,218,o),
(176,483,o),
(176,612,cs),
(176,681,o),
(145,700,o),
(116,700,cs),
(38,700,o),
(37,472,o),
(37,404,cs),
(37,122,o),
(84,-5,o),
(185,-5,c)
);
}
);
width = 185;
}
);
},
{
export = 0;
glyphname = _s.master.fina;
lastChange = "2024-06-14 12:23:22 +0000";
layers = (
{
background = {
shapes = (
{
ref = _s.master;
},
{
attr = {
identifier = ID0x7f80eea59370;
lineCapEnd = "1";
lineCapStart = "1";
};
closed = 0;
nodes = (
(119,1,l),
(191,-4,o),
(259,2,o),
(322,33,c)
);
}
);
};
layerId = "6F9C6BB4-2DCF-443B-A55D-9CE049090094";
shapes = (
{
attr = {
identifier = ID0x7f80efd2dd80;
lineCapEnd = "1";
lineCapStart = "1";
};
closed = 0;
nodes = (
(0,369,l),
(121,286,o),
(248,234,o),
(243,121,cs),
(236,-31,o),
(93,-11,o),
(35,30,c)
);
},
{
attr = {
identifier = ID0x7f80eea59370;
lineCapEnd = "1";
lineCapStart = "1";
};
closed = 0;
nodes = (
(119,1,l),
(191,-4,o),
(259,2,o),
(322,33,c)
);
}
);
width = 322;
}
);
},
{
export = 0;
glyphname = _stem.short.sale;
lastChange = "2024-05-27 08:27:03 +0000";
layers = (
{
background = {
shapes = (
{
attr = {
identifier = ID0x7fc21b80f700;
lineCapEnd = "1";
lineCapStart = "1";
strokeHeight = 45;
strokeWidth = 40;
};
closed = 0;
nodes = (
(0,357,l),
(0,100,ls),
(0,29,o),
(35,-5,o),
(79,-5,cs),
(140,-5,o),
(218,58,o),
(255,179,c)
);
}
);
};
layerId = "6F9C6BB4-2DCF-443B-A55D-9CE049090094";
shapes = (
{
attr = {
identifier = ID0x7f83231b73a0;
lineCapEnd = "1";
lineCapStart = "1";
};
closed = 0;
nodes = (
(1,357,l),
(1,110,ls),
(1,39,o),
(45,-5,o),
(100,-5,cs)
);
},
{
pos = (83,0);
ref = _conect.left;
}
);
width = 241;
}
);
},
{
export = 0;
glyphname = arco.con.salida;
lastChange = "2024-05-27 08:27:03 +0000";
layers = (
{
background = {
shapes = (
{
closed = 0;
nodes = (
(0,0,l),
(6,154,l),
(40,253,o),
(96,360,o),
(181,360,cs),
(221,360,o),
(233,244,o),
(221,75,cs)
);
}
);
};
layerId = "6F9C6BB4-2DCF-443B-A55D-9CE049090094";
shapes = (
{
closed = 0;
nodes = (
(420,230,l),
(364,83,o),
(280,0,o),
(249,0,cs),
(216,0,o),
(215,38,o),
(218,119,cs),
(222,219,ls),
(227,337,o),
(219,360,o),
(179,360,cs),
(124,360,o),
(6,179,o),
(3,91,cs),
(0,0,l)
);
}
);
width = 415;
}
);
},
{
export = 0;
glyphname = trazo.entrada.curvo;
lastChange = "2024-05-27 08:27:03 +0000";
layers = (
{
background = {
shapes = (
{
closed = 0;
nodes = (
(160,0,l),
(179,153,ls),
(197,300,o),
(196,360,o),
(175,360,cs),
(147,360,o),
(81,265,o),
(11,170,cs)
);
}
);
};
layerId = "6F9C6BB4-2DCF-443B-A55D-9CE049090094";
shapes = (
{
closed = 0;
nodes = (
(5,230,l),
(33,291,o),
(66,359,o),
(101,359,cs),
(124,359,o),
(125,321,o),
(122,240,cs),
(116,90,l)
);
}
);
width = 299;
}
);
},
{
export = 0;
glyphname = trazo.entrada.vertice;
lastChange = "2024-05-27 08:27:03 +0000";
layers = (
{
background = {
shapes = (
{
closed = 0;
nodes = (
(41,0,l),
(53,360,l)
);
}
);
};
layerId = "6F9C6BB4-2DCF-443B-A55D-9CE049090094";
shapes = (
{
closed = 0;
nodes = (
(53,360,l)
);
},
{
closed = 0;
nodes = (
(53,359,l),
(41,318,o),
(27,279,o),
(5,230,c)
);
}
);
width = 53;
}
);
},
{
export = 0;
glyphname = trazo.salida.bajo;
lastChange = "2024-05-27 08:27:03 +0000";
layers = (
{
background = {
shapes = (
{
closed = 0;
nodes = (
(304,230,l),
(242,83,o),
(148,0,o),
(113,0,cs),
(80,0,o),
(79,38,o),
(82,119,cs),
(87,270,l)
);
}
);
};
guides = (
{
angle = 70.887;
pos = (316,201);
}
);
layerId = "6F9C6BB4-2DCF-443B-A55D-9CE049090094";
shapes = (
{
closed = 0;
nodes = (
(306,100,l),
(266,39,o),
(221,0,o),
(173,0,cs),
(129,0,o),
(91,31,o),
(91,119,cs),
(91,360,l)
);
}
);
width = 299;
}
);
},
{
export = 0;
glyphname = trazo.salida.v;
lastChange = "2024-05-27 08:27:03 +0000";
layers = (
{
background = {
shapes = (
{
closed = 0;
nodes = (
(-1,90,l),
(-5,10,o),
(5,0,o),
(41,0,cs),
(111,0,o),
(216,143,o),
(216,260,cs),
(216,292,o),
(206,311,o),
(190,330,cs),
(155,370,o),
(109,360,o),
(109,329,cs),
(109,249,o),
(260,217,o),
(362,230,c)
);
},
{
closed = 0;
nodes = (
(221,354,l),
(191,358,o),
(111,361,o),
(81,361,cs),
(39,361,o),
(0,252,o),
(0,182,cs),
(0,56,o),
(38,1,o),
(81,1,cs),
(140,1,o),
(209,102,o),
(217,270,cs),
(221,350,l)
);
}
);
};
layerId = "6F9C6BB4-2DCF-443B-A55D-9CE049090094";
shapes = (
{
closed = 0;
nodes = (
(94,0,l),
(166,0,o),
(231,105,o),
(231,201,cs),
(231,253,o),
(199,321,o),
(140,356,c),
(168,251,o),
(228,218,o),
(362,230,c)
);
}
);
width = 357;
}
);
},
{
export = 0;
glyphname = _ascendente.h.from.top;
lastChange = "2024-06-14 10:34:41 +0000";
layers = (
{
background = {
shapes = (
{
closed = 0;
nodes = (
(80,290,l),
(150,362,o),
(189,474,o),
(189,586,cs),
(189,630,o),
(182,701,o),
(122,701,cs),
(88,701,o),
(59,670,o),
(59,602,cs),
(61,271,l),
(61,0,l)
);
}
);
};
layerId = "6F9C6BB4-2DCF-443B-A55D-9CE049090094";
shapes = (
{
closed = 0;
nodes = (
(70,278,l),
(140,350,o),
(189,474,o),
(189,586,cs),
(189,630,o),
(182,701,o),
(122,701,cs),
(88,701,o),
(59,670,o),
(59,602,cs),
(61,0,l)
);
},
{
closed = 0;
nodes = (
(0,218,l),
(29,218,o),
(49,236,o),
(61,266,cs)
);
}
);
width = 189;
}
);
},
